<svg version="1.1" viewBox="0.0 0.0 961.2152230971128 218.4278215223097" fill="none" stroke="none" stroke-linecap="square" stroke-miterlimit="10" xmlns:xlink="http://www.w3.org/1999/xlink" xmlns="http://www.w3.org/2000/svg"><clipPath id="p.0"><path d="m0 0l961.2152 0l0 218.42783l-961.2152 0l0 -218.42783z" clip-rule="nonzero"/></clipPath><g clip-path="url(#p.0)"><path fill="#000000" fill-opacity="0.0" d="m0 0l961.2152 0l0 218.42783l-961.2152 0z" fill-rule="evenodd"/><path fill="#cfe2f3" d="m0.007874016 -1.3805774l959.9685 0l0 218.5197l-959.9685 0z" fill-rule="evenodd"/><path stroke="#34a5da" stroke-width="4.0" stroke-linejoin="round" stroke-linecap="butt" d="m0.007874016 -1.3805774l959.9685 0l0 218.5197l-959.9685 0z" fill-rule="evenodd"/><path fill="#000000" fill-opacity="0.0" d="m44.32021 158.02592l871.5591 0l0 56.818893l-871.5591 0z" fill-rule="evenodd"/><path fill="#000000" d="m70.92971 196.74593l0 -18.78125l-9.406254 0l0 -4.265625l23.046879 0l0 4.265625l-9.390625 0l0 18.78125l-4.25 0zm15.975555 0l0 -24.640625l4.1875 0l0 6.078125l10.234375 0q1.796875 0 3.109375 1.296875q1.3125 1.296875 1.3125 3.125l0 14.140625l-4.1875 0l0 -13.25q0 -0.890625 -0.125 -1.0q-0.109375 -0.125 -1.0 -0.125l-8.21875 0q-0.90625 0 -1.015625 0.125q-0.109375 0.109375 -0.109375 1.0l0 13.25l-4.1875 0zm25.65654 0q-1.828125 0 -3.125 -1.296875q-1.296875 -1.296875 -1.296875 -3.125l0 -9.71875q0 -1.828125 1.296875 -3.125q1.296875 -1.296875 3.125 -1.296875l10.015625 0q1.828125 0 3.125 1.296875q1.296875 1.296875 1.296875 3.125l0 6.96875l-14.65625 0l0 1.859375q0 0.890625 0.109375 1.015625q0.109375 0.109375 1.0 0.109375l13.546875 0l0 4.1875l-14.4375 0zm-0.21875 -10.9375l10.453125 0l0 -2.3125q0 -0.890625 -0.109375 -1.0q-0.109375 -0.125 -1.0 -0.125l-8.234375 0q-0.890625 0 -1.0 0.125q-0.109375 0.109375 -0.109375 1.0l0 2.3125zm32.342308 10.9375q-1.8125 0 -3.125 -1.3125q-1.3125 -1.3125 -1.3125 -3.140625l0 -14.140625q0 -1.828125 1.3125 -3.140625q1.3125 -1.3125 3.125 -1.3125l18.53125 0l0 4.265625l-17.625 0q-0.90625 0 -1.015625 0.109375q-0.109375 0.109375 -0.109375 1.015625l0 12.28125q0 0.890625 0.109375 1.015625q0.109375 0.109375 1.015625 0.109375l17.625 0l0 4.25l-18.53125 0zm26.116547 0q-1.828125 0 -3.125 -1.296875q-1.296875 -1.296875 -1.296875 -3.125l0 -9.71875q0 -1.828125 1.296875 -3.125q1.296875 -1.296875 3.125 -1.296875l10.015625 0q1.828125 0 3.125 1.296875q1.296875 1.296875 1.296875 3.125l0 9.71875q0 1.828125 -1.296875 3.125q-1.296875 1.296875 -3.125 1.296875l-10.015625 0zm0.890625 -4.1875l8.234375 0q0.890625 0 1.0 -0.109375q0.109375 -0.125 0.109375 -1.015625l0 -7.9375q0 -0.890625 -0.109375 -1.0q-0.109375 -0.125 -1.0 -0.125l-8.234375 0q-0.890625 0 -1.0 0.125q-0.109375 0.109375 -0.109375 1.0l0 7.9375q0 0.890625 0.109375 1.015625q0.109375 0.109375 1.0 0.109375zm16.940918 4.1875l0 -18.5625l23.0 0q1.828125 0 3.125 1.296875q1.296875 1.296875 1.296875 3.125l0 14.140625l-4.171875 0l0 -13.25q0 -0.890625 -0.125 -1.0q-0.125 -0.125 -0.984375 -0.125l-5.1875 0q-0.890625 0 -1.015625 0.125q-0.109375 0.109375 -0.109375 1.0l0 13.25l-4.21875 0l0 -13.25q0 -0.890625 -0.109375 -1.0q-0.109375 -0.125 -1.015625 -0.125l-5.171875 0q-0.90625 0 -1.015625 0.125q-0.109375 0.109375 -0.109375 1.0l0 13.25l-4.1875 0zm30.048065 7.359375l0 -25.921875l14.421875 0q1.828125 0 3.125 1.296875q1.296875 1.296875 1.296875 3.125l0 9.71875q0 1.828125 -1.296875 3.125q-1.296875 1.296875 -3.125 1.296875l-10.234375 0l0 7.359375l-4.1875 0zm5.3125 -11.546875l8.21875 0q0.890625 0 1.0 -0.109375q0.125 -0.125 0.125 -1.015625l0 -7.9375q0 -0.890625 -0.125 -1.0q-0.109375 -0.125 -1.0 -0.125l-8.21875 0q-0.90625 0 -1.015625 0.125q-0.109375 0.109375 -0.109375 1.0l0 7.9375q0 0.890625 0.109375 1.015625q0.109375 0.109375 1.015625 0.109375zm20.310547 4.1875q-1.828125 0 -3.125 -1.296875q-1.28125 -1.296875 -1.28125 -3.125l0 -14.140625l4.1875 0l0 13.25q0 0.890625 0.109375 1.015625q0.109375 0.109375 1.015625 0.109375l8.21875 0q0.890625 0 1.0 -0.109375q0.125 -0.125 0.125 -1.015625l0 -13.25l4.1875 0l0 14.140625q0 1.828125 -1.296875 3.125q-1.296875 1.296875 -3.125 1.296875l-10.015625 0zm21.536072 0q-1.828125 0 -3.125 -1.296875q-1.28125 -1.296875 -1.28125 -3.125l0 -19.828125l4.1875 0l0 5.6875l7.234375 0l0 4.1875l-7.234375 0l0 9.0625q0 0.890625 0.109375 1.015625q0.109375 0.109375 1.015625 0.109375l6.109375 0l0 4.1875l-7.015625 0zm13.953522 0q-1.828125 0 -3.125 -1.296875q-1.296875 -1.296875 -1.296875 -3.125l0 -9.71875q0 -1.828125 1.296875 -3.125q1.296875 -1.296875 3.125 -1.296875l10.015625 0q1.828125 0 3.125 1.296875q1.296875 1.296875 1.296875 3.125l0 6.96875l-14.65625 0l0 1.859375q0 0.890625 0.109375 1.015625q0.109375 0.109375 1.0 0.109375l13.546875 0l0 4.1875l-14.4375 0zm-0.21875 -10.9375l10.453125 0l0 -2.3125q0 -0.890625 -0.109375 -1.0q-0.109375 -0.125 -1.0 -0.125l-8.234375 0q-0.890625 0 -1.0 0.125q-0.109375 0.109375 -0.109375 1.0l0 2.3125zm17.780151 10.9375l0 -14.140625q0 -1.828125 1.296875 -3.125q1.296875 -1.296875 3.125 -1.296875l10.3125 0l0 4.1875l-9.421875 0q-0.890625 0 -1.0 0.125q-0.109375 0.109375 -0.109375 1.0l0 13.25l-4.203125 0zm26.730469 -7.359375l0 -4.1875l13.078125 0l0 4.1875l-13.078125 0zm16.544037 0l0 -4.1875l13.078125 0l0 4.1875l-13.078125 0zm34.49231 7.359375l0 -18.78125l-9.40625 0l0 -4.265625l23.046875 0l0 4.265625l-9.390625 0l0 18.78125l-4.25 0zm15.975555 0l0 -24.640625l4.1875 0l0 6.078125l10.234375 0q1.796875 0 3.109375 1.296875q1.3125 1.296875 1.3125 3.125l0 14.140625l-4.1875 0l0 -13.25q0 -0.890625 -0.125 -1.0q-0.109375 -0.125 -1.0 -0.125l-8.21875 0q-0.90625 0 -1.015625 0.125q-0.109375 0.109375 -0.109375 1.0l0 13.25l-4.1875 0zm25.656555 0q-1.828125 0 -3.125 -1.296875q-1.296875 -1.296875 -1.296875 -3.125l0 -9.71875q0 -1.828125 1.296875 -3.125q1.296875 -1.296875 3.125 -1.296875l10.015625 0q1.828125 0 3.125 1.296875q1.296875 1.296875 1.296875 3.125l0 6.96875l-14.65625 0l0 1.859375q0 0.890625 0.109375 1.015625q0.109375 0.109375 1.0 0.109375l13.546875 0l0 4.1875l-14.4375 0zm-0.21875 -10.9375l10.453125 0l0 -2.3125q0 -0.890625 -0.109375 -1.0q-0.109375 -0.125 -1.0 -0.125l-8.234375 0q-0.890625 0 -1.0 0.125q-0.109375 0.109375 -0.109375 1.0l0 2.3125zm27.936066 10.9375l0 -23.046875l4.21875 0l0 9.390625l15.109375 0l0 -9.390625l4.21875 0l0 23.046875l-4.21875 0l0 -9.375l-15.109375 0l0 9.375l-4.21875 0zm31.482056 0q-1.828125 0 -3.125 -1.296875q-1.296875 -1.296875 -1.296875 -3.125l0 -6.96875l14.65625 0l0 -1.859375q0 -0.890625 -0.109375 -1.0q-0.109375 -0.125 -1.0 -0.125l-13.546875 0l0 -4.1875l14.4375 0q1.828125 0 3.125 1.296875q1.296875 1.296875 1.296875 3.125l0 14.140625l-14.4375 0zm0.890625 -4.1875l9.34375 0l0 -3.421875l-10.453125 0l0 2.296875q0 0.890625 0.109375 1.015625q0.109375 0.109375 1.0 0.109375zm16.255524 4.1875l0 -14.140625q0 -1.828125 1.296875 -3.125q1.296875 -1.296875 3.125 -1.296875l10.3125 0l0 4.1875l-9.421875 0q-0.890625 0 -1.0 0.125q-0.109375 0.109375 -0.109375 1.0l0 13.25l-4.203125 0zm20.876007 0q-1.828125 0 -3.1249695 -1.296875q-1.296875 -1.296875 -1.296875 -3.125l0 -9.71875q0 -1.828125 1.296875 -3.125q1.2968445 -1.296875 3.1249695 -1.296875l10.265625 0l0 -6.078125l4.1875 0l0 24.640625l-14.453125 0zm0.921875 -4.1875l8.21875 0q0.90625 0 1.015625 -0.109375q0.109375 -0.125 0.109375 -1.015625l0 -7.9375q0 -0.890625 -0.109375 -1.0q-0.109375 -0.125 -1.015625 -0.125l-8.21875 0q-0.890625 0 -1.015625 0.125q-0.109375 0.109375 -0.109375 1.0l0 7.9375q0 0.890625 0.109375 1.015625q0.125 0.109375 1.015625 0.109375zm23.463806 4.1875l-7.296875 -18.5625l4.4375 0l4.515625 10.953125l4.734375 -10.953125l4.359375 0l5.046875 11.015625l4.203125 -11.015625l4.4375 0l-6.96875 18.5625l-3.265625 0l-5.59375 -12.390625l-5.34375 12.390625l-3.265625 0zm30.872314 0q-1.828125 0 -3.125 -1.296875q-1.296875 -1.296875 -1.296875 -3.125l0 -6.96875l14.65625 0l0 -1.859375q0 -0.890625 -0.109375 -1.0q-0.109375 -0.125 -1.0 -0.125l-13.546875 0l0 -4.1875l14.4375 0q1.828125 0 3.125 1.296875q1.296875 1.296875 1.296875 3.125l0 14.140625l-14.4375 0zm0.890625 -4.1875l9.34375 0l0 -3.421875l-10.453125 0l0 2.296875q0 0.890625 0.109375 1.015625q0.109375 0.109375 1.0 0.109375zm16.255554 4.1875l0 -14.140625q0 -1.828125 1.296875 -3.125q1.296875 -1.296875 3.125 -1.296875l10.3125 0l0 4.1875l-9.421875 0q-0.890625 0 -1.0 0.125q-0.109375 0.109375 -0.109375 1.0l0 13.25l-4.203125 0zm21.318665 0q-1.828125 0 -3.125 -1.296875q-1.296875 -1.296875 -1.296875 -3.125l0 -9.71875q0 -1.828125 1.296875 -3.125q1.296875 -1.296875 3.125 -1.296875l10.015625 0q1.828125 0 3.125 1.296875q1.296875 1.296875 1.296875 3.125l0 6.96875l-14.65625 0l0 1.859375q0 0.890625 0.109375 1.015625q0.109375 0.109375 1.0 0.109375l13.546875 0l0 4.1875l-14.4375 0zm-0.21875 -10.9375l10.453125 0l0 -2.3125q0 -0.890625 -0.109375 -1.0q-0.109375 -0.125 -1.0 -0.125l-8.234375 0q-0.890625 0 -1.0 0.125q-0.109375 0.109375 -0.109375 1.0l0 2.3125zm27.998535 3.578125l0 -4.1875l13.078125 0l0 4.1875l-13.078125 0zm16.544067 0l0 -4.1875l13.078125 0l0 4.1875l-13.078125 0zm34.49231 7.359375l0 -18.78125l-9.40625 0l0 -4.265625l23.046875 0l0 4.265625l-9.390625 0l0 18.78125l-4.25 0zm15.975586 0l0 -24.640625l4.1875 0l0 6.078125l10.234375 0q1.796875 0 3.109375 1.296875q1.3125 1.296875 1.3125 3.125l0 14.140625l-4.1875 0l0 -13.25q0 -0.890625 -0.125 -1.0q-0.109375 -0.125 -1.0 -0.125l-8.21875 0q-0.90625 0 -1.015625 0.125q-0.109375 0.109375 -0.109375 1.0l0 13.25l-4.1875 0zm25.656555 0q-1.828125 0 -3.125 -1.296875q-1.296875 -1.296875 -1.296875 -3.125l0 -9.71875q0 -1.828125 1.296875 -3.125q1.296875 -1.296875 3.125 -1.296875l10.015625 0q1.828125 0 3.125 1.296875q1.296875 1.296875 1.296875 3.125l0 6.96875l-14.65625 0l0 1.859375q0 0.890625 0.109375 1.015625q0.109375 0.109375 1.0 0.109375l13.546875 0l0 4.1875l-14.4375 0zm-0.21875 -10.9375l10.453125 0l0 -2.3125q0 -0.890625 -0.109375 -1.0q-0.109375 -0.125 -1.0 -0.125l-8.234375 0q-0.890625 0 -1.0 0.125q-0.109375 0.109375 -0.109375 1.0l0 2.3125zm27.904846 10.9375l0 -23.046875l4.640625 0l8.34375 9.953125l8.328125 -9.953125l4.671875 0l0 23.046875l-4.265625 0l0 -16.890625l-8.734375 10.390625l-8.765625 -10.359375l0 16.859375l-4.21875 0zm33.753296 0q-1.828125 0 -3.125 -1.296875q-1.296875 -1.296875 -1.296875 -3.125l0 -6.96875l14.65625 0l0 -1.859375q0 -0.890625 -0.109375 -1.0q-0.109375 -0.125 -1.0 -0.125l-13.546875 0l0 -4.1875l14.4375 0q1.828125 0 3.125 1.296875q1.296875 1.296875 1.296875 3.125l0 14.140625l-14.4375 0zm0.890625 -4.1875l9.34375 0l0 -3.421875l-10.453125 0l0 2.296875q0 0.890625 0.109375 1.015625q0.109375 0.109375 1.0 0.109375zm20.42218 4.1875q-1.828125 0 -3.125 -1.296875q-1.296875 -1.296875 -1.296875 -3.125l0 -9.71875q0 -1.828125 1.296875 -3.125q1.296875 -1.296875 3.125 -1.296875l14.40625 0l0 4.1875l-13.515625 0q-0.890625 0 -1.0 0.125q-0.109375 0.109375 -0.109375 1.0l0 7.9375q0 0.890625 0.109375 1.015625q0.109375 0.109375 1.0 0.109375l13.546875 0l0 4.1875l-14.4375 0zm17.127563 0l0 -24.640625l4.1875 0l0 6.078125l10.234375 0q1.796875 0 3.109375 1.296875q1.3125 1.296875 1.3125 3.125l0 14.140625l-4.1875 0l0 -13.25q0 -0.890625 -0.125 -1.0q-0.109375 -0.125 -1.0 -0.125l-8.21875 0q-0.90625 0 -1.015625 0.125q-0.109375 0.109375 -0.109375 1.0l0 13.25l-4.1875 0zm21.361877 0l0 -18.5625l4.203125 0l0 18.5625l-4.203125 0zm0 -20.421875l0 -4.21875l4.203125 0l0 4.21875l-4.203125 0zm7.918152 20.421875l0 -18.5625l14.421875 0q1.828125 0 3.125 1.296875q1.296875 1.296875 1.296875 3.125l0 14.140625l-4.1875 0l0 -13.25q0 -0.890625 -0.125 -1.0q-0.109375 -0.125 -1.0 -0.125l-8.21875 0q-0.90625 0 -1.015625 0.125q-0.109375 0.109375 -0.109375 1.0l0 13.25l-4.1875 0zm25.912537 0q-1.828125 0 -3.125 -1.296875q-1.296875 -1.296875 -1.296875 -3.125l0 -9.71875q0 -1.828125 1.296875 -3.125q1.296875 -1.296875 3.125 -1.296875l10.015625 0q1.828125 0 3.125 1.296875q1.296875 1.296875 1.296875 3.125l0 6.96875l-14.65625 0l0 1.859375q0 0.890625 0.109375 1.015625q0.109375 0.109375 1.0 0.109375l13.546875 0l0 4.1875l-14.4375 0zm-0.21875 -10.9375l10.453125 0l0 -2.3125q0 -0.890625 -0.109375 -1.0q-0.109375 -0.125 -1.0 -0.125l-8.234375 0q-0.890625 0 -1.0 0.125q-0.109375 0.109375 -0.109375 1.0l0 2.3125z" fill-rule="nonzero"/><path fill="#34a5da" d="m487.1181 11.653864l225.25983 0l0 153.19684l-225.25983 0z" fill-rule="evenodd"/><path stroke="#34a5da" stroke-width="4.0" stroke-linejoin="round" stroke-linecap="butt" d="m487.1181 11.653864l225.25983 0l0 153.19684l-225.25983 0z" fill-rule="evenodd"/><path fill="#ffffff" d="m560.6488 80.97229l0 -23.046871l4.640625 0l8.34375 9.953121l8.328125 -9.953121l4.671875 0l0 23.046871l-4.265625 0l0 -16.890625l-8.734375 10.390625l-8.765625 -10.359375l0 16.859375l-4.21875 0zm33.753357 0q-1.828125 0 -3.125 -1.296875q-1.296875 -1.296875 -1.296875 -3.125l0 -6.96875l14.65625 0l0 -1.859375q0 -0.890625 -0.109375 -1.0q-0.109375 -0.125 -1.0 -0.125l-13.546875 0l0 -4.187496l14.4375 0q1.828125 0 3.125 1.296875q1.296875 1.2968712 1.296875 3.1249962l0 14.140625l-14.4375 0zm0.890625 -4.1875l9.34375 0l0 -3.421875l-10.453125 0l0 2.296875q0 0.890625 0.109375 1.015625q0.109375 0.109375 1.0 0.109375zm16.895508 4.1875l0 -18.562496l4.203125 0l0 18.562496l-4.203125 0zm0 -20.421871l0 -4.21875l4.203125 0l0 4.21875l-4.203125 0zm7.918152 20.421871l0 -18.562496l14.421875 0q1.828125 0 3.125 1.296875q1.296875 1.2968712 1.296875 3.1249962l0 14.140625l-4.1875 0l0 -13.25q0 -0.890625 -0.125 -1.0q-0.109375 -0.125 -1.0 -0.125l-8.21875 0q-0.90625 0 -1.015625 0.125q-0.109375 0.109375 -0.109375 1.0l0 13.25l-4.1875 0z" fill-rule="nonzero"/><path fill="#ffffff" d="m529.94476 118.97229l0 -23.046875l4.640625 0l8.34375 9.953125l8.328125 -9.953125l4.671875 0l0 23.046875l-4.265625 0l0 -16.890625l-8.734375 10.390625l-8.765625 -10.359375l0 16.859375l-4.21875 0zm33.946045 0q-1.828125 0 -3.125 -1.296875q-1.296875 -1.296875 -1.296875 -3.125l0 -9.71875q0 -1.828125 1.296875 -3.125q1.296875 -1.296875 3.125 -1.296875l10.015625 0q1.828125 0 3.125 1.296875q1.296875 1.296875 1.296875 3.125l0 6.96875l-14.65625 0l0 1.859375q0 0.890625 0.109375 1.015625q0.109375 0.109375 1.0 0.109375l13.546875 0l0 4.1875l-14.4375 0zm-0.21875 -10.9375l10.453125 0l0 -2.3125q0 -0.890625 -0.109375 -1.0q-0.109375 -0.125 -1.0 -0.125l-8.234375 0q-0.890625 0 -1.0 0.125q-0.109375 0.109375 -0.109375 1.0l0 2.3125zm18.050293 10.9375l0 -18.5625l23.0 0q1.828125 0 3.125 1.296875q1.296875 1.296875 1.296875 3.125l0 14.140625l-4.171875 0l0 -13.25q0 -0.890625 -0.125 -1.0q-0.125 -0.125 -0.984375 -0.125l-5.1875 0q-0.890625 0 -1.015625 0.125q-0.109375 0.109375 -0.109375 1.0l0 13.25l-4.21875 0l0 -13.25q0 -0.890625 -0.109375 -1.0q-0.109375 -0.125 -1.015625 -0.125l-5.171875 0q-0.90625 0 -1.015625 0.125q-0.109375 0.109375 -0.109375 1.0l0 13.25l-4.1875 0zm35.60858 0q-1.828125 0 -3.125 -1.296875q-1.296875 -1.296875 -1.296875 -3.125l0 -9.71875q0 -1.828125 1.296875 -3.125q1.296875 -1.296875 3.125 -1.296875l10.015625 0q1.828125 0 3.125 1.296875q1.296875 1.296875 1.296875 3.125l0 9.71875q0 1.828125 -1.296875 3.125q-1.296875 1.296875 -3.125 1.296875l-10.015625 0zm0.890625 -4.1875l8.234375 0q0.890625 0 1.0 -0.109375q0.109375 -0.125 0.109375 -1.015625l0 -7.9375q0 -0.890625 -0.109375 -1.0q-0.109375 -0.125 -1.0 -0.125l-8.234375 0q-0.890625 0 -1.0 0.125q-0.109375 0.109375 -0.109375 1.0l0 7.9375q0 0.890625 0.109375 1.015625q0.109375 0.109375 1.0 0.109375zm16.158813 4.1875l0 -14.140625q0 -1.828125 1.296875 -3.125q1.296875 -1.296875 3.125 -1.296875l10.3125 0l0 4.1875l-9.421875 0q-0.890625 0 -1.0 0.125q-0.109375 0.109375 -0.109375 1.0l0 13.25l-4.203125 0zm19.500916 6.875l0 -4.21875l10.453125 0q0.875 0 0.984375 -0.109375q0.109375 -0.109375 0.109375 -1.015625l0 -1.53125l-10.234375 0q-1.828125 0 -3.125 -1.296875q-1.296875 -1.296875 -1.296875 -3.125l0 -14.078125l4.1875 0l0 13.1875q0 0.890625 0.109375 1.015625q0.125 0.109375 1.015625 0.109375l8.25 0q0.875 0 0.984375 -0.109375q0.109375 -0.125 0.109375 -1.015625l0 -13.1875l4.1875 0l0 20.96875q0 1.8125 -1.28125 3.109375q-1.28125 1.296875 -3.09375 1.296875l-11.359375 0z" fill-rule="nonzero"/><path fill="#34a5da" d="m15.603932 37.186832l0 0c0 -14.101664 11.431657 -25.53332 25.533321 -25.53332l408.11444 0c6.7718506 0 13.266357 2.6901102 18.05478 7.4785366c4.788452 4.7884254 7.478546 11.282925 7.478546 18.054783l0 102.13022c0 14.101654 -11.431641 25.53331 -25.533325 25.53331l-408.11444 0c-14.101664 0 -25.533321 -11.431656 -25.533321 -25.53331z" fill-rule="evenodd"/><path stroke="#34a5da" stroke-width="4.0" stroke-linejoin="round" stroke-linecap="butt" d="m15.603932 37.186832l0 0c0 -14.101664 11.431657 -25.53332 25.533321 -25.53332l408.11444 0c6.7718506 0 13.266357 2.6901102 18.05478 7.4785366c4.788452 4.7884254 7.478546 11.282925 7.478546 18.054783l0 102.13022c0 14.101654 -11.431641 25.53331 -25.533325 25.53331l-408.11444 0c-14.101664 0 -25.533321 -11.431656 -25.533321 -25.53331z" fill-rule="evenodd"/><path fill="#ffffff" d="m43.32732 35.13254l225.26299 0l0 54.569096l-112.6315 13.642273l-112.631485 -13.642273z" fill-rule="evenodd"/><path stroke="#000000" stroke-width="4.0" stroke-linejoin="round" stroke-linecap="butt" d="m43.32732 35.13254l225.26299 0l0 54.569096l-112.6315 13.642273l-112.631485 -13.642273z" fill-rule="evenodd"/><path fill="#000000" d="m94.40394 51.537716l2.03125 0.515625q-0.640625 2.484375 -2.296875 3.796875q-1.640625 1.3125 -4.03125 1.3125q-2.46875 0 -4.015625 -1.0q-1.546875 -1.015625 -2.359375 -2.921875q-0.796875 -1.90625 -0.796875 -4.09375q0 -2.390625 0.90625 -4.15625q0.921875 -1.78125 2.59375 -2.703125q1.6875 -0.921875 3.703125 -0.921875q2.296875 0 3.859375 1.171875q1.5625 1.171875 2.171875 3.28125l-1.984375 0.46875q-0.53125 -1.671875 -1.546875 -2.421875q-1.0 -0.765625 -2.53125 -0.765625q-1.765625 0 -2.953125 0.84375q-1.171875 0.84375 -1.65625 2.265625q-0.484375 1.421875 -0.484375 2.921875q0 1.953125 0.5625 3.40625q0.578125 1.453125 1.765625 2.171875q1.203125 0.71875 2.609375 0.71875q1.6875 0 2.859375 -0.96875q1.1875 -0.984375 1.59375 -2.921875zm3.5743713 -0.171875q0 -3.078125 1.71875 -4.546875q1.421875 -1.234375 3.46875 -1.234375q2.28125 0 3.71875 1.5q1.453125 1.484375 1.453125 4.125q0 2.140625 -0.640625 3.359375q-0.625 1.21875 -1.859375 1.90625q-1.21875 0.671875 -2.671875 0.671875q-2.3125 0 -3.75 -1.484375q-1.4375 -1.5 -1.4375 -4.296875zm1.9375 0q0 2.125 0.921875 3.1875q0.921875 1.046875 2.328125 1.046875q1.40625 0 2.328125 -1.0625q0.921875 -1.0625 0.921875 -3.234375q0 -2.046875 -0.9375 -3.109375q-0.921875 -1.0625 -2.3125 -1.0625q-1.40625 0 -2.328125 1.0625q-0.921875 1.046875 -0.921875 3.171875zm10.627319 5.53125l0 -11.0625l1.671875 0l0 1.546875q0.53125 -0.8125 1.390625 -1.296875q0.859375 -0.5 1.96875 -0.5q1.234375 0 2.015625 0.515625q0.78125 0.5 1.109375 1.421875q1.3125 -1.9375 3.40625 -1.9375q1.65625 0 2.53125 0.921875q0.890625 0.90625 0.890625 2.796875l0 7.59375l-1.859375 0l0 -6.96875q0 -1.125 -0.1875 -1.609375q-0.1875 -0.5 -0.671875 -0.796875q-0.46875 -0.3125 -1.109375 -0.3125q-1.171875 0 -1.9375 0.78125q-0.765625 0.765625 -0.765625 2.484375l0 6.421875l-1.875 0l0 -7.1875q0 -1.25 -0.46875 -1.875q-0.453125 -0.625 -1.5 -0.625q-0.78125 0 -1.453125 0.421875q-0.671875 0.40625 -0.984375 1.21875q-0.296875 0.796875 -0.296875 2.3125l0 5.734375l-1.875 0zm17.766502 0l0 -11.0625l1.671875 0l0 1.546875q0.53125 -0.8125 1.390625 -1.296875q0.859375 -0.5 1.96875 -0.5q1.234375 0 2.015625 0.515625q0.78125 0.5 1.109375 1.421875q1.3125 -1.9375 3.40625 -1.9375q1.65625 0 2.53125 0.921875q0.890625 0.90625 0.890625 2.796875l0 7.59375l-1.859375 0l0 -6.96875q0 -1.125 -0.1875 -1.609375q-0.1875 -0.5 -0.671875 -0.796875q-0.46875 -0.3125 -1.109375 -0.3125q-1.171875 0 -1.9375 0.78125q-0.765625 0.765625 -0.765625 2.484375l0 6.421875l-1.875 0l0 -7.1875q0 -1.25 -0.46875 -1.875q-0.453125 -0.625 -1.5 -0.625q-0.78125 0 -1.453125 0.421875q-0.671875 0.40625 -0.984375 1.21875q-0.296875 0.796875 -0.296875 2.3125l0 5.734375l-1.875 0zm25.016495 0l0 -1.625q-1.296875 1.875 -3.515625 1.875q-0.96875 0 -1.828125 -0.375q-0.84375 -0.375 -1.265625 -0.9375q-0.40625 -0.578125 -0.5625 -1.390625q-0.125 -0.5625 -0.125 -1.75l0 -6.859375l1.875 0l0 6.140625q0 1.46875 0.125 1.96875q0.171875 0.75 0.734375 1.171875q0.578125 0.421875 1.421875 0.421875q0.84375 0 1.578125 -0.4375q0.75 -0.4375 1.046875 -1.171875q0.3125 -0.75 0.3125 -2.171875l0 -5.921875l1.875 0l0 11.0625l-1.671875 0zm4.6116943 0l0 -11.0625l1.6875 0l0 1.578125q1.21875 -1.828125 3.515625 -1.828125q1.0 0 1.84375 0.359375q0.84375 0.359375 1.25 0.953125q0.421875 0.578125 0.59375 1.375q0.09375 0.515625 0.09375 1.828125l0 6.796875l-1.875 0l0 -6.734375q0 -1.140625 -0.21875 -1.703125q-0.21875 -0.578125 -0.78125 -0.90625q-0.546875 -0.34375 -1.296875 -0.34375q-1.203125 0 -2.078125 0.765625q-0.859375 0.75 -0.859375 2.875l0 6.046875l-1.875 0zm11.877319 -13.109375l0 -2.15625l1.875 0l0 2.15625l-1.875 0zm0 13.109375l0 -11.0625l1.875 0l0 11.0625l-1.875 0zm11.941559 -4.046875l1.84375 0.234375q-0.296875 1.90625 -1.546875 2.984375q-1.25 1.078125 -3.0625 1.078125q-2.265625 0 -3.65625 -1.484375q-1.375 -1.484375 -1.375 -4.25q0 -1.796875 0.59375 -3.140625q0.59375 -1.34375 1.8125 -2.015625q1.21875 -0.671875 2.640625 -0.671875q1.796875 0 2.9375 0.921875q1.15625 0.90625 1.484375 2.578125l-1.828125 0.28125q-0.265625 -1.109375 -0.921875 -1.671875q-0.65625 -0.5625 -1.59375 -0.5625q-1.421875 0 -2.3125 1.015625q-0.875 1.015625 -0.875 3.203125q0 2.234375 0.84375 3.25q0.859375 1.0 2.234375 1.0q1.109375 0 1.84375 -0.671875q0.734375 -0.671875 0.9375 -2.078125zm10.6640625 2.6875q-1.046875 0.875 -2.015625 1.25q-0.953125 0.359375 -2.0625 0.359375q-1.8125 0 -2.796875 -0.890625q-0.984375 -0.890625 -0.984375 -2.28125q0 -0.8125 0.375 -1.484375q0.375 -0.671875 0.96875 -1.078125q0.59375 -0.40625 1.34375 -0.609375q0.5625 -0.140625 1.671875 -0.28125q2.265625 -0.265625 3.34375 -0.640625q0.015625 -0.390625 0.015625 -0.5q0 -1.140625 -0.53125 -1.609375q-0.71875 -0.640625 -2.140625 -0.640625q-1.328125 0 -1.953125 0.46875q-0.625 0.46875 -0.9375 1.640625l-1.828125 -0.25q0.25 -1.171875 0.8125 -1.890625q0.578125 -0.734375 1.65625 -1.125q1.09375 -0.390625 2.515625 -0.390625q1.421875 0 2.296875 0.34375q0.890625 0.328125 1.3125 0.828125q0.421875 0.5 0.578125 1.28125q0.09375 0.46875 0.09375 1.71875l0 2.5q0 2.625 0.125 3.3125q0.125 0.6875 0.46875 1.328125l-1.953125 0q-0.296875 -0.578125 -0.375 -1.359375zm-0.15625 -4.1875q-1.015625 0.40625 -3.0625 0.703125q-1.15625 0.171875 -1.640625 0.375q-0.46875 0.203125 -0.734375 0.609375q-0.265625 0.40625 -0.265625 0.890625q0 0.75 0.5625 1.25q0.578125 0.5 1.671875 0.5q1.078125 0 1.921875 -0.46875q0.84375 -0.484375 1.25 -1.296875q0.296875 -0.640625 0.296875 -1.875l0 -0.6875zm8.892944 3.875l0.265625 1.65625q-0.78125 0.15625 -1.40625 0.15625q-1.03125 0 -1.59375 -0.3125q-0.5625 -0.328125 -0.796875 -0.84375q-0.21875 -0.53125 -0.21875 -2.21875l0 -6.375l-1.375 0l0 -1.453125l1.375 0l0 -2.734375l1.859375 -1.125l0 3.859375l1.890625 0l0 1.453125l-1.890625 0l0 6.46875q0 0.8125 0.09375 1.046875q0.109375 0.21875 0.328125 0.359375q0.234375 0.125 0.640625 0.125q0.3125 0 0.828125 -0.0625zm1.8475037 -11.4375l0 -2.15625l1.875 0l0 2.15625l-1.875 0zm0 13.109375l0 -11.0625l1.875 0l0 11.0625l-1.875 0zm4.019684 -5.53125q0 -3.078125 1.71875 -4.546875q1.421875 -1.234375 3.46875 -1.234375q2.28125 0 3.71875 1.5q1.453125 1.484375 1.453125 4.125q0 2.140625 -0.640625 3.359375q-0.625 1.21875 -1.859375 1.90625q-1.21875 0.671875 -2.671875 0.671875q-2.3125 0 -3.75 -1.484375q-1.4375 -1.5 -1.4375 -4.296875zm1.9375 0q0 2.125 0.921875 3.1875q0.921875 1.046875 2.328125 1.046875q1.40625 0 2.328125 -1.0625q0.921875 -1.0625 0.921875 -3.234375q0 -2.046875 -0.9375 -3.109375q-0.921875 -1.0625 -2.3125 -1.0625q-1.40625 0 -2.328125 1.0625q-0.921875 1.046875 -0.921875 3.171875zm10.627319 5.53125l0 -11.0625l1.6875 0l0 1.578125q1.21875 -1.828125 3.515625 -1.828125q1.0 0 1.84375 0.359375q0.84375 0.359375 1.25 0.953125q0.421875 0.578125 0.59375 1.375q0.09375 0.515625 0.09375 1.828125l0 6.796875l-1.875 0l0 -6.734375q0 -1.140625 -0.21875 -1.703125q-0.21875 -0.578125 -0.78125 -0.90625q-0.546875 -0.34375 -1.296875 -0.34375q-1.203125 0 -2.078125 0.765625q-0.859375 0.75 -0.859375 2.875l0 6.046875l-1.875 0z" fill-rule="nonzero"/><path fill="#000000" d="m119.67117 82.897095l0 -15.265625l5.265625 0q1.78125 0 2.71875 0.21875q1.3125 0.296875 2.234375 1.09375q1.203125 1.015625 1.796875 2.609375q0.609375 1.578125 0.609375 3.625q0 1.734375 -0.40625 3.078125q-0.40625 1.34375 -1.046875 2.234375q-0.625 0.875 -1.390625 1.390625q-0.75 0.5 -1.8125 0.765625q-1.0625 0.25 -2.453125 0.25l-5.515625 0zm2.03125 -1.796875l3.25 0q1.515625 0 2.375 -0.28125q0.859375 -0.28125 1.375 -0.796875q0.703125 -0.71875 1.109375 -1.921875q0.40625 -1.21875 0.40625 -2.953125q0 -2.390625 -0.796875 -3.671875q-0.78125 -1.296875 -1.90625 -1.734375q-0.8125 -0.3125 -2.609375 -0.3125l-3.203125 0l0 11.671875zm20.714996 -1.765625l1.921875 0.234375q-0.453125 1.703125 -1.6875 2.640625q-1.234375 0.9375 -3.171875 0.9375q-2.421875 0 -3.84375 -1.484375q-1.421875 -1.5 -1.421875 -4.203125q0 -2.796875 1.4375 -4.328125q1.4375 -1.546875 3.734375 -1.546875q2.21875 0 3.609375 1.515625q1.40625 1.5 1.40625 4.25q0 0.15625 0 0.5l-8.25 0q0.109375 1.8125 1.03125 2.78125q0.921875 0.96875 2.3125 0.96875q1.03125 0 1.75 -0.53125q0.734375 -0.546875 1.171875 -1.734375zm-6.15625 -3.03125l6.171875 0q-0.125 -1.390625 -0.703125 -2.09375q-0.90625 -1.078125 -2.328125 -1.078125q-1.296875 0 -2.171875 0.859375q-0.875 0.859375 -0.96875 2.3125zm13.517944 6.59375l-4.21875 -11.0625l1.984375 0l2.375 6.625q0.390625 1.078125 0.703125 2.234375q0.25 -0.875 0.703125 -2.109375l2.453125 -6.75l1.9375 0l-4.1875 11.0625l-1.75 0zm7.6015625 -13.109375l0 -2.15625l1.875 0l0 2.15625l-1.875 0zm0 13.109375l0 -11.0625l1.875 0l0 11.0625l-1.875 0zm11.941559 -4.046875l1.84375 0.234375q-0.296875 1.90625 -1.546875 2.984375q-1.25 1.078125 -3.0625 1.078125q-2.265625 0 -3.65625 -1.484375q-1.375 -1.484375 -1.375 -4.25q0 -1.796875 0.59375 -3.140625q0.59375 -1.34375 1.8125 -2.015625q1.21875 -0.671875 2.640625 -0.671875q1.796875 0 2.9375 0.921875q1.15625 0.90625 1.484375 2.578125l-1.828125 0.28125q-0.265625 -1.109375 -0.921875 -1.671875q-0.65625 -0.5625 -1.59375 -0.5625q-1.421875 0 -2.3125 1.015625q-0.875 1.015625 -0.875 3.203125q0 2.234375 0.84375 3.25q0.859375 1.0 2.234375 1.0q1.109375 0 1.84375 -0.671875q0.734375 -0.671875 0.9375 -2.078125zm11.0234375 0.484375l1.921875 0.234375q-0.453125 1.703125 -1.6875 2.640625q-1.234375 0.9375 -3.171875 0.9375q-2.421875 0 -3.84375 -1.484375q-1.421875 -1.5 -1.421875 -4.203125q0 -2.796875 1.4375 -4.328125q1.4375 -1.546875 3.734375 -1.546875q2.21875 0 3.609375 1.515625q1.40625 1.5 1.40625 4.25q0 0.15625 0 0.5l-8.25 0q0.109375 1.8125 1.03125 2.78125q0.921875 0.96875 2.3125 0.96875q1.03125 0 1.75 -0.53125q0.734375 -0.546875 1.171875 -1.734375zm-6.15625 -3.03125l6.171875 0q-0.125 -1.390625 -0.703125 -2.09375q-0.90625 -1.078125 -2.328125 -1.078125q-1.296875 0 -2.171875 0.859375q-0.875 0.859375 -0.96875 2.3125zm9.689819 3.296875l1.859375 -0.296875q0.15625 1.109375 0.859375 1.703125q0.71875 0.59375 2.0 0.59375q1.296875 0 1.921875 -0.515625q0.625 -0.53125 0.625 -1.234375q0 -0.640625 -0.5625 -1.0q-0.375 -0.25 -1.90625 -0.640625q-2.0625 -0.515625 -2.859375 -0.890625q-0.796875 -0.390625 -1.21875 -1.0625q-0.40625 -0.671875 -0.40625 -1.484375q0 -0.734375 0.328125 -1.359375q0.34375 -0.640625 0.9375 -1.0625q0.4375 -0.3125 1.1875 -0.53125q0.75 -0.234375 1.625 -0.234375q1.296875 0 2.28125 0.375q0.984375 0.375 1.453125 1.015625q0.46875 0.640625 0.640625 1.71875l-1.828125 0.25q-0.125 -0.859375 -0.734375 -1.328125q-0.59375 -0.484375 -1.6875 -0.484375q-1.28125 0 -1.84375 0.421875q-0.546875 0.421875 -0.546875 1.0q0 0.359375 0.234375 0.65625q0.21875 0.296875 0.71875 0.5q0.28125 0.109375 1.65625 0.484375q1.984375 0.53125 2.765625 0.875q0.796875 0.328125 1.234375 0.984375q0.453125 0.640625 0.453125 1.59375q0 0.9375 -0.546875 1.765625q-0.546875 0.828125 -1.578125 1.28125q-1.03125 0.453125 -2.328125 0.453125q-2.15625 0 -3.296875 -0.890625q-1.125 -0.90625 -1.4375 -2.65625z" fill-rule="nonzero"/><path fill="#ffffff" d="m287.64908 36.284256l0 0c0 5.2918854 35.68634 9.581802 79.70764 9.581802c44.02133 0 79.70767 -4.289917 79.70767 -9.581802l0 57.490807c0 5.2918854 -35.68634 9.581802 -79.70767 9.581802c-44.0213 0 -79.70764 -4.289917 -79.70764 -9.581802z" fill-rule="evenodd"/><path fill="#ffffff" d="m287.64908 36.284256l0 0c0 -5.2918816 35.68634 -9.581799 79.70764 -9.581799c44.02133 0 79.70767 4.289917 79.70767 9.581799l0 0c0 5.2918854 -35.68634 9.581802 -79.70767 9.581802c-44.0213 0 -79.70764 -4.289917 -79.70764 -9.581802z" fill-rule="evenodd"/><path fill="#000000" fill-opacity="0.0" d="m447.0644 36.284256l0 0c0 5.2918854 -35.68634 9.581802 -79.70767 9.581802c-44.0213 0 -79.70764 -4.289917 -79.70764 -9.581802l0 0c0 -5.2918816 35.68634 -9.581799 79.70764 -9.581799c44.02133 0 79.70767 4.289917 79.70767 9.581799l0 57.490807c0 5.2918854 -35.68634 9.581802 -79.70767 9.581802c-44.0213 0 -79.70764 -4.289917 -79.70764 -9.581802l0 -57.490807" fill-rule="evenodd"/><path stroke="#000000" stroke-width="4.0" stroke-linejoin="round" stroke-linecap="butt" d="m447.0644 36.284256l0 0c0 5.2918854 -35.68634 9.581802 -79.70767 9.581802c-44.0213 0 -79.70764 -4.289917 -79.70764 -9.581802l0 0c0 -5.2918816 35.68634 -9.581799 79.70764 -9.581799c44.02133 0 79.70767 4.289917 79.70767 9.581799l0 57.490807c0 5.2918854 -35.68634 9.581802 -79.70767 9.581802c-44.0213 0 -79.70764 -4.289917 -79.70764 -9.581802l0 -57.490807" fill-rule="evenodd"/><path fill="#000000" d="m330.9596 59.39431l1.90625 -0.171875q0.140625 1.15625 0.625 1.890625q0.5 0.734375 1.546875 1.1875q1.046875 0.453125 2.34375 0.453125q1.15625 0 2.03125 -0.34375q0.890625 -0.34375 1.3125 -0.9375q0.4375 -0.609375 0.4375 -1.3125q0 -0.71875 -0.421875 -1.25q-0.40625 -0.546875 -1.359375 -0.90625q-0.609375 -0.25 -2.71875 -0.75q-2.109375 -0.5 -2.953125 -0.953125q-1.09375 -0.578125 -1.625 -1.421875q-0.53125 -0.84375 -0.53125 -1.890625q0 -1.15625 0.65625 -2.15625q0.65625 -1.015625 1.90625 -1.53125q1.265625 -0.53125 2.8125 -0.53125q1.6875 0 2.984375 0.546875q1.296875 0.546875 1.984375 1.609375q0.703125 1.0625 0.765625 2.40625l-1.9375 0.15625q-0.15625 -1.453125 -1.0625 -2.1875q-0.890625 -0.75 -2.65625 -0.75q-1.828125 0 -2.671875 0.671875q-0.84375 0.671875 -0.84375 1.625q0 0.8125 0.59375 1.34375q0.59375 0.53125 3.046875 1.09375q2.46875 0.5625 3.390625 0.96875q1.328125 0.625 1.953125 1.5625q0.640625 0.9375 0.640625 2.171875q0 1.21875 -0.703125 2.296875q-0.6875 1.078125 -2.0 1.6875q-1.296875 0.59375 -2.9375 0.59375q-2.078125 0 -3.484375 -0.609375q-1.390625 -0.609375 -2.1875 -1.8125q-0.796875 -1.21875 -0.84375 -2.75zm18.772552 3.234375l0.265625 1.65625q-0.78125 0.15625 -1.40625 0.15625q-1.03125 0 -1.59375 -0.3125q-0.5625 -0.328125 -0.796875 -0.84375q-0.21875 -0.53125 -0.21875 -2.21875l0 -6.375l-1.375 0l0 -1.453125l1.375 0l0 -2.734375l1.859375 -1.125l0 3.859375l1.890625 0l0 1.453125l-1.890625 0l0 6.46875q0 0.8125 0.09375 1.046875q0.109375 0.21875 0.328125 0.359375q0.234375 0.125 0.640625 0.125q0.3125 0 0.828125 -0.0625zm1.1287842 -3.859375q0 -3.078125 1.71875 -4.546875q1.421875 -1.234375 3.46875 -1.234375q2.28125 0 3.71875 1.5q1.453125 1.484375 1.453125 4.125q0 2.140625 -0.640625 3.359375q-0.625 1.21875 -1.859375 1.90625q-1.21875 0.671875 -2.671875 0.671875q-2.3125 0 -3.75 -1.484375q-1.4375 -1.5 -1.4375 -4.296875zm1.9375 0q0 2.125 0.921875 3.1875q0.921875 1.046875 2.328125 1.046875q1.40625 0 2.328125 -1.0625q0.921875 -1.0625 0.921875 -3.234375q0 -2.046875 -0.9375 -3.109375q-0.921875 -1.0625 -2.3125 -1.0625q-1.40625 0 -2.328125 1.0625q-0.921875 1.046875 -0.921875 3.171875zm10.611694 5.53125l0 -11.0625l1.6875 0l0 1.671875q0.640625 -1.171875 1.1875 -1.546875q0.546875 -0.375 1.203125 -0.375q0.953125 0 1.921875 0.609375l-0.640625 1.734375q-0.6875 -0.40625 -1.375 -0.40625q-0.609375 0 -1.109375 0.375q-0.484375 0.359375 -0.6875 1.015625q-0.3125 1.0 -0.3125 2.1875l0 5.796875l-1.875 0zm14.336792 -1.359375q-1.046875 0.875 -2.015625 1.25q-0.953125 0.359375 -2.0625 0.359375q-1.8125 0 -2.796875 -0.890625q-0.984375 -0.890625 -0.984375 -2.28125q0 -0.8125 0.375 -1.484375q0.375 -0.671875 0.96875 -1.078125q0.59375 -0.40625 1.34375 -0.609375q0.5625 -0.140625 1.671875 -0.28125q2.265625 -0.265625 3.34375 -0.640625q0.015625 -0.390625 0.015625 -0.5q0 -1.140625 -0.53125 -1.609375q-0.71875 -0.640625 -2.140625 -0.640625q-1.328125 0 -1.953125 0.46875q-0.625 0.46875 -0.9375 1.640625l-1.828125 -0.25q0.25 -1.171875 0.8125 -1.890625q0.578125 -0.734375 1.65625 -1.125q1.09375 -0.390625 2.515625 -0.390625q1.421875 0 2.296875 0.34375q0.890625 0.328125 1.3125 0.828125q0.421875 0.5 0.578125 1.28125q0.09375 0.46875 0.09375 1.71875l0 2.5q0 2.625 0.125 3.3125q0.125 0.6875 0.46875 1.328125l-1.953125 0q-0.296875 -0.578125 -0.375 -1.359375zm-0.15625 -4.1875q-1.015625 0.40625 -3.0625 0.703125q-1.15625 0.171875 -1.640625 0.375q-0.46875 0.203125 -0.734375 0.609375q-0.265625 0.40625 -0.265625 0.890625q0 0.75 0.5625 1.25q0.578125 0.5 1.671875 0.5q1.078125 0 1.921875 -0.46875q0.84375 -0.484375 1.25 -1.296875q0.296875 -0.640625 0.296875 -1.875l0 -0.6875zm4.4554443 6.46875l1.828125 0.265625q0.109375 0.84375 0.625 1.234375q0.703125 0.515625 1.90625 0.515625q1.3125 0 2.015625 -0.53125q0.703125 -0.515625 0.953125 -1.453125q0.15625 -0.5625 0.140625 -2.40625q-1.234375 1.453125 -3.0625 1.453125q-2.28125 0 -3.53125 -1.640625q-1.25 -1.65625 -1.25 -3.953125q0 -1.578125 0.5625 -2.921875q0.578125 -1.34375 1.671875 -2.0625q1.09375 -0.734375 2.5625 -0.734375q1.953125 0 3.21875 1.578125l0 -1.328125l1.734375 0l0 9.5625q0 2.578125 -0.53125 3.65625q-0.515625 1.078125 -1.65625 1.703125q-1.140625 0.625 -2.8125 0.625q-1.984375 0 -3.203125 -0.890625q-1.21875 -0.890625 -1.171875 -2.671875zm1.546875 -6.65625q0 2.1875 0.859375 3.1875q0.875 1.0 2.171875 1.0q1.296875 0 2.171875 -1.0q0.875 -1.0 0.875 -3.125q0 -2.03125 -0.90625 -3.0625q-0.890625 -1.03125 -2.171875 -1.03125q-1.25 0 -2.125 1.015625q-0.875 1.015625 -0.875 3.015625zm18.236694 2.171875l1.921875 0.234375q-0.453125 1.703125 -1.6875 2.640625q-1.234375 0.9375 -3.171875 0.9375q-2.421875 0 -3.84375 -1.484375q-1.421875 -1.5 -1.421875 -4.203125q0 -2.796875 1.4375 -4.328125q1.4375 -1.546875 3.734375 -1.546875q2.21875 0 3.609375 1.515625q1.40625 1.5 1.40625 4.25q0 0.15625 0 0.5l-8.25 0q0.109375 1.8125 1.03125 2.78125q0.921875 0.96875 2.3125 0.96875q1.03125 0 1.75 -0.53125q0.734375 -0.546875 1.171875 -1.734375zm-6.15625 -3.03125l6.171875 0q-0.125 -1.390625 -0.703125 -2.09375q-0.90625 -1.078125 -2.328125 -1.078125q-1.296875 0 -2.171875 0.859375q-0.875 0.859375 -0.96875 2.3125z" fill-rule="nonzero"/><path fill="#000000" d="m331.0691 90.30056l0 -15.265625l5.265625 0q1.78125 0 2.71875 0.21875q1.3125 0.296875 2.234375 1.09375q1.203125 1.015625 1.796875 2.609375q0.609375 1.578125 0.609375 3.625q0 1.734375 -0.40625 3.078125q-0.40625 1.34375 -1.046875 2.234375q-0.625 0.875 -1.390625 1.390625q-0.75 0.5 -1.8125 0.765625q-1.0625 0.25 -2.453125 0.25l-5.515625 0zm2.03125 -1.796875l3.25 0q1.515625 0 2.375 -0.28125q0.859375 -0.28125 1.375 -0.796875q0.703125 -0.71875 1.109375 -1.921875q0.40625 -1.21875 0.40625 -2.953125q0 -2.390625 -0.796875 -3.671875q-0.78125 -1.296875 -1.90625 -1.734375q-0.8125 -0.3125 -2.609375 -0.3125l-3.203125 0l0 11.671875zm20.714996 -1.765625l1.921875 0.234375q-0.453125 1.703125 -1.6875 2.640625q-1.234375 0.9375 -3.171875 0.9375q-2.421875 0 -3.84375 -1.484375q-1.421875 -1.5 -1.421875 -4.203125q0 -2.796875 1.4375 -4.328125q1.4375 -1.546875 3.734375 -1.546875q2.21875 0 3.609375 1.515625q1.40625 1.5 1.40625 4.25q0 0.15625 0 0.5l-8.25 0q0.109375 1.8125 1.03125 2.78125q0.921875 0.96875 2.3125 0.96875q1.03125 0 1.75 -0.53125q0.734375 -0.546875 1.171875 -1.734375zm-6.15625 -3.03125l6.171875 0q-0.125 -1.390625 -0.703125 -2.09375q-0.90625 -1.078125 -2.328125 -1.078125q-1.296875 0 -2.171875 0.859375q-0.875 0.859375 -0.96875 2.3125zm13.517944 6.59375l-4.21875 -11.0625l1.984375 0l2.375 6.625q0.390625 1.078125 0.703125 2.234375q0.25 -0.875 0.703125 -2.109375l2.453125 -6.75l1.9375 0l-4.1875 11.0625l-1.75 0zm7.6015625 -13.109375l0 -2.15625l1.875 0l0 2.15625l-1.875 0zm0 13.109375l0 -11.0625l1.875 0l0 11.0625l-1.875 0zm11.941559 -4.046875l1.84375 0.234375q-0.296875 1.90625 -1.546875 2.984375q-1.25 1.078125 -3.0625 1.078125q-2.265625 0 -3.65625 -1.484375q-1.375 -1.484375 -1.375 -4.25q0 -1.796875 0.59375 -3.140625q0.59375 -1.34375 1.8125 -2.015625q1.21875 -0.671875 2.640625 -0.671875q1.796875 0 2.9375 0.921875q1.15625 0.90625 1.484375 2.578125l-1.828125 0.28125q-0.265625 -1.109375 -0.921875 -1.671875q-0.65625 -0.5625 -1.59375 -0.5625q-1.421875 0 -2.3125 1.015625q-0.875 1.015625 -0.875 3.203125q0 2.234375 0.84375 3.25q0.859375 1.0 2.234375 1.0q1.109375 0 1.84375 -0.671875q0.734375 -0.671875 0.9375 -2.078125zm11.0234375 0.484375l1.921875 0.234375q-0.453125 1.703125 -1.6875 2.640625q-1.234375 0.9375 -3.171875 0.9375q-2.421875 0 -3.84375 -1.484375q-1.421875 -1.5 -1.421875 -4.203125q0 -2.796875 1.4375 -4.328125q1.4375 -1.546875 3.734375 -1.546875q2.21875 0 3.609375 1.515625q1.40625 1.5 1.40625 4.25q0 0.15625 0 0.5l-8.25 0q0.109375 1.8125 1.03125 2.78125q0.921875 0.96875 2.3125 0.96875q1.03125 0 1.75 -0.53125q0.734375 -0.546875 1.171875 -1.734375zm-6.15625 -3.03125l6.171875 0q-0.125 -1.390625 -0.703125 -2.09375q-0.90625 -1.078125 -2.328125 -1.078125q-1.296875 0 -2.171875 0.859375q-0.875 0.859375 -0.96875 2.3125zm9.689819 3.296875l1.859375 -0.296875q0.15625 1.109375 0.859375 1.703125q0.71875 0.59375 2.0 0.59375q1.296875 0 1.921875 -0.515625q0.625 -0.53125 0.625 -1.234375q0 -0.640625 -0.5625 -1.0q-0.375 -0.25 -1.90625 -0.640625q-2.0625 -0.515625 -2.859375 -0.890625q-0.796875 -0.390625 -1.21875 -1.0625q-0.40625 -0.671875 -0.40625 -1.484375q0 -0.734375 0.328125 -1.359375q0.34375 -0.640625 0.9375 -1.0625q0.4375 -0.3125 1.1875 -0.53125q0.75 -0.234375 1.625 -0.234375q1.296875 0 2.28125 0.375q0.984375 0.375 1.453125 1.015625q0.46875 0.640625 0.640625 1.71875l-1.828125 0.25q-0.125 -0.859375 -0.734375 -1.328125q-0.59375 -0.484375 -1.6875 -0.484375q-1.28125 0 -1.84375 0.421875q-0.546875 0.421875 -0.546875 1.0q0 0.359375 0.234375 0.65625q0.21875 0.296875 0.71875 0.5q0.28125 0.109375 1.65625 0.484375q1.984375 0.53125 2.765625 0.875q0.796875 0.328125 1.234375 0.984375q0.453125 0.640625 0.453125 1.59375q0 0.9375 -0.546875 1.765625q-0.546875 0.828125 -1.578125 1.28125q-1.03125 0.453125 -2.328125 0.453125q-2.15625 0 -3.296875 -0.890625q-1.125 -0.90625 -1.4375 -2.65625z" fill-rule="nonzero"/><path fill="#000000" fill-opacity="0.0" d="m44.4681 110.1711l401.44882 0l0 56.818893l-401.44882 0z" fill-rule="evenodd"/><path fill="#ffffff" d="m144.27257 148.8911l0 -23.046875l4.203125 0l0 23.046875l-4.203125 0zm5.379257 0l0 -4.484375l15.140625 -18.484375l1.28125 -0.078125l0 4.421875l-15.140625 18.53125l-1.28125 0.09375zm22.656403 0q-1.8125 0 -3.125 -1.3125q-1.3125 -1.3125 -1.3125 -3.140625l0 -14.140625q0 -1.828125 1.3125 -3.140625q1.3125 -1.3125 3.125 -1.3125l14.140625 0q1.828125 0 3.140625 1.3125q1.3125 1.3125 1.3125 3.140625l0 14.140625q0 1.828125 -1.3125 3.140625q-1.3125 1.3125 -3.140625 1.3125l-14.140625 0zm0.90625 -4.25l12.3125 0q0.859375 0 0.984375 -0.109375q0.140625 -0.125 0.140625 -1.015625l0 -12.28125q0 -0.90625 -0.140625 -1.015625q-0.125 -0.109375 -0.984375 -0.109375l-12.3125 0q-0.90625 0 -1.015625 0.109375q-0.109375 0.109375 -0.109375 1.015625l0 12.28125q0 0.890625 0.109375 1.015625q0.109375 0.109375 1.015625 0.109375zm31.069336 4.25l0 -23.046875l18.5625 0q1.84375 0 3.15625 1.3125q1.3125 1.3125 1.3125 3.140625l0 14.140625q0 1.828125 -1.3125 3.140625q-1.3125 1.3125 -3.15625 1.3125l-18.5625 0zm5.34375 -4.25l12.3125 0q0.875 0 1.0 -0.109375q0.125 -0.125 0.125 -1.015625l0 -12.28125q0 -0.90625 -0.125 -1.015625q-0.125 -0.109375 -1.0 -0.109375l-12.3125 0q-0.90625 0 -1.015625 0.109375q-0.109375 0.109375 -0.109375 1.015625l0 12.28125q0 0.890625 0.109375 1.015625q0.109375 0.109375 1.015625 0.109375zm25.5318 4.25q-1.828125 0 -3.125 -1.296875q-1.296875 -1.296875 -1.296875 -3.125l0 -9.71875q0 -1.828125 1.296875 -3.125q1.296875 -1.296875 3.125 -1.296875l10.015625 0q1.828125 0 3.125 1.296875q1.296875 1.296875 1.296875 3.125l0 6.96875l-14.65625 0l0 1.859375q0 0.890625 0.109375 1.015625q0.109375 0.109375 1.0 0.109375l13.546875 0l0 4.1875l-14.4375 0zm-0.21875 -10.9375l10.453125 0l0 -2.3125q0 -0.890625 -0.109375 -1.0q-0.109375 -0.125 -1.0 -0.125l-8.234375 0q-0.890625 0 -1.0 0.125q-0.109375 0.109375 -0.109375 1.0l0 2.3125zm25.718903 10.9375l-10.203125 -18.5625l4.828125 0l7.328125 13.46875l7.296875 -13.46875l4.828125 0l-10.234375 18.5625l-3.84375 0zm16.285309 0l0 -18.5625l4.203125 0l0 18.5625l-4.203125 0zm0 -20.421875l0 -4.21875l4.203125 0l0 4.21875l-4.203125 0zm11.558624 20.421875q-1.828125 0 -3.125 -1.296875q-1.296875 -1.296875 -1.296875 -3.125l0 -9.71875q0 -1.828125 1.296875 -3.125q1.296875 -1.296875 3.125 -1.296875l14.40625 0l0 4.1875l-13.515625 0q-0.890625 0 -1.0 0.125q-0.109375 0.109375 -0.109375 1.0l0 7.9375q0 0.890625 0.109375 1.015625q0.109375 0.109375 1.0 0.109375l13.546875 0l0 4.1875l-14.4375 0zm21.440063 0q-1.828125 0 -3.125 -1.296875q-1.296875 -1.296875 -1.296875 -3.125l0 -9.71875q0 -1.828125 1.296875 -3.125q1.296875 -1.296875 3.125 -1.296875l10.015625 0q1.828125 0 3.125 1.296875q1.296875 1.296875 1.296875 3.125l0 6.96875l-14.65625 0l0 1.859375q0 0.890625 0.109375 1.015625q0.109375 0.109375 1.0 0.109375l13.546875 0l0 4.1875l-14.4375 0zm-0.21875 -10.9375l10.453125 0l0 -2.3125q0 -0.890625 -0.109375 -1.0q-0.109375 -0.125 -1.0 -0.125l-8.234375 0q-0.890625 0 -1.0 0.125q-0.109375 0.109375 -0.109375 1.0l0 2.3125zm22.045044 10.9375q-1.828125 0 -3.125 -1.296875q-1.296875 -1.296875 -1.296875 -3.125l0 -0.703125l4.203125 0l0 0.203125q0 0.5 0.109375 0.625q0.109375 0.109375 0.625 0.109375l8.984375 0q0.515625 0 0.625 -0.109375q0.109375 -0.125 0.109375 -0.625l0 -1.515625q0 -0.5 -0.109375 -0.609375q-0.109375 -0.125 -0.625 -0.125l-9.5 0q-1.828125 0 -3.125 -1.3125q-1.296875 -1.3125 -1.296875 -3.09375l0 -2.5625q0 -1.828125 1.296875 -3.125q1.296875 -1.296875 3.125 -1.296875l10.015625 0q1.828125 0 3.140625 1.296875q1.3125 1.296875 1.3125 3.125l0 0.703125l-4.234375 0l0 -0.1875q0 -0.515625 -0.109375 -0.625q-0.109375 -0.125 -0.625 -0.125l-8.984375 0q-0.515625 0 -0.625 0.125q-0.109375 0.109375 -0.109375 0.625l0 1.5q0 0.515625 0.109375 0.625q0.109375 0.109375 0.625 0.109375l9.5 0q1.828125 0 3.140625 1.3125q1.3125 1.3125 1.3125 3.109375l0 2.546875q0 1.828125 -1.3125 3.125q-1.3125 1.296875 -3.140625 1.296875l-10.015625 0z" fill-rule="nonzero"/><path fill="#34a5da" d="m722.5748 88.25229l0 0c0 -42.304142 50.426086 -76.59843 112.62988 -76.59843l0 0c62.203796 0 112.629944 34.294285 112.629944 76.59843l0 0c0 42.30414 -50.426147 76.59842 -112.629944 76.59842l0 0c-62.203796 0 -112.62988 -34.29428 -112.62988 -76.59842z" fill-rule="evenodd"/><path stroke="#34a5da" stroke-width="4.0" stroke-linejoin="round" stroke-linecap="butt" d="m722.5748 88.25229l0 0c0 -42.304142 50.426086 -76.59843 112.62988 -76.59843l0 0c62.203796 0 112.629944 34.294285 112.629944 76.59843l0 0c0 42.30414 -50.426147 76.59842 -112.629944 76.59842l0 0c-62.203796 0 -112.62988 -34.29428 -112.62988 -76.59842z" fill-rule="evenodd"/><path fill="#ffffff" d="m802.383 99.97228q-1.8125 0 -3.125 -1.3125q-1.3125 -1.3125 -1.3125 -3.140625l0 -14.140625q0 -1.828125 1.3125 -3.140625q1.3125 -1.3125 3.125 -1.3125l18.53125 0l0 4.265625l-17.625 0q-0.90625 0 -1.015625 0.109375q-0.109375 0.109375 -0.109375 1.015625l0 12.28125q0 0.890625 0.109375 1.015625q0.109375 0.109375 1.015625 0.109375l17.625 0l0 4.25l-18.53125 0zm21.866577 0l0 -23.015625l18.5625 0q1.84375 0 3.15625 1.328125q1.3125 1.328125 1.3125 3.125l0 6.203125q0 1.828125 -1.3125 3.140625q-1.3125 1.3125 -3.15625 1.3125l-14.34375 0.03125l0 7.875l-4.21875 0zm5.34375 -12.15625l12.3125 0q0.859375 0 0.984375 -0.09375q0.140625 -0.109375 0.140625 -1.0l0 -4.40625q0 -0.90625 -0.140625 -1.015625q-0.125 -0.109375 -0.984375 -0.109375l-12.3125 0q-0.90625 0 -1.015625 0.109375q-0.109375 0.109375 -0.109375 1.015625l0 4.40625q0 0.890625 0.109375 1.0q0.109375 0.09375 1.015625 0.09375zm24.343323 12.15625q-1.8125 0 -3.125 -1.3125q-1.3125 -1.3125 -1.3125 -3.140625l0 -18.59375l4.21875 0l0 17.671875q0 0.890625 0.109375 1.015625q0.109375 0.109375 1.015625 0.109375l12.3125 0q0.859375 0 0.984375 -0.109375q0.140625 -0.125 0.140625 -1.015625l0 -17.671875l4.25 0l0 18.59375q0 1.828125 -1.3125 3.140625q-1.3125 1.3125 -3.140625 1.3125l-14.140625 0z" fill-rule="nonzero"/></g></svg>