<svg version="1.1" viewBox="0.0 0.0 962.8530183727034 480.0" fill="none" stroke="none" stroke-linecap="square" stroke-miterlimit="10" xmlns:xlink="http://www.w3.org/1999/xlink" xmlns="http://www.w3.org/2000/svg"><clipPath id="p.0"><path d="m0 0l962.853 0l0 480.0l-962.853 0l0 -480.0z" clip-rule="nonzero"/></clipPath><g clip-path="url(#p.0)"><path fill="#000000" fill-opacity="0.0" d="m0 0l962.853 0l0 480.0l-962.853 0z" fill-rule="evenodd"/><path fill="#d9ead3" d="m0.020886878 0.1895449l959.9584 0l0 478.9032l-959.9584 0z" fill-rule="evenodd"/><path stroke="#8abe5e" stroke-width="8.0" stroke-linejoin="round" stroke-linecap="butt" stroke-dasharray="8.0,24.0" d="m0.020886878 0.1895449l959.9584 0l0 478.9032l-959.9584 0z" fill-rule="evenodd"/><path fill="#000000" fill-opacity="0.0" d="m4.55364 417.98053l955.435 0l0 56.83316l-955.435 0z" fill-rule="evenodd"/><path fill="#000000" d="m47.581165 456.70053l0 -18.78125l-9.40625 0l0 -4.265625l23.046875 0l0 4.265625l-9.390625 0l0 18.78125l-4.25 0zm15.975555 0l0 -24.640625l4.187504 0l0 6.078125l10.234375 0q1.796875 0 3.109375 1.296875q1.3125 1.296875 1.3125 3.125l0 14.140625l-4.1875 0l0 -13.25q0 -0.890625 -0.125 -1.0q-0.109375 -0.125 -1.0 -0.125l-8.21875 0q-0.90625 0 -1.015625 0.125q-0.109375 0.109375 -0.109375 1.0l0 13.25l-4.187504 0zm25.656544 0q-1.828125 0 -3.125 -1.296875q-1.296875 -1.296875 -1.296875 -3.125l0 -9.71875q0 -1.828125 1.296875 -3.125q1.296875 -1.296875 3.125 -1.296875l10.015625 0q1.828125 0 3.125 1.296875q1.296875 1.296875 1.296875 3.125l0 6.96875l-14.65625 0l0 1.859375q0 0.890625 0.109375 1.015625q0.109375 0.109375 1.0 0.109375l13.546875 0l0 4.1875l-14.4375 0zm-0.21875 -10.9375l10.453125 0l0 -2.3125q0 -0.890625 -0.109375 -1.0q-0.109375 -0.125 -1.0 -0.125l-8.234375 0q-0.890625 0 -1.0 0.125q-0.109375 0.109375 -0.109375 1.0l0 2.3125zm34.529816 10.9375l-7.296875 -18.5625l4.4375 0l4.515625 10.953125l4.7343674 -10.953125l4.359375 0l5.046875 11.015625l4.203125 -11.015625l4.4375 0l-6.96875 18.5625l-3.265625 0l-5.59375 -12.390625l-5.3437424 12.390625l-3.265625 0zm29.977058 0q-1.828125 0 -3.125 -1.296875q-1.296875 -1.296875 -1.296875 -3.125l0 -9.71875q0 -1.828125 1.296875 -3.125q1.296875 -1.296875 3.125 -1.296875l10.015625 0q1.828125 0 3.125 1.296875q1.296875 1.296875 1.296875 3.125l0 9.71875q0 1.828125 -1.296875 3.125q-1.296875 1.296875 -3.125 1.296875l-10.015625 0zm0.890625 -4.1875l8.234375 0q0.890625 0 1.0 -0.109375q0.109375 -0.125 0.109375 -1.015625l0 -7.9375q0 -0.890625 -0.109375 -1.0q-0.109375 -0.125 -1.0 -0.125l-8.234375 0q-0.890625 0 -1.0 0.125q-0.109375 0.109375 -0.109375 1.0l0 7.9375q0 0.890625 0.109375 1.015625q0.109375 0.109375 1.0 0.109375zm16.158798 4.1875l0 -14.140625q0 -1.828125 1.296875 -3.125q1.296875 -1.296875 3.125 -1.296875l10.3125 0l0 4.1875l-9.421875 0q-0.890625 0 -1.0 0.125q-0.109375 0.109375 -0.109375 1.0l0 13.25l-4.203125 0zm21.349915 0q-1.828125 0 -3.125 -1.296875q-1.296875 -1.296875 -1.296875 -3.125l0 -20.25l4.234375 0l0 19.359375q0 0.890625 0.109375 1.015625q0.109375 0.109375 0.96875 0.109375l2.859375 0l0 4.1875l-3.75 0zm10.214142 0q-1.828125 0 -3.125 -1.296875q-1.296875 -1.296875 -1.296875 -3.125l0 -9.71875q0 -1.828125 1.296875 -3.125q1.296875 -1.296875 3.125 -1.296875l10.265625 0l0 -6.078125l4.1875 0l0 24.640625l-14.453125 0zm0.921875 -4.1875l8.21875 0q0.90625 0 1.015625 -0.109375q0.109375 -0.125 0.109375 -1.015625l0 -7.9375q0 -0.890625 -0.109375 -1.0q-0.109375 -0.125 -1.015625 -0.125l-8.21875 0q-0.890625 0 -1.015625 0.125q-0.109375 0.109375 -0.109375 1.0l0 7.9375q0 0.890625 0.109375 1.015625q0.125 0.109375 1.015625 0.109375zm31.104813 4.1875q-1.828125 0 -3.125 -1.296875q-1.296875 -1.296875 -1.296875 -3.125l0 -9.71875q0 -1.828125 1.296875 -3.125q1.296875 -1.296875 3.125 -1.296875l10.015625 0q1.828125 0 3.125 1.296875q1.296875 1.296875 1.296875 3.125l0 9.71875q0 1.828125 -1.296875 3.125q-1.296875 1.296875 -3.125 1.296875l-10.015625 0zm0.890625 -4.1875l8.234375 0q0.890625 0 1.0 -0.109375q0.109375 -0.125 0.109375 -1.015625l0 -7.9375q0 -0.890625 -0.109375 -1.0q-0.109375 -0.125 -1.0 -0.125l-8.234375 0q-0.890625 0 -1.0 0.125q-0.109375 0.109375 -0.109375 1.0l0 7.9375q0 0.890625 0.109375 1.015625q0.109375 0.109375 1.0 0.109375zm16.909668 4.1875l0 -20.21875q0 -1.828125 1.28125 -3.125q1.296875 -1.296875 3.1250153 -1.296875l7.015625 0l0 4.21875l-6.109375 0q-0.90625 0 -1.015625 0.125q-0.109375 0.109375 -0.109375 0.96875l0 0.765625l7.234375 0l0 4.1875l-7.234375 0l0 14.375l-4.1875153 0zm23.505173 0l0 -14.140625q0 -1.828125 1.296875 -3.125q1.296875 -1.296875 3.125 -1.296875l10.3125 0l0 4.1875l-9.421875 0q-0.890625 0 -1.0 0.125q-0.109375 0.109375 -0.109375 1.0l0 13.25l-4.203125 0zm21.605164 0q-1.828125 0 -3.125 -1.296875q-1.28125 -1.296875 -1.28125 -3.125l0 -14.140625l4.1875 0l0 13.25q0 0.890625 0.109375 1.015625q0.109375 0.109375 1.015625 0.109375l8.21875 0q0.890625 0 1.0 -0.109375q0.125 -0.125 0.125 -1.015625l0 -13.25l4.1875 0l0 14.140625q0 1.828125 -1.296875 3.125q-1.296875 1.296875 -3.125 1.296875l-10.015625 0zm17.929077 0l0 -18.5625l14.421875 0q1.828125 0 3.125 1.296875q1.296875 1.296875 1.296875 3.125l0 14.140625l-4.1875 0l0 -13.25q0 -0.890625 -0.125 -1.0q-0.109375 -0.125 -1.0 -0.125l-8.21875 0q-0.90625 0 -1.015625 0.125q-0.109375 0.109375 -0.109375 1.0l0 13.25l-4.1875 0zm22.272034 0l0 -18.5625l14.421875 0q1.828125 0 3.125 1.296875q1.296875 1.296875 1.296875 3.125l0 14.140625l-4.1875 0l0 -13.25q0 -0.890625 -0.125 -1.0q-0.109375 -0.125 -1.0 -0.125l-8.21875 0q-0.90625 0 -1.015625 0.125q-0.109375 0.109375 -0.109375 1.0l0 13.25l-4.1875 0zm22.193909 0l0 -18.5625l4.203125 0l0 18.5625l-4.203125 0zm0 -20.421875l0 -4.21875l4.203125 0l0 4.21875l-4.203125 0zm7.918152 20.421875l0 -18.5625l14.421875 0q1.828125 0 3.125 1.296875q1.296875 1.296875 1.296875 3.125l0 14.140625l-4.1875 0l0 -13.25q0 -0.890625 -0.125 -1.0q-0.109375 -0.125 -1.0 -0.125l-8.21875 0q-0.90625 0 -1.015625 0.125q-0.109375 0.109375 -0.109375 1.0l0 13.25l-4.1875 0zm24.735535 7.328125l0 -4.21875l10.453125 0q0.875 0 0.984375 -0.125q0.109375 -0.109375 0.109375 -1.0l0 -1.984375l-10.234375 0q-1.828125 0 -3.125 -1.296875q-1.296875 -1.296875 -1.296875 -3.125l0 -9.71875q0 -1.828125 1.296875 -3.125q1.296875 -1.296875 3.125 -1.296875l10.046875 0q1.8125 0 3.09375 1.296875q1.28125 1.296875 1.28125 3.125l0 17.046875q0 1.828125 -1.28125 3.125q-1.28125 1.296875 -3.09375 1.296875l-11.359375 0zm2.203125 -11.515625l8.25 0q0.875 0 0.984375 -0.109375q0.109375 -0.125 0.109375 -1.015625l0 -7.9375q0 -0.890625 -0.109375 -1.0q-0.109375 -0.125 -0.984375 -0.125l-8.25 0q-0.890625 0 -1.015625 0.125q-0.109375 0.109375 -0.109375 1.0l0 7.9375q0 0.890625 0.109375 1.015625q0.125 0.109375 1.015625 0.109375zm26.757446 11.546875l0 -25.921875l14.421875 0q1.828125 0 3.125 1.296875q1.296875 1.296875 1.296875 3.125l0 9.71875q0 1.828125 -1.296875 3.125q-1.296875 1.296875 -3.125 1.296875l-10.234375 0l0 7.359375l-4.1875 0zm5.3125 -11.546875l8.21875 0q0.890625 0 1.0 -0.109375q0.125 -0.125 0.125 -1.015625l0 -7.9375q0 -0.890625 -0.125 -1.0q-0.109375 -0.125 -1.0 -0.125l-8.21875 0q-0.90625 0 -1.015625 0.125q-0.109375 0.109375 -0.109375 1.0l0 7.9375q0 0.890625 0.109375 1.015625q0.109375 0.109375 1.015625 0.109375zm15.857422 4.1875l0 -14.140625q0 -1.828125 1.296875 -3.125q1.296875 -1.296875 3.125 -1.296875l10.3125 0l0 4.1875l-9.421875 0q-0.890625 0 -1.0 0.125q-0.109375 0.109375 -0.109375 1.0l0 13.25l-4.203125 0zm21.15866 0q-1.828125 0 -3.125 -1.296875q-1.296875 -1.296875 -1.296875 -3.125l0 -9.71875q0 -1.828125 1.296875 -3.125q1.296875 -1.296875 3.125 -1.296875l10.015625 0q1.828125 0 3.125 1.296875q1.296875 1.296875 1.296875 3.125l0 9.71875q0 1.828125 -1.296875 3.125q-1.296875 1.296875 -3.125 1.296875l-10.015625 0zm0.890625 -4.1875l8.234375 0q0.890625 0 1.0 -0.109375q0.109375 -0.125 0.109375 -1.015625l0 -7.9375q0 -0.890625 -0.109375 -1.0q-0.109375 -0.125 -1.0 -0.125l-8.234375 0q-0.890625 0 -1.0 0.125q-0.109375 0.109375 -0.109375 1.0l0 7.9375q0 0.890625 0.109375 1.015625q0.109375 0.109375 1.0 0.109375zm19.628418 11.515625l0 -4.21875l10.453125 0q0.875 0 0.984375 -0.125q0.109375 -0.109375 0.109375 -1.0l0 -1.984375l-10.234375 0q-1.828125 0 -3.125 -1.296875q-1.296875 -1.296875 -1.296875 -3.125l0 -9.71875q0 -1.828125 1.296875 -3.125q1.296875 -1.296875 3.125 -1.296875l10.046875 0q1.8125 0 3.09375 1.296875q1.28125 1.296875 1.28125 3.125l0 17.046875q0 1.828125 -1.28125 3.125q-1.28125 1.296875 -3.09375 1.296875l-11.359375 0zm2.203125 -11.515625l8.25 0q0.875 0 0.984375 -0.109375q0.109375 -0.125 0.109375 -1.015625l0 -7.9375q0 -0.890625 -0.109375 -1.0q-0.109375 -0.125 -0.984375 -0.125l-8.25 0q-0.890625 0 -1.015625 0.125q-0.109375 0.109375 -0.109375 1.0l0 7.9375q0 0.890625 0.109375 1.015625q0.125 0.109375 1.015625 0.109375zm16.18332 4.1875l0 -14.140625q0 -1.828125 1.296875 -3.125q1.296875 -1.296875 3.125 -1.296875l10.3125 0l0 4.1875l-9.421875 0q-0.890625 0 -1.0 0.125q-0.109375 0.109375 -0.109375 1.0l0 13.25l-4.203125 0zm21.573914 0q-1.828125 0 -3.125 -1.296875q-1.296875 -1.296875 -1.296875 -3.125l0 -6.96875l14.65625 0l0 -1.859375q0 -0.890625 -0.109375 -1.0q-0.109375 -0.125 -1.0 -0.125l-13.546875 0l0 -4.1875l14.4375 0q1.828125 0 3.125 1.296875q1.296875 1.296875 1.296875 3.125l0 14.140625l-14.4375 0zm0.890625 -4.1875l9.34375 0l0 -3.421875l-10.453125 0l0 2.296875q0 0.890625 0.109375 1.015625q0.109375 0.109375 1.0 0.109375zm16.141663 4.1875l0 -18.5625l23.0 0q1.828125 0 3.125 1.296875q1.296875 1.296875 1.296875 3.125l0 14.140625l-4.171875 0l0 -13.25q0 -0.890625 -0.125 -1.0q-0.125 -0.125 -0.984375 -0.125l-5.1875 0q-0.890625 0 -1.015625 0.125q-0.109375 0.109375 -0.109375 1.0l0 13.25l-4.21875 0l0 -13.25q0 -0.890625 -0.109375 -1.0q-0.109375 -0.125 -1.015625 -0.125l-5.171875 0q-0.90625 0 -1.015625 0.125q-0.109375 0.109375 -0.109375 1.0l0 13.25l-4.1875 0zm35.51483 0q-1.828125 0 -3.125 -1.296875q-1.296875 -1.296875 -1.296875 -3.125l0 -0.703125l4.203125 0l0 0.203125q0 0.5 0.109375 0.625q0.109375 0.109375 0.625 0.109375l8.984375 0q0.515625 0 0.625 -0.109375q0.109375 -0.125 0.109375 -0.625l0 -1.515625q0 -0.5 -0.109375 -0.609375q-0.109375 -0.125 -0.625 -0.125l-9.5 0q-1.828125 0 -3.125 -1.3125q-1.296875 -1.3125 -1.296875 -3.09375l0 -2.5625q0 -1.828125 1.296875 -3.125q1.296875 -1.296875 3.125 -1.296875l10.015625 0q1.828125 0 3.140625 1.296875q1.3125 1.296875 1.3125 3.125l0 0.703125l-4.234375 0l0 -0.1875q0 -0.515625 -0.109375 -0.625q-0.109375 -0.125 -0.625 -0.125l-8.984375 0q-0.515625 0 -0.625 0.125q-0.109375 0.109375 -0.109375 0.625l0 1.5q0 0.515625 0.109375 0.625q0.109375 0.109375 0.625 0.109375l9.5 0q1.828125 0 3.140625 1.3125q1.3125 1.3125 1.3125 3.109375l0 2.546875q0 1.828125 -1.3125 3.125q-1.3125 1.296875 -3.140625 1.296875l-10.015625 0zm27.447205 0l0 -18.5625l4.203125 0l0 18.5625l-4.203125 0zm0 -20.421875l0 -4.21875l4.203125 0l0 4.21875l-4.203125 0zm7.918152 20.421875l0 -18.5625l14.421875 0q1.828125 0 3.125 1.296875q1.296875 1.296875 1.296875 3.125l0 14.140625l-4.1875 0l0 -13.25q0 -0.890625 -0.125 -1.0q-0.109375 -0.125 -1.0 -0.125l-8.21875 0q-0.90625 0 -1.015625 0.125q-0.109375 0.109375 -0.109375 1.0l0 13.25l-4.1875 0zm26.042786 0q-1.828125 0 -3.125 -1.296875q-1.296875 -1.296875 -1.296875 -3.125l0 -0.703125l4.203125 0l0 0.203125q0 0.5 0.109375 0.625q0.109375 0.109375 0.625 0.109375l8.984375 0q0.515625 0 0.625 -0.109375q0.109375 -0.125 0.109375 -0.625l0 -1.515625q0 -0.5 -0.109375 -0.609375q-0.109375 -0.125 -0.625 -0.125l-9.5 0q-1.828125 0 -3.125 -1.3125q-1.296875 -1.3125 -1.296875 -3.09375l0 -2.5625q0 -1.828125 1.296875 -3.125q1.296875 -1.296875 3.125 -1.296875l10.015625 0q1.828125 0 3.140625 1.296875q1.3125 1.296875 1.3125 3.125l0 0.703125l-4.234375 0l0 -0.1875q0 -0.515625 -0.109375 -0.625q-0.109375 -0.125 -0.625 -0.125l-8.984375 0q-0.515625 0 -0.625 0.125q-0.109375 0.109375 -0.109375 0.625l0 1.5q0 0.515625 0.109375 0.625q0.109375 0.109375 0.625 0.109375l9.5 0q1.828125 0 3.140625 1.3125q1.3125 1.3125 1.3125 3.109375l0 2.546875q0 1.828125 -1.3125 3.125q-1.3125 1.296875 -3.140625 1.296875l-10.015625 0zm17.655151 0l0 -18.5625l4.203125 0l0 18.5625l-4.203125 0zm0 -20.421875l0 -4.21875l4.203125 0l0 4.21875l-4.203125 0zm11.052002 20.421875q-1.828125 0 -3.125 -1.296875q-1.296875 -1.296875 -1.296875 -3.125l0 -9.71875q0 -1.828125 1.296875 -3.125q1.296875 -1.296875 3.125 -1.296875l10.265625 0l0 -6.078125l4.1875 0l0 24.640625l-14.453125 0zm0.921875 -4.1875l8.21875 0q0.90625 0 1.015625 -0.109375q0.109375 -0.125 0.109375 -1.015625l0 -7.9375q0 -0.890625 -0.109375 -1.0q-0.109375 -0.125 -1.015625 -0.125l-8.21875 0q-0.890625 0 -1.015625 0.125q-0.109375 0.109375 -0.109375 1.0l0 7.9375q0 0.890625 0.109375 1.015625q0.125 0.109375 1.015625 0.109375zm20.608765 4.1875q-1.828125 0 -3.125 -1.296875q-1.296875 -1.296875 -1.296875 -3.125l0 -9.71875q0 -1.828125 1.296875 -3.125q1.296875 -1.296875 3.125 -1.296875l10.015625 0q1.828125 0 3.125 1.296875q1.296875 1.296875 1.296875 3.125l0 6.96875l-14.65625 0l0 1.859375q0 0.890625 0.109375 1.015625q0.109375 0.109375 1.0 0.109375l13.546875 0l0 4.1875l-14.4375 0zm-0.21875 -10.9375l10.453125 0l0 -2.3125q0 -0.890625 -0.109375 -1.0q-0.109375 -0.125 -1.0 -0.125l-8.234375 0q-0.890625 0 -1.0 0.125q-0.109375 0.109375 -0.109375 1.0l0 2.3125zm32.217285 10.9375q-1.828125 0 -3.125 -1.296875q-1.28125 -1.296875 -1.28125 -3.125l0 -19.828125l4.1875 0l0 5.6875l7.234375 0l0 4.1875l-7.234375 0l0 9.0625q0 0.890625 0.109375 1.015625q0.109375 0.109375 1.015625 0.109375l6.109375 0l0 4.1875l-7.015625 0zm10.121033 0l0 -24.640625l4.1875 0l0 6.078125l10.234375 0q1.796875 0 3.109375 1.296875q1.3125 1.296875 1.3125 3.125l0 14.140625l-4.1875 0l0 -13.25q0 -0.890625 -0.125 -1.0q-0.109375 -0.125 -1.0 -0.125l-8.21875 0q-0.90625 0 -1.015625 0.125q-0.109375 0.109375 -0.109375 1.0l0 13.25l-4.1875 0zm25.656555 0q-1.828125 0 -3.125 -1.296875q-1.296875 -1.296875 -1.296875 -3.125l0 -9.71875q0 -1.828125 1.296875 -3.125q1.296875 -1.296875 3.125 -1.296875l10.015625 0q1.828125 0 3.125 1.296875q1.296875 1.296875 1.296875 3.125l0 6.96875l-14.65625 0l0 1.859375q0 0.890625 0.109375 1.015625q0.109375 0.109375 1.0 0.109375l13.546875 0l0 4.1875l-14.4375 0zm-0.21875 -10.9375l10.453125 0l0 -2.3125q0 -0.890625 -0.109375 -1.0q-0.109375 -0.125 -1.0 -0.125l-8.234375 0q-0.890625 0 -1.0 0.125q-0.109375 0.109375 -0.109375 1.0l0 2.3125zm27.904785 10.9375l0 -23.046875l4.640625 0l8.34375 9.953125l8.328125 -9.953125l4.671875 0l0 23.046875l-4.265625 0l0 -16.890625l-8.734375 10.390625l-8.765625 -10.359375l0 16.859375l-4.21875 0zm33.753296 0q-1.828125 0 -3.125 -1.296875q-1.296875 -1.296875 -1.296875 -3.125l0 -6.96875l14.65625 0l0 -1.859375q0 -0.890625 -0.109375 -1.0q-0.109375 -0.125 -1.0 -0.125l-13.546875 0l0 -4.1875l14.4375 0q1.828125 0 3.125 1.296875q1.296875 1.296875 1.296875 3.125l0 14.140625l-14.4375 0zm0.890625 -4.1875l9.34375 0l0 -3.421875l-10.453125 0l0 2.296875q0 0.890625 0.109375 1.015625q0.109375 0.109375 1.0 0.109375zm20.42218 4.1875q-1.828125 0 -3.125 -1.296875q-1.296875 -1.296875 -1.296875 -3.125l0 -9.71875q0 -1.828125 1.296875 -3.125q1.296875 -1.296875 3.125 -1.296875l14.40625 0l0 4.1875l-13.515625 0q-0.890625 0 -1.0 0.125q-0.109375 0.109375 -0.109375 1.0l0 7.9375q0 0.890625 0.109375 1.015625q0.109375 0.109375 1.0 0.109375l13.546875 0l0 4.1875l-14.4375 0zm17.127563 0l0 -24.640625l4.1875 0l0 6.078125l10.234375 0q1.796875 0 3.109375 1.296875q1.3125 1.296875 1.3125 3.125l0 14.140625l-4.1875 0l0 -13.25q0 -0.890625 -0.125 -1.0q-0.109375 -0.125 -1.0 -0.125l-8.21875 0q-0.90625 0 -1.015625 0.125q-0.109375 0.109375 -0.109375 1.0l0 13.25l-4.1875 0zm21.361877 0l0 -18.5625l4.203125 0l0 18.5625l-4.203125 0zm0 -20.421875l0 -4.21875l4.203125 0l0 4.21875l-4.203125 0zm7.918152 20.421875l0 -18.5625l14.421875 0q1.828125 0 3.125 1.296875q1.296875 1.296875 1.296875 3.125l0 14.140625l-4.1875 0l0 -13.25q0 -0.890625 -0.125 -1.0q-0.109375 -0.125 -1.0 -0.125l-8.21875 0q-0.90625 0 -1.015625 0.125q-0.109375 0.109375 -0.109375 1.0l0 13.25l-4.1875 0zm25.912537 0q-1.828125 0 -3.125 -1.296875q-1.296875 -1.296875 -1.296875 -3.125l0 -9.71875q0 -1.828125 1.296875 -3.125q1.296875 -1.296875 3.125 -1.296875l10.015625 0q1.828125 0 3.125 1.296875q1.296875 1.296875 1.296875 3.125l0 6.96875l-14.65625 0l0 1.859375q0 0.890625 0.109375 1.015625q0.109375 0.109375 1.0 0.109375l13.546875 0l0 4.1875l-14.4375 0zm-0.21875 -10.9375l10.453125 0l0 -2.3125q0 -0.890625 -0.109375 -1.0q-0.109375 -0.125 -1.0 -0.125l-8.234375 0q-0.890625 0 -1.0 0.125q-0.109375 0.109375 -0.109375 1.0l0 2.3125z" fill-rule="nonzero"/><path fill="#8abe5e" d="m71.314964 376.41074l0 0c0 -11.021118 42.932945 -21.59082 119.35409 -29.383911c76.42116 -7.793091 180.07045 -12.171204 288.1463 -12.171204l0 0c225.05624 0 407.5004 18.604858 407.5004 41.555115l0 0c0 22.950226 -182.44415 41.555084 -407.5004 41.555084l0 0c-225.05624 0 -407.50037 -18.604858 -407.50037 -41.555084z" fill-rule="evenodd"/><path stroke="#8abe5e" stroke-width="4.0" stroke-linejoin="round" stroke-linecap="butt" d="m71.314964 376.41074l0 0c0 -11.021118 42.932945 -21.59082 119.35409 -29.383911c76.42116 -7.793091 180.07045 -12.171204 288.1463 -12.171204l0 0c225.05624 0 407.5004 18.604858 407.5004 41.555115l0 0c0 22.950226 -182.44415 41.555084 -407.5004 41.555084l0 0c-225.05624 0 -407.50037 -18.604858 -407.50037 -41.555084z" fill-rule="evenodd"/><path fill="#ffffff" d="m378.107 388.13074q-1.8125 0 -3.125 -1.3125q-1.3125 -1.3125 -1.3125 -3.140625l0 -18.59375l4.21875 0l0 17.671875q0 0.890625 0.109375 1.015625q0.109375 0.109375 1.015625 0.109375l12.3125 0q0.859375 0 0.984375 -0.109375q0.140625 -0.125 0.140625 -1.015625l0 -17.671875l4.25 0l0 18.59375q0 1.828125 -1.3125 3.140625q-1.3125 1.3125 -3.140625 1.3125l-14.140625 0zm22.121033 0l0 -23.046875l4.640625 0l14.140625 16.84375l0 -16.84375l4.25 0l0 23.046875l-4.640625 0l-14.171875 -16.859375l0 16.859375l-4.21875 0zm26.483429 0l0 -23.046875l4.203125 0l0 23.046875l-4.203125 0zm6.6605225 0l0 -1.1875l8.671875 -10.328125l-8.671875 -10.34375l0 -1.1875l4.578125 0l6.90625 8.203125l6.859375 -8.203125l4.609375 0l0 1.1875l-8.703125 10.34375l8.703125 10.296875l0 1.21875l-4.609375 0l-6.890625 -8.15625l-6.875 8.15625l-4.578125 0zm36.135468 0l0 -23.046875l4.25 0l0 9.390625l5.40625 0l7.875 -9.390625l4.609375 0l0 1.21875l-8.640625 10.3125l8.671875 10.296875l0 1.21875l-4.640625 0l-7.875 -9.375l-5.40625 0l0 9.375l-4.25 0zm29.722778 0q-1.828125 0 -3.125 -1.296875q-1.296875 -1.296875 -1.296875 -3.125l0 -9.71875q0 -1.828125 1.296875 -3.125q1.296875 -1.296875 3.125 -1.296875l10.015625 0q1.828125 0 3.125 1.296875q1.296875 1.296875 1.296875 3.125l0 6.96875l-14.65625 0l0 1.859375q0 0.890625 0.109375 1.015625q0.109375 0.109375 1.0 0.109375l13.546875 0l0 4.1875l-14.4375 0zm-0.21875 -10.9375l10.453125 0l0 -2.3125q0 -0.890625 -0.109375 -1.0q-0.109375 -0.125 -1.0 -0.125l-8.234375 0q-0.890625 0 -1.0 0.125q-0.109375 0.109375 -0.109375 1.0l0 2.3125zm17.780151 10.9375l0 -14.140625q0 -1.828125 1.296875 -3.125q1.296875 -1.296875 3.125 -1.296875l10.3125 0l0 4.1875l-9.421875 0q-0.890625 0 -1.0 0.125q-0.109375 0.109375 -0.109375 1.0l0 13.25l-4.203125 0zm17.230164 0l0 -18.5625l14.421875 0q1.828125 0 3.125 1.296875q1.296875 1.296875 1.296875 3.125l0 14.140625l-4.1875 0l0 -13.25q0 -0.890625 -0.125 -1.0q-0.109375 -0.125 -1.0 -0.125l-8.21875 0q-0.90625 0 -1.015625 0.125q-0.109375 0.109375 -0.109375 1.0l0 13.25l-4.1875 0zm25.912598 0q-1.828125 0 -3.125 -1.296875q-1.296875 -1.296875 -1.296875 -3.125l0 -9.71875q0 -1.828125 1.296875 -3.125q1.296875 -1.296875 3.125 -1.296875l10.015625 0q1.828125 0 3.125 1.296875q1.296875 1.296875 1.296875 3.125l0 6.96875l-14.65625 0l0 1.859375q0 0.890625 0.109375 1.015625q0.109375 0.109375 1.0 0.109375l13.546875 0l0 4.1875l-14.4375 0zm-0.21875 -10.9375l10.453125 0l0 -2.3125q0 -0.890625 -0.109375 -1.0q-0.109375 -0.125 -1.0 -0.125l-8.234375 0q-0.890625 0 -1.0 0.125q-0.109375 0.109375 -0.109375 1.0l0 2.3125zm21.626038 10.9375q-1.828125 0 -3.125 -1.296875q-1.296875 -1.296875 -1.296875 -3.125l0 -20.25l4.234375 0l0 19.359375q0 0.890625 0.109375 1.015625q0.109375 0.109375 0.96875 0.109375l2.859375 0l0 4.1875l-3.75 0z" fill-rule="nonzero"/></g></svg>