<?xml version="1.0" encoding="UTF-8" standalone="no"?>
<svg
   version="1.1"
   viewBox="0.0 0.0 963.7559055118111 799.5958005249344"
   fill="none"
   stroke="none"
   stroke-linecap="square"
   stroke-miterlimit="10"
   id="svg953"
   sodipodi:docname="11SHLLChat.svg"
   inkscape:version="1.1 (c4e8f9e, 2021-05-24)"
   inkscape:export-filename="/Users/jonathan/UndertheCovers/underthecovers/images/UnixL01_SHCHT/11SHLLChat.png"
   inkscape:export-xdpi="96"
   inkscape:export-ydpi="96"
   xmlns:inkscape="http://www.inkscape.org/namespaces/inkscape"
   xmlns:sodipodi="http://sodipodi.sourceforge.net/DTD/sodipodi-0.dtd"
   xmlns="http://www.w3.org/2000/svg"
   xmlns:svg="http://www.w3.org/2000/svg">
  <defs
     id="defs957" />
  <sodipodi:namedview
     id="namedview955"
     pagecolor="#ffffff"
     bordercolor="#666666"
     borderopacity="1.0"
     inkscape:pageshadow="2"
     inkscape:pageopacity="0.0"
     inkscape:pagecheckerboard="0"
     showgrid="false"
     inkscape:zoom="0.78164493"
     inkscape:cx="257.15001"
     inkscape:cy="387.00437"
     inkscape:window-width="1312"
     inkscape:window-height="847"
     inkscape:window-x="0"
     inkscape:window-y="25"
     inkscape:window-maximized="0"
     inkscape:current-layer="g951" />
  <clipPath
     id="p.0">
    <path
       d="m0 0l963.7559 0l0 799.5958l-963.7559 0l0 -799.5958z"
       clip-rule="nonzero"
       id="path824" />
  </clipPath>
  <g
     clip-path="url(#p.0)"
     id="g951">
    <path
       fill="#000000"
       fill-opacity="0"
       d="M 0,0 H 963.7559 V 799.5958 H 0 Z"
       fill-rule="evenodd"
       id="path827" />
    <path
       fill="#cfe2f3"
       d="M 0,581.4803 H 959.9685 V 800.00001 H 0 Z"
       fill-rule="evenodd"
       id="path829" />
    <path
       stroke="#34a5da"
       stroke-width="4"
       stroke-linejoin="round"
       stroke-linecap="butt"
       d="M 0,581.4803 H 959.9685 V 800.00001 H 0 Z"
       fill-rule="evenodd"
       id="path831" />
    <path
       fill="#000000"
       fill-opacity="0"
       d="M 44.312336,740.88684 H 915.87144 v 56.81885 H 44.312336 Z"
       fill-rule="evenodd"
       id="path833" />
    <path
       fill="#000000"
       d="m 70.92183,779.6068 v -18.78125 h -9.406246 v -4.26562 h 23.046871 v 4.26562 H 75.17183 v 18.78125 z m 15.975555,0 v -24.64062 h 4.1875 v 6.07812 h 10.234375 q 1.79688,0 3.10938,1.29688 1.3125,1.29687 1.3125,3.125 v 14.14062 h -4.1875 v -13.25 q 0,-0.89062 -0.125,-1 -0.10938,-0.125 -1,-0.125 h -8.218755 q -0.90625,0 -1.015625,0.125 -0.109375,0.10938 -0.109375,1 v 13.25 z m 25.656535,0 q -1.82812,0 -3.125,-1.29687 -1.29687,-1.29688 -1.29687,-3.125 v -9.71875 q 0,-1.82813 1.29687,-3.125 1.29688,-1.29688 3.125,-1.29688 h 10.01563 q 1.82812,0 3.125,1.29688 1.29687,1.29687 1.29687,3.125 v 6.96875 h -14.65625 v 1.85937 q 0,0.89063 0.10938,1.01563 0.10937,0.10937 1,0.10937 h 13.54687 v 4.1875 z m -0.21875,-10.9375 h 10.45313 v -2.3125 q 0,-0.89062 -0.10938,-1 -0.10937,-0.125 -1,-0.125 h -8.23437 q -0.89063,0 -1,0.125 -0.10938,0.10938 -0.10938,1 z m 32.34232,10.9375 q -1.8125,0 -3.125,-1.3125 -1.3125,-1.3125 -1.3125,-3.14062 v -14.14063 q 0,-1.82812 1.3125,-3.14062 1.3125,-1.3125 3.125,-1.3125 h 18.53125 v 4.26562 h -17.625 q -0.90625,0 -1.01562,0.10938 -0.10938,0.10937 -0.10938,1.01562 v 12.28125 q 0,0.89063 0.10938,1.01563 0.10937,0.10937 1.01562,0.10937 h 17.625 v 4.25 z m 26.11655,0 q -1.82813,0 -3.125,-1.29687 -1.29688,-1.29688 -1.29688,-3.125 v -9.71875 q 0,-1.82813 1.29688,-3.125 1.29687,-1.29688 3.125,-1.29688 h 10.01562 q 1.82813,0 3.125,1.29688 1.29688,1.29687 1.29688,3.125 v 9.71875 q 0,1.82812 -1.29688,3.125 -1.29687,1.29687 -3.125,1.29687 z m 0.89062,-4.1875 h 8.23438 q 0.89062,0 1,-0.10937 0.10937,-0.125 0.10937,-1.01563 v -7.9375 q 0,-0.89062 -0.10937,-1 -0.10938,-0.125 -1,-0.125 h -8.23438 q -0.89062,0 -1,0.125 -0.10937,0.10938 -0.10937,1 v 7.9375 q 0,0.89063 0.10937,1.01563 0.10938,0.10937 1,0.10937 z m 16.94092,4.1875 v -18.5625 h 23 q 1.82813,0 3.125,1.29688 1.29688,1.29687 1.29688,3.125 v 14.14062 h -4.17188 v -13.25 q 0,-0.89062 -0.125,-1 -0.125,-0.125 -0.98437,-0.125 h -5.1875 q -0.89063,0 -1.01563,0.125 -0.10937,0.10938 -0.10937,1 v 13.25 h -4.21875 v -13.25 q 0,-0.89062 -0.10938,-1 -0.10937,-0.125 -1.01562,-0.125 h -5.17188 q -0.90625,0 -1.01562,0.125 -0.10938,0.10938 -0.10938,1 v 13.25 z m 30.04807,7.35938 V 761.0443 h 14.42187 q 1.82813,0 3.125,1.29688 1.29688,1.29687 1.29688,3.125 v 9.71875 q 0,1.82812 -1.29688,3.125 -1.29687,1.29687 -3.125,1.29687 h -10.23437 v 7.35938 z m 5.3125,-11.54688 h 8.21875 q 0.89062,0 1,-0.10937 0.125,-0.125 0.125,-1.01563 v -7.9375 q 0,-0.89062 -0.125,-1 -0.10938,-0.125 -1,-0.125 h -8.21875 q -0.90625,0 -1.01563,0.125 -0.10937,0.10938 -0.10937,1 v 7.9375 q 0,0.89063 0.10937,1.01563 0.10938,0.10937 1.01563,0.10937 z m 20.31054,4.1875 q -1.82812,0 -3.125,-1.29687 -1.28125,-1.29688 -1.28125,-3.125 V 761.0443 h 4.1875 v 13.25 q 0,0.89063 0.10938,1.01563 0.10937,0.10937 1.01562,0.10937 h 8.21875 q 0.89063,0 1,-0.10937 0.125,-0.125 0.125,-1.01563 v -13.25 h 4.1875 v 14.14063 q 0,1.82812 -1.29687,3.125 -1.29688,1.29687 -3.125,1.29687 z m 21.53607,0 q -1.82812,0 -3.125,-1.29687 -1.28125,-1.29688 -1.28125,-3.125 V 755.3568 h 4.1875 v 5.6875 h 7.23438 v 4.1875 h -7.23438 v 9.0625 q 0,0.89063 0.10938,1.01563 0.10937,0.10937 1.01562,0.10937 h 6.10938 v 4.1875 z m 13.95353,0 q -1.82813,0 -3.125,-1.29687 -1.29688,-1.29688 -1.29688,-3.125 v -9.71875 q 0,-1.82813 1.29688,-3.125 1.29687,-1.29688 3.125,-1.29688 h 10.01562 q 1.82813,0 3.125,1.29688 1.29688,1.29687 1.29688,3.125 v 6.96875 h -14.65625 v 1.85937 q 0,0.89063 0.10937,1.01563 0.10938,0.10937 1,0.10937 h 13.54688 v 4.1875 z m -0.21875,-10.9375 h 10.45312 v -2.3125 q 0,-0.89062 -0.10937,-1 -0.10938,-0.125 -1,-0.125 h -8.23438 q -0.89062,0 -1,0.125 -0.10937,0.10938 -0.10937,1 z m 17.78015,10.9375 v -14.14062 q 0,-1.82813 1.29687,-3.125 1.29688,-1.29688 3.125,-1.29688 h 10.3125 v 4.1875 h -9.42187 q -0.89063,0 -1,0.125 -0.10938,0.10938 -0.10938,1 v 13.25 z m 26.73047,-7.35937 v -4.1875 h 13.07812 v 4.1875 z m 16.54403,0 v -4.1875 h 13.07813 v 4.1875 z m 34.49231,7.35937 v -18.78125 h -9.40625 v -4.26562 h 23.04688 v 4.26562 h -9.39063 v 18.78125 z m 15.97556,0 v -24.64062 h 4.1875 v 6.07812 h 10.23437 q 1.79688,0 3.10938,1.29688 1.3125,1.29687 1.3125,3.125 v 14.14062 h -4.1875 v -13.25 q 0,-0.89062 -0.125,-1 -0.10938,-0.125 -1,-0.125 h -8.21875 q -0.90625,0 -1.01563,0.125 -0.10937,0.10938 -0.10937,1 v 13.25 z m 25.65655,0 q -1.82812,0 -3.125,-1.29687 -1.29687,-1.29688 -1.29687,-3.125 v -9.71875 q 0,-1.82813 1.29687,-3.125 1.29688,-1.29688 3.125,-1.29688 h 10.01563 q 1.82812,0 3.125,1.29688 1.29687,1.29687 1.29687,3.125 v 6.96875 h -14.65625 v 1.85937 q 0,0.89063 0.10938,1.01563 0.10937,0.10937 1,0.10937 h 13.54687 v 4.1875 z m -0.21875,-10.9375 h 10.45313 v -2.3125 q 0,-0.89062 -0.10938,-1 -0.10937,-0.125 -1,-0.125 h -8.23437 q -0.89063,0 -1,0.125 -0.10938,0.10938 -0.10938,1 z m 27.93607,10.9375 v -23.04687 h 4.21875 v 9.39062 h 15.10937 v -9.39062 h 4.21875 v 23.04687 h -4.21875 v -9.375 h -15.10937 v 9.375 z m 31.48206,0 q -1.82813,0 -3.125,-1.29687 -1.29688,-1.29688 -1.29688,-3.125 v -6.96875 h 14.65625 v -1.85938 q 0,-0.89062 -0.10937,-1 -0.10938,-0.125 -1,-0.125 h -13.54688 v -4.1875 h 14.4375 q 1.82813,0 3.125,1.29688 1.29688,1.29687 1.29688,3.125 v 14.14062 z m 0.89062,-4.1875 h 9.34375 v -3.42187 h -10.45312 v 2.29687 q 0,0.89063 0.10937,1.01563 0.10938,0.10937 1,0.10937 z m 16.25552,4.1875 v -14.14062 q 0,-1.82813 1.29688,-3.125 1.29687,-1.29688 3.125,-1.29688 h 10.3125 v 4.1875 h -9.42188 q -0.89062,0 -1,0.125 -0.10937,0.10938 -0.10937,1 v 13.25 z m 20.87601,0 q -1.82812,0 -3.12497,-1.29687 -1.29687,-1.29688 -1.29687,-3.125 v -9.71875 q 0,-1.82813 1.29687,-3.125 1.29685,-1.29688 3.12497,-1.29688 h 10.26563 v -6.07812 h 4.1875 v 24.64062 z m 0.92188,-4.1875 h 8.21875 q 0.90625,0 1.01562,-0.10937 0.10938,-0.125 0.10938,-1.01563 v -7.9375 q 0,-0.89062 -0.10938,-1 -0.10937,-0.125 -1.01562,-0.125 h -8.21875 q -0.89063,0 -1.01563,0.125 -0.10937,0.10938 -0.10937,1 v 7.9375 q 0,0.89063 0.10937,1.01563 0.125,0.10937 1.01563,0.10937 z m 23.4638,4.1875 -7.29687,-18.5625 h 4.4375 l 4.51562,10.95313 4.73438,-10.95313 h 4.35937 l 5.04688,11.01563 4.20312,-11.01563 h 4.4375 l -6.96875,18.5625 h -3.26562 l -5.59375,-12.39062 -5.34375,12.39062 z m 30.87232,0 q -1.82813,0 -3.125,-1.29687 -1.29688,-1.29688 -1.29688,-3.125 v -6.96875 h 14.65625 v -1.85938 q 0,-0.89062 -0.10937,-1 -0.10938,-0.125 -1,-0.125 h -13.54688 v -4.1875 h 14.4375 q 1.82813,0 3.125,1.29688 1.29688,1.29687 1.29688,3.125 v 14.14062 z m 0.89062,-4.1875 h 9.34375 v -3.42187 h -10.45312 v 2.29687 q 0,0.89063 0.10937,1.01563 0.10938,0.10937 1,0.10937 z m 16.25556,4.1875 v -14.14062 q 0,-1.82813 1.29687,-3.125 1.29688,-1.29688 3.125,-1.29688 h 10.3125 v 4.1875 h -9.42187 q -0.89063,0 -1,0.125 -0.10938,0.10938 -0.10938,1 v 13.25 z m 21.31866,0 q -1.82812,0 -3.125,-1.29687 -1.29687,-1.29688 -1.29687,-3.125 v -9.71875 q 0,-1.82813 1.29687,-3.125 1.29688,-1.29688 3.125,-1.29688 h 10.01563 q 1.82812,0 3.125,1.29688 1.29687,1.29687 1.29687,3.125 v 6.96875 h -14.65625 v 1.85937 q 0,0.89063 0.10938,1.01563 0.10937,0.10937 1,0.10937 h 13.54687 v 4.1875 z m -0.21875,-10.9375 h 10.45313 v -2.3125 q 0,-0.89062 -0.10938,-1 -0.10937,-0.125 -1,-0.125 h -8.23437 q -0.89063,0 -1,0.125 -0.10938,0.10938 -0.10938,1 z m 27.99854,3.57813 v -4.1875 h 13.07812 v 4.1875 z m 16.54406,0 v -4.1875 h 13.07813 v 4.1875 z m 34.49231,7.35937 v -18.78125 h -9.40625 v -4.26562 h 23.04688 v 4.26562 h -9.39063 v 18.78125 z m 15.97559,0 v -24.64062 h 4.1875 v 6.07812 h 10.23437 q 1.79688,0 3.10938,1.29688 1.3125,1.29687 1.3125,3.125 v 14.14062 h -4.1875 v -13.25 q 0,-0.89062 -0.125,-1 -0.10938,-0.125 -1,-0.125 h -8.21875 q -0.90625,0 -1.01563,0.125 -0.10937,0.10938 -0.10937,1 v 13.25 z m 25.65655,0 q -1.82812,0 -3.125,-1.29687 -1.29687,-1.29688 -1.29687,-3.125 v -9.71875 q 0,-1.82813 1.29687,-3.125 1.29688,-1.29688 3.125,-1.29688 h 10.01563 q 1.82812,0 3.125,1.29688 1.29687,1.29687 1.29687,3.125 v 6.96875 h -14.65625 v 1.85937 q 0,0.89063 0.10938,1.01563 0.10937,0.10937 1,0.10937 h 13.54687 v 4.1875 z m -0.21875,-10.9375 h 10.45313 v -2.3125 q 0,-0.89062 -0.10938,-1 -0.10937,-0.125 -1,-0.125 h -8.23437 q -0.89063,0 -1,0.125 -0.10938,0.10938 -0.10938,1 z m 27.90485,10.9375 v -23.04687 h 4.64062 l 8.34375,9.95312 8.32813,-9.95312 h 4.67187 v 23.04687 h -4.26562 v -16.89062 l -8.73438,10.39062 -8.76562,-10.35937 v 16.85937 z m 33.7533,0 q -1.82813,0 -3.125,-1.29687 -1.29688,-1.29688 -1.29688,-3.125 v -6.96875 h 14.65625 v -1.85938 q 0,-0.89062 -0.10937,-1 -0.10938,-0.125 -1,-0.125 H 785.1568 v -4.1875 h 14.4375 q 1.82813,0 3.125,1.29688 1.29688,1.29687 1.29688,3.125 v 14.14062 z m 0.89062,-4.1875 h 9.34375 v -3.42187 h -10.45312 v 2.29687 q 0,0.89063 0.10937,1.01563 0.10938,0.10937 1,0.10937 z m 20.42218,4.1875 q -1.82812,0 -3.125,-1.29687 -1.29687,-1.29688 -1.29687,-3.125 v -9.71875 q 0,-1.82813 1.29687,-3.125 1.29688,-1.29688 3.125,-1.29688 h 14.40625 v 4.1875 h -13.51562 q -0.89063,0 -1,0.125 -0.10938,0.10938 -0.10938,1 v 7.9375 q 0,0.89063 0.10938,1.01563 0.10937,0.10937 1,0.10937 h 13.54687 v 4.1875 z m 17.12756,0 v -24.64062 h 4.1875 v 6.07812 h 10.23438 q 1.79687,0 3.10937,1.29688 1.3125,1.29687 1.3125,3.125 v 14.14062 h -4.1875 v -13.25 q 0,-0.89062 -0.125,-1 -0.10937,-0.125 -1,-0.125 h -8.21875 q -0.90625,0 -1.01562,0.125 -0.10938,0.10938 -0.10938,1 v 13.25 z m 21.36188,0 v -18.5625 h 4.20313 v 18.5625 z m 0,-20.42187 v -4.21875 h 4.20313 v 4.21875 z m 7.91815,20.42187 v -18.5625 h 14.42188 q 1.82812,0 3.125,1.29688 1.29687,1.29687 1.29687,3.125 v 14.14062 h -4.1875 v -13.25 q 0,-0.89062 -0.125,-1 -0.10937,-0.125 -1,-0.125 h -8.21875 q -0.90625,0 -1.01562,0.125 -0.10938,0.10938 -0.10938,1 v 13.25 z m 25.91254,0 q -1.82813,0 -3.125,-1.29687 -1.29688,-1.29688 -1.29688,-3.125 v -9.71875 q 0,-1.82813 1.29688,-3.125 1.29687,-1.29688 3.125,-1.29688 h 10.01562 q 1.82813,0 3.125,1.29688 1.29688,1.29687 1.29688,3.125 v 6.96875 h -14.65625 v 1.85937 q 0,0.89063 0.10937,1.01563 0.10938,0.10937 1,0.10937 h 13.54688 v 4.1875 z m -0.21875,-10.9375 h 10.45312 v -2.3125 q 0,-0.89062 -0.10937,-1 -0.10938,-0.125 -1,-0.125 h -8.23438 q -0.89062,0 -1,0.125 -0.10937,0.10938 -0.10937,1 z"
       fill-rule="nonzero"
       id="path835" />
    <path
       fill="#34a5da"
       d="M 487.11023,594.5148 H 712.37006 V 747.71164 H 487.11023 Z"
       fill-rule="evenodd"
       id="path837" />
    <path
       stroke="#34a5da"
       stroke-width="4"
       stroke-linejoin="round"
       stroke-linecap="butt"
       d="M 487.11023,594.5148 H 712.37006 V 747.71164 H 487.11023 Z"
       fill-rule="evenodd"
       id="path839" />
    <path
       fill="#ffffff"
       d="m 560.6409,663.8332 v -23.04687 h 4.64062 l 8.34375,9.95312 8.32813,-9.95312 h 4.67187 v 23.04687 h -4.26562 v -16.89062 l -8.73438,10.39062 -8.76562,-10.35937 v 16.85937 z m 33.75336,0 q -1.82813,0 -3.125,-1.29687 -1.29688,-1.29688 -1.29688,-3.125 v -6.96875 h 14.65625 v -1.85938 q 0,-0.89062 -0.10937,-1 -0.10938,-0.125 -1,-0.125 h -13.54688 v -4.1875 h 14.4375 q 1.82813,0 3.125,1.29688 1.29688,1.29687 1.29688,3.125 v 14.14062 z m 0.89062,-4.1875 h 9.34375 v -3.42187 h -10.45312 v 2.29687 q 0,0.89063 0.10937,1.01563 0.10938,0.10937 1,0.10937 z m 16.89551,4.1875 v -18.5625 h 4.20312 v 18.5625 z m 0,-20.42187 v -4.21875 h 4.20312 v 4.21875 z m 7.91815,20.42187 v -18.5625 h 14.42188 q 1.82812,0 3.125,1.29688 1.29687,1.29687 1.29687,3.125 v 14.14062 h -4.1875 v -13.25 q 0,-0.89062 -0.125,-1 -0.10937,-0.125 -1,-0.125 h -8.21875 q -0.90625,0 -1.01562,0.125 -0.10938,0.10938 -0.10938,1 v 13.25 z"
       fill-rule="nonzero"
       id="path841" />
    <path
       fill="#ffffff"
       d="m 529.9369,701.8332 v -23.04687 h 4.64063 l 8.34375,9.95312 8.32812,-9.95312 h 4.67188 v 23.04687 h -4.26563 v -16.89062 l -8.73437,10.39062 -8.76563,-10.35937 v 16.85937 z m 33.94605,0 q -1.82813,0 -3.125,-1.29687 -1.29688,-1.29688 -1.29688,-3.125 v -9.71875 q 0,-1.82813 1.29688,-3.125 1.29687,-1.29688 3.125,-1.29688 h 10.01562 q 1.82813,0 3.125,1.29688 1.29688,1.29687 1.29688,3.125 v 6.96875 H 563.6642 v 1.85937 q 0,0.89063 0.10937,1.01563 0.10938,0.10937 1,0.10937 h 13.54688 v 4.1875 z m -0.21875,-10.9375 h 10.45312 v -2.3125 q 0,-0.89062 -0.10937,-1 -0.10938,-0.125 -1,-0.125 h -8.23438 q -0.89062,0 -1,0.125 -0.10937,0.10938 -0.10937,1 z m 18.05029,10.9375 v -18.5625 h 23 q 1.82812,0 3.125,1.29688 1.29687,1.29687 1.29687,3.125 v 14.14062 h -4.17187 v -13.25 q 0,-0.89062 -0.125,-1 -0.125,-0.125 -0.98438,-0.125 h -5.1875 q -0.89062,0 -1.01562,0.125 -0.10938,0.10938 -0.10938,1 v 13.25 h -4.21875 v -13.25 q 0,-0.89062 -0.10937,-1 -0.10938,-0.125 -1.01563,-0.125 h -5.17187 q -0.90625,0 -1.01563,0.125 -0.10937,0.10938 -0.10937,1 v 13.25 z m 35.60858,0 q -1.82813,0 -3.125,-1.29687 -1.29688,-1.29688 -1.29688,-3.125 v -9.71875 q 0,-1.82813 1.29688,-3.125 1.29687,-1.29688 3.125,-1.29688 h 10.01562 q 1.82813,0 3.125,1.29688 1.29688,1.29687 1.29688,3.125 v 9.71875 q 0,1.82812 -1.29688,3.125 -1.29687,1.29687 -3.125,1.29687 z m 0.89062,-4.1875 h 8.23438 q 0.89062,0 1,-0.10937 0.10937,-0.125 0.10937,-1.01563 v -7.9375 q 0,-0.89062 -0.10937,-1 -0.10938,-0.125 -1,-0.125 h -8.23438 q -0.89062,0 -1,0.125 -0.10937,0.10938 -0.10937,1 v 7.9375 q 0,0.89063 0.10937,1.01563 0.10938,0.10937 1,0.10937 z m 16.15882,4.1875 v -14.14062 q 0,-1.82813 1.29687,-3.125 1.29688,-1.29688 3.125,-1.29688 h 10.3125 v 4.1875 h -9.42187 q -0.89063,0 -1,0.125 -0.10938,0.10938 -0.10938,1 v 13.25 z m 19.50091,6.875 v -4.21875 h 10.45313 q 0.875,0 0.98437,-0.10937 0.10938,-0.10938 0.10938,-1.01563 v -1.53125 h -10.23438 q -1.82812,0 -3.125,-1.29687 -1.29687,-1.29688 -1.29687,-3.125 V 683.3332 h 4.1875 v 13.1875 q 0,0.89063 0.10937,1.01563 0.125,0.10937 1.01563,0.10937 h 8.25 q 0.875,0 0.98437,-0.10937 0.10938,-0.125 0.10938,-1.01563 v -13.1875 h 4.1875 v 20.96875 q 0,1.8125 -1.28125,3.10938 -1.28125,1.29687 -3.09375,1.29687 z"
       fill-rule="nonzero"
       id="path843" />
    <path
       fill="#34a5da"
       d="m 15.596059,620.0477 v 0 c 0,-14.10169 11.431657,-25.53333 25.533321,-25.53333 h 408.11444 c 6.77185,0 13.26636,2.69013 18.05478,7.47852 4.78842,4.78845 7.47855,11.28296 7.47855,18.05481 v 102.13019 c 0,14.10169 -11.43167,25.53333 -25.53333,25.53333 H 41.129381 c -14.101664,0 -25.533321,-11.43165 -25.533321,-25.53333 z"
       fill-rule="evenodd"
       id="path845" />
    <path
       stroke="#34a5da"
       stroke-width="4"
       stroke-linejoin="round"
       stroke-linecap="butt"
       d="m 15.596059,620.0477 v 0 c 0,-14.10169 11.431657,-25.53333 25.533321,-25.53333 h 408.11444 c 6.77185,0 13.26636,2.69013 18.05478,7.47852 4.78842,4.78845 7.47855,11.28296 7.47855,18.05481 v 102.13019 c 0,14.10169 -11.43167,25.53333 -25.53333,25.53333 H 41.129381 c -14.101664,0 -25.533321,-11.43165 -25.533321,-25.53333 z"
       fill-rule="evenodd"
       id="path847" />
    <path
       fill="#ffffff"
       d="M 43.319447,617.9934 H 268.58244 v 54.56909 L 155.95094,686.20482 43.319452,672.56249 Z"
       fill-rule="evenodd"
       id="path849" />
    <path
       stroke="#000000"
       stroke-width="4"
       stroke-linejoin="round"
       stroke-linecap="butt"
       d="M 43.319447,617.9934 H 268.58244 v 54.56909 L 155.95094,686.20482 43.319452,672.56249 Z"
       fill-rule="evenodd"
       id="path851" />
    <path
       fill="#000000"
       d="m 94.396065,634.3986 2.03125,0.51562 q -0.640625,2.48438 -2.296875,3.79688 -1.640625,1.3125 -4.03125,1.3125 -2.46875,0 -4.015625,-1 -1.546875,-1.01563 -2.359375,-2.92188 -0.796875,-1.90625 -0.796875,-4.09375 0,-2.39062 0.90625,-4.15625 0.921875,-1.78125 2.59375,-2.70312 1.6875,-0.92188 3.703125,-0.92188 2.296875,0 3.859375,1.17188 1.5625,1.17187 2.171875,3.28125 l -1.984375,0.46875 q -0.53125,-1.67188 -1.546875,-2.42188 -1,-0.76562 -2.53125,-0.76562 -1.765625,0 -2.953125,0.84375 -1.171875,0.84375 -1.65625,2.26562 -0.484375,1.42188 -0.484375,2.92188 0,1.95312 0.5625,3.40625 0.578125,1.45312 1.765625,2.17187 1.203125,0.71875 2.609375,0.71875 1.6875,0 2.859375,-0.96875 1.1875,-0.98437 1.59375,-2.92187 z m 3.574371,-0.17188 q 0,-3.07812 1.71875,-4.54687 1.421874,-1.23438 3.468754,-1.23438 2.28125,0 3.71875,1.5 1.45312,1.48438 1.45312,4.125 0,2.14063 -0.64062,3.35938 -0.625,1.21875 -1.85938,1.90625 -1.21875,0.67187 -2.67187,0.67187 -2.3125,0 -3.750004,-1.48437 -1.4375,-1.5 -1.4375,-4.29688 z m 1.9375,0 q 0,2.125 0.921874,3.1875 0.92188,1.04688 2.32813,1.04688 1.40625,0 2.32812,-1.0625 0.92188,-1.0625 0.92188,-3.23438 0,-2.04687 -0.9375,-3.10937 -0.92188,-1.0625 -2.3125,-1.0625 -1.40625,0 -2.32813,1.0625 -0.921874,1.04687 -0.921874,3.17187 z m 10.627324,5.53125 v -11.0625 h 1.67187 v 1.54688 q 0.53125,-0.8125 1.39063,-1.29688 0.85937,-0.5 1.96875,-0.5 1.23437,0 2.01562,0.51563 0.78125,0.5 1.10938,1.42187 1.3125,-1.9375 3.40625,-1.9375 1.65625,0 2.53125,0.92188 0.89062,0.90625 0.89062,2.79687 v 7.59375 h -1.85937 v -6.96875 q 0,-1.125 -0.1875,-1.60937 -0.1875,-0.5 -0.67188,-0.79688 -0.46875,-0.3125 -1.10937,-0.3125 -1.17188,0 -1.9375,0.78125 -0.76563,0.76563 -0.76563,2.48438 v 6.42187 h -1.875 v -7.1875 q 0,-1.25 -0.46875,-1.875 -0.45312,-0.625 -1.5,-0.625 -0.78125,0 -1.45312,0.42188 -0.67188,0.40625 -0.98438,1.21875 -0.29687,0.79687 -0.29687,2.3125 v 5.73437 z m 17.7665,0 v -11.0625 h 1.67187 v 1.54688 q 0.53125,-0.8125 1.39063,-1.29688 0.85937,-0.5 1.96875,-0.5 1.23437,0 2.01562,0.51563 0.78125,0.5 1.10938,1.42187 1.3125,-1.9375 3.40625,-1.9375 1.65625,0 2.53125,0.92188 0.89062,0.90625 0.89062,2.79687 v 7.59375 h -1.85937 v -6.96875 q 0,-1.125 -0.1875,-1.60937 -0.1875,-0.5 -0.67188,-0.79688 -0.46875,-0.3125 -1.10937,-0.3125 -1.17188,0 -1.9375,0.78125 -0.76563,0.76563 -0.76563,2.48438 v 6.42187 h -1.875 v -7.1875 q 0,-1.25 -0.46875,-1.875 -0.45312,-0.625 -1.5,-0.625 -0.78125,0 -1.45312,0.42188 -0.67188,0.40625 -0.98438,1.21875 -0.29687,0.79687 -0.29687,2.3125 v 5.73437 z m 25.01649,0 v -1.625 q -1.29687,1.875 -3.51562,1.875 -0.96875,0 -1.82813,-0.375 -0.84375,-0.375 -1.26562,-0.9375 -0.40625,-0.57812 -0.5625,-1.39062 -0.125,-0.5625 -0.125,-1.75 v -6.85938 h 1.875 v 6.14063 q 0,1.46875 0.125,1.96875 0.17187,0.75 0.73437,1.17187 0.57813,0.42188 1.42188,0.42188 0.84375,0 1.57812,-0.4375 0.75,-0.4375 1.04688,-1.17188 0.3125,-0.75 0.3125,-2.17187 v -5.92188 h 1.875 v 11.0625 z m 4.6117,0 v -11.0625 h 1.6875 v 1.57813 q 1.21875,-1.82813 3.51562,-1.82813 1,0 1.84375,0.35938 0.84375,0.35937 1.25,0.95312 0.42188,0.57813 0.59375,1.375 0.0937,0.51563 0.0937,1.82813 v 6.79687 h -1.875 v -6.73437 q 0,-1.14063 -0.21875,-1.70313 -0.21875,-0.57812 -0.78125,-0.90625 -0.54687,-0.34375 -1.29687,-0.34375 -1.20313,0 -2.07813,0.76563 -0.85937,0.75 -0.85937,2.875 v 6.04687 z m 11.87732,-13.10937 v -2.15625 h 1.875 v 2.15625 z m 0,13.10937 v -11.0625 h 1.875 v 11.0625 z m 11.94155,-4.04687 1.84375,0.23437 q -0.29687,1.90625 -1.54687,2.98438 -1.25,1.07812 -3.0625,1.07812 -2.26563,0 -3.65625,-1.48437 -1.375,-1.48438 -1.375,-4.25 0,-1.79688 0.59375,-3.14063 0.59375,-1.34375 1.8125,-2.01562 1.21875,-0.67188 2.64062,-0.67188 1.79688,0 2.9375,0.92188 1.15625,0.90625 1.48438,2.57812 l -1.82813,0.28125 q -0.26562,-1.10937 -0.92187,-1.67187 -0.65625,-0.5625 -1.59375,-0.5625 -1.42188,0 -2.3125,1.01562 -0.875,1.01563 -0.875,3.20313 0,2.23437 0.84375,3.25 0.85937,1 2.23437,1 1.10938,0 1.84375,-0.67188 0.73438,-0.67187 0.9375,-2.07812 z m 10.66407,2.6875 q -1.04688,0.875 -2.01563,1.25 -0.95312,0.35937 -2.0625,0.35937 -1.8125,0 -2.79687,-0.89062 -0.98438,-0.89063 -0.98438,-2.28125 0,-0.8125 0.375,-1.48438 0.375,-0.67187 0.96875,-1.07812 0.59375,-0.40625 1.34375,-0.60938 0.5625,-0.14062 1.67188,-0.28125 2.26562,-0.26562 3.34375,-0.64062 0.0156,-0.39063 0.0156,-0.5 0,-1.14063 -0.53125,-1.60938 -0.71875,-0.64062 -2.14062,-0.64062 -1.32813,0 -1.95313,0.46875 -0.625,0.46875 -0.9375,1.64062 l -1.82812,-0.25 q 0.25,-1.17187 0.8125,-1.89062 0.57812,-0.73438 1.65625,-1.125 1.09375,-0.39063 2.51562,-0.39063 1.42188,0 2.29688,0.34375 0.89062,0.32813 1.3125,0.82813 0.42187,0.5 0.57812,1.28125 0.0937,0.46875 0.0937,1.71875 v 2.5 q 0,2.625 0.125,3.3125 0.125,0.6875 0.46875,1.32812 h -1.95312 q -0.29688,-0.57812 -0.375,-1.35937 z m -0.15625,-4.1875 q -1.01563,0.40625 -3.0625,0.70312 -1.15625,0.17188 -1.64063,0.375 -0.46875,0.20313 -0.73437,0.60938 -0.26563,0.40625 -0.26563,0.89062 0,0.75 0.5625,1.25 0.57813,0.5 1.67188,0.5 1.07812,0 1.92187,-0.46875 0.84375,-0.48437 1.25,-1.29687 0.29688,-0.64063 0.29688,-1.875 z m 8.89294,3.875 0.26563,1.65625 q -0.78125,0.15625 -1.40625,0.15625 -1.03125,0 -1.59375,-0.3125 -0.5625,-0.32813 -0.79688,-0.84375 -0.21875,-0.53125 -0.21875,-2.21875 v -6.375 h -1.375 v -1.45313 h 1.375 v -2.73437 l 1.85938,-1.125 v 3.85937 h 1.89062 v 1.45313 h -1.89062 v 6.46875 q 0,0.8125 0.0937,1.04687 0.10937,0.21875 0.32812,0.35938 0.23438,0.125 0.64063,0.125 0.3125,0 0.82812,-0.0625 z m 1.8475,-11.4375 v -2.15625 h 1.875 v 2.15625 z m 0,13.10937 v -11.0625 h 1.875 v 11.0625 z m 4.01969,-5.53125 q 0,-3.07812 1.71875,-4.54687 1.42187,-1.23438 3.46875,-1.23438 2.28125,0 3.71875,1.5 1.45312,1.48438 1.45312,4.125 0,2.14063 -0.64062,3.35938 -0.625,1.21875 -1.85938,1.90625 -1.21875,0.67187 -2.67187,0.67187 -2.3125,0 -3.75,-1.48437 -1.4375,-1.5 -1.4375,-4.29688 z m 1.9375,0 q 0,2.125 0.92187,3.1875 0.92188,1.04688 2.32813,1.04688 1.40625,0 2.32812,-1.0625 0.92188,-1.0625 0.92188,-3.23438 0,-2.04687 -0.9375,-3.10937 -0.92188,-1.0625 -2.3125,-1.0625 -1.40625,0 -2.32813,1.0625 -0.92187,1.04687 -0.92187,3.17187 z m 10.62732,5.53125 v -11.0625 h 1.6875 v 1.57813 q 1.21875,-1.82813 3.51562,-1.82813 1,0 1.84375,0.35938 0.84375,0.35937 1.25,0.95312 0.42188,0.57813 0.59375,1.375 0.0937,0.51563 0.0937,1.82813 v 6.79687 h -1.875 v -6.73437 q 0,-1.14063 -0.21875,-1.70313 -0.21875,-0.57812 -0.78125,-0.90625 -0.54687,-0.34375 -1.29687,-0.34375 -1.20313,0 -2.07813,0.76563 -0.85937,0.75 -0.85937,2.875 v 6.04687 z"
       fill-rule="nonzero"
       id="path853" />
    <path
       fill="#000000"
       d="m 119.6633,665.758 v -15.26562 h 5.26563 q 1.78125,0 2.71875,0.21875 1.31249,0.29687 2.23437,1.09375 1.20312,1.01562 1.79687,2.60937 0.60938,1.57813 0.60938,3.625 0,1.73438 -0.40625,3.07813 -0.40625,1.34375 -1.04688,2.23437 -0.625,0.875 -1.39062,1.39063 -0.75,0.5 -1.8125,0.76562 -1.0625,0.25 -2.45313,0.25 z m 2.03125,-1.79687 h 3.25 q 1.51563,0 2.375,-0.28125 0.85937,-0.28125 1.375,-0.79688 0.70312,-0.71875 1.10937,-1.92187 0.40625,-1.21875 0.40625,-2.95313 0,-2.39062 -0.79687,-3.67187 -0.78125,-1.29688 -1.90625,-1.73438 -0.8125,-0.3125 -2.60938,-0.3125 h -3.20312 z m 20.715,-1.76563 1.92187,0.23438 q -0.45312,1.70312 -1.6875,2.64062 -1.23437,0.9375 -3.17187,0.9375 -2.42188,0 -3.84375,-1.48437 -1.42188,-1.5 -1.42188,-4.20313 0,-2.79687 1.4375,-4.32812 1.4375,-1.54688 3.73438,-1.54688 2.21875,0 3.60937,1.51563 1.40625,1.5 1.40625,4.25 0,0.15625 0,0.5 h -8.25 q 0.10938,1.8125 1.03125,2.78125 0.92188,0.96875 2.3125,0.96875 1.03125,0 1.75,-0.53125 0.73438,-0.54688 1.17188,-1.73438 z m -6.15625,-3.03125 h 6.17187 q -0.125,-1.39062 -0.70312,-2.09375 -0.90625,-1.07812 -2.32813,-1.07812 -1.29687,0 -2.17187,0.85937 -0.875,0.85938 -0.96875,2.3125 z m 13.51794,6.59375 -4.21875,-11.0625 h 1.98437 l 2.375,6.625 q 0.39063,1.07813 0.70313,2.23438 0.25,-0.875 0.70312,-2.10938 l 2.45313,-6.75 h 1.9375 l -4.1875,11.0625 z m 7.60156,-13.10937 v -2.15625 h 1.875 v 2.15625 z m 0,13.10937 v -11.0625 h 1.875 v 11.0625 z m 11.94156,-4.04687 1.84375,0.23437 q -0.29687,1.90625 -1.54687,2.98438 -1.25,1.07812 -3.0625,1.07812 -2.26563,0 -3.65625,-1.48437 -1.375,-1.48438 -1.375,-4.25 0,-1.79688 0.59375,-3.14063 0.59375,-1.34375 1.8125,-2.01562 1.21875,-0.67188 2.64062,-0.67188 1.79688,0 2.9375,0.92188 1.15625,0.90625 1.48438,2.57812 l -1.82813,0.28125 q -0.26562,-1.10937 -0.92187,-1.67187 -0.65625,-0.5625 -1.59375,-0.5625 -1.42188,0 -2.3125,1.01562 -0.875,1.01563 -0.875,3.20313 0,2.23437 0.84375,3.25 0.85937,1 2.23437,1 1.10938,0 1.84375,-0.67188 0.73438,-0.67187 0.9375,-2.07812 z m 11.02344,0.48437 1.92187,0.23438 q -0.45312,1.70312 -1.6875,2.64062 -1.23437,0.9375 -3.17187,0.9375 -2.42188,0 -3.84375,-1.48437 -1.42188,-1.5 -1.42188,-4.20313 0,-2.79687 1.4375,-4.32812 1.4375,-1.54688 3.73438,-1.54688 2.21875,0 3.60937,1.51563 1.40625,1.5 1.40625,4.25 0,0.15625 0,0.5 h -8.25 q 0.10938,1.8125 1.03125,2.78125 0.92188,0.96875 2.3125,0.96875 1.03125,0 1.75,-0.53125 0.73438,-0.54688 1.17188,-1.73438 z m -6.15625,-3.03125 h 6.17187 q -0.125,-1.39062 -0.70312,-2.09375 -0.90625,-1.07812 -2.32813,-1.07812 -1.29687,0 -2.17187,0.85937 -0.875,0.85938 -0.96875,2.3125 z m 9.68982,3.29688 1.85937,-0.29688 q 0.15625,1.10938 0.85938,1.70313 0.71875,0.59375 2,0.59375 1.29687,0 1.92187,-0.51563 0.625,-0.53125 0.625,-1.23437 0,-0.64063 -0.5625,-1 -0.375,-0.25 -1.90625,-0.64063 -2.0625,-0.51562 -2.85937,-0.89062 -0.79688,-0.39063 -1.21875,-1.0625 -0.40625,-0.67188 -0.40625,-1.48438 0,-0.73437 0.32812,-1.35937 0.34375,-0.64063 0.9375,-1.0625 0.4375,-0.3125 1.1875,-0.53125 0.75,-0.23438 1.625,-0.23438 1.29688,0 2.28125,0.375 0.98438,0.375 1.45313,1.01563 0.46875,0.64062 0.64062,1.71875 l -1.82812,0.25 q -0.125,-0.85938 -0.73438,-1.32813 -0.59375,-0.48437 -1.6875,-0.48437 -1.28125,0 -1.84375,0.42187 -0.54687,0.42188 -0.54687,1 0,0.35938 0.23437,0.65625 0.21875,0.29688 0.71875,0.5 0.28125,0.10938 1.65625,0.48438 1.98438,0.53125 2.76563,0.875 0.79687,0.32812 1.23437,0.98437 0.45313,0.64063 0.45313,1.59375 0,0.9375 -0.54688,1.76563 -0.54687,0.82812 -1.57812,1.28125 -1.03125,0.45312 -2.32813,0.45312 -2.15625,0 -3.29687,-0.89062 -1.125,-0.90625 -1.4375,-2.65625 z"
       fill-rule="nonzero"
       id="path855" />
    <path
       fill="#ffffff"
       d="m 287.6412,619.146 v 0 c 0,5.29242 35.68326,9.5827 79.70078,9.5827 44.01754,0 79.7008,-4.29028 79.7008,-9.5827 v 57.49609 c 0,5.29236 -35.68326,9.58271 -79.7008,9.58271 -44.01752,0 -79.70078,-4.29035 -79.70078,-9.58271 z"
       fill-rule="evenodd"
       id="path857" />
    <path
       fill="#ffffff"
       d="m 287.6412,619.146 v 0 c 0,-5.29236 35.68326,-9.58264 79.70078,-9.58264 44.01754,0 79.7008,4.29028 79.7008,9.58264 v 0 c 0,5.29242 -35.68326,9.5827 -79.7008,9.5827 -44.01752,0 -79.70078,-4.29028 -79.70078,-9.5827 z"
       fill-rule="evenodd"
       id="path859" />
    <path
       fill="#000000"
       fill-opacity="0"
       d="m 447.0428,619.146 v 0 c 0,5.29242 -35.68326,9.5827 -79.70081,9.5827 -44.01751,0 -79.70077,-4.29028 -79.70077,-9.5827 v 0 c 0,-5.29236 35.68326,-9.58264 79.70077,-9.58264 44.01755,0 79.70081,4.29028 79.70081,9.58264 v 57.49609 c 0,5.29236 -35.68326,9.58271 -79.70081,9.58271 -44.01751,0 -79.70077,-4.29035 -79.70077,-9.58271 V 619.146"
       fill-rule="evenodd"
       id="path861" />
    <path
       stroke="#000000"
       stroke-width="4"
       stroke-linejoin="round"
       stroke-linecap="butt"
       d="m 447.0428,619.146 v 0 c 0,5.29242 -35.68326,9.5827 -79.70081,9.5827 -44.01751,0 -79.70077,-4.29028 -79.70077,-9.5827 v 0 c 0,-5.29236 35.68326,-9.58264 79.70077,-9.58264 44.01755,0 79.70081,4.29028 79.70081,9.58264 v 57.49609 c 0,5.29236 -35.68326,9.58271 -79.70081,9.58271 -44.01751,0 -79.70077,-4.29035 -79.70077,-9.58271 V 619.146"
       fill-rule="evenodd"
       id="path863" />
    <path
       fill="#000000"
       d="m 330.94482,642.25916 1.90625,-0.17188 q 0.14062,1.15625 0.625,1.89063 0.5,0.73437 1.54687,1.1875 1.04688,0.45312 2.34375,0.45312 1.15625,0 2.03125,-0.34375 0.89063,-0.34375 1.3125,-0.9375 0.4375,-0.60937 0.4375,-1.3125 0,-0.71875 -0.42187,-1.25 -0.40625,-0.54687 -1.35938,-0.90625 -0.60937,-0.25 -2.71875,-0.75 -2.10937,-0.5 -2.95312,-0.95312 -1.09375,-0.57813 -1.625,-1.42188 -0.53125,-0.84375 -0.53125,-1.89062 0,-1.15625 0.65625,-2.15625 0.65625,-1.01563 1.90625,-1.53125 1.26562,-0.53125 2.8125,-0.53125 1.6875,0 2.98437,0.54687 1.29688,0.54688 1.98438,1.60938 0.70312,1.0625 0.76562,2.40625 l -1.9375,0.15625 q -0.15625,-1.45313 -1.0625,-2.1875 -0.89062,-0.75 -2.65625,-0.75 -1.82812,0 -2.67187,0.67187 -0.84375,0.67188 -0.84375,1.625 0,0.8125 0.59375,1.34375 0.59375,0.53125 3.04687,1.09375 2.46875,0.5625 3.39063,0.96875 1.32812,0.625 1.95312,1.5625 0.64063,0.9375 0.64063,2.17188 0,1.21875 -0.70313,2.29687 -0.6875,1.07813 -2,1.6875 -1.29687,0.59375 -2.9375,0.59375 -2.07812,0 -3.48437,-0.60937 -1.39063,-0.60938 -2.1875,-1.8125 -0.79688,-1.21875 -0.84375,-2.75 z m 18.77258,3.23437 0.26563,1.65625 q -0.78125,0.15625 -1.40625,0.15625 -1.03125,0 -1.59375,-0.3125 -0.5625,-0.32812 -0.79688,-0.84375 -0.21875,-0.53125 -0.21875,-2.21875 v -6.375 h -1.375 v -1.45312 h 1.375 v -2.73438 l 1.85938,-1.125 v 3.85938 h 1.89062 v 1.45312 h -1.89062 v 6.46875 q 0,0.8125 0.0937,1.04688 0.10937,0.21875 0.32812,0.35937 0.23438,0.125 0.64063,0.125 0.3125,0 0.82812,-0.0625 z m 1.12876,-3.85937 q 0,-3.07813 1.71875,-4.54688 1.42187,-1.23437 3.46875,-1.23437 2.28125,0 3.71875,1.5 1.45312,1.48437 1.45312,4.125 0,2.14062 -0.64062,3.35937 -0.625,1.21875 -1.85938,1.90625 -1.21875,0.67188 -2.67187,0.67188 -2.3125,0 -3.75,-1.48438 -1.4375,-1.5 -1.4375,-4.29687 z m 1.9375,0 q 0,2.125 0.92187,3.1875 0.92188,1.04687 2.32813,1.04687 1.40625,0 2.32812,-1.0625 0.92188,-1.0625 0.92188,-3.23437 0,-2.04688 -0.9375,-3.10938 -0.92188,-1.0625 -2.3125,-1.0625 -1.40625,0 -2.32813,1.0625 -0.92187,1.04688 -0.92187,3.17188 z m 10.61169,5.53125 v -11.0625 h 1.6875 v 1.67187 q 0.64063,-1.17187 1.1875,-1.54687 0.54688,-0.375 1.20313,-0.375 0.95312,0 1.92187,0.60937 l -0.64062,1.73438 q -0.6875,-0.40625 -1.375,-0.40625 -0.60938,0 -1.10938,0.375 -0.48437,0.35937 -0.6875,1.01562 -0.3125,1 -0.3125,2.1875 v 5.79688 z m 14.33682,-1.35938 q -1.04687,0.875 -2.01562,1.25 -0.95313,0.35938 -2.0625,0.35938 -1.8125,0 -2.79688,-0.89063 -0.98437,-0.89062 -0.98437,-2.28125 0,-0.8125 0.375,-1.48437 0.375,-0.67188 0.96875,-1.07813 0.59375,-0.40625 1.34375,-0.60937 0.5625,-0.14063 1.67187,-0.28125 2.26563,-0.26563 3.34375,-0.64063 0.0156,-0.39062 0.0156,-0.5 0,-1.14062 -0.53125,-1.60937 -0.71875,-0.64063 -2.14063,-0.64063 -1.32812,0 -1.95312,0.46875 -0.625,0.46875 -0.9375,1.64063 l -1.82813,-0.25 q 0.25,-1.17188 0.8125,-1.89063 0.57813,-0.73437 1.65625,-1.125 1.09375,-0.39062 2.51563,-0.39062 1.42187,0 2.29687,0.34375 0.89063,0.32812 1.3125,0.82812 0.42188,0.5 0.57813,1.28125 0.0937,0.46875 0.0937,1.71875 v 2.5 q 0,2.625 0.125,3.3125 0.125,0.6875 0.46875,1.32813 h -1.95313 q -0.29687,-0.57813 -0.375,-1.35938 z m -0.15625,-4.1875 q -1.01562,0.40625 -3.0625,0.70313 -1.15625,0.17187 -1.64062,0.375 -0.46875,0.20312 -0.73438,0.60937 -0.26562,0.40625 -0.26562,0.89063 0,0.75 0.5625,1.25 0.57812,0.5 1.67187,0.5 1.07813,0 1.92188,-0.46875 0.84375,-0.48438 1.25,-1.29688 0.29687,-0.64062 0.29687,-1.875 z m 4.45545,6.46875 1.82812,0.26563 q 0.10938,0.84375 0.625,1.23437 0.70313,0.51563 1.90625,0.51563 1.3125,0 2.01563,-0.53125 0.70312,-0.51563 0.95312,-1.45313 0.15625,-0.5625 0.14063,-2.40625 -1.23438,1.45313 -3.0625,1.45313 -2.28125,0 -3.53125,-1.64063 -1.25,-1.65625 -1.25,-3.95312 0,-1.57813 0.5625,-2.92188 0.57812,-1.34375 1.67187,-2.0625 1.09375,-0.73437 2.5625,-0.73437 1.95313,0 3.21875,1.57812 v -1.32812 h 1.73438 v 9.5625 q 0,2.57812 -0.53125,3.65625 -0.51563,1.07812 -1.65625,1.70312 -1.14063,0.625 -2.8125,0.625 -1.98438,0 -3.20313,-0.89062 -1.21875,-0.89063 -1.17187,-2.67188 z m 1.54687,-6.65625 q 0,2.1875 0.85938,3.1875 0.875,1 2.17187,1 1.29688,0 2.17188,-1 0.875,-1 0.875,-3.125 0,-2.03125 -0.90625,-3.0625 -0.89063,-1.03125 -2.17188,-1.03125 -1.25,0 -2.125,1.01563 -0.875,1.01562 -0.875,3.01562 z m 18.2367,2.17188 1.92187,0.23437 q -0.45312,1.70313 -1.6875,2.64063 -1.23437,0.9375 -3.17187,0.9375 -2.42188,0 -3.84375,-1.48438 -1.42188,-1.5 -1.42188,-4.20312 0,-2.79688 1.4375,-4.32813 1.4375,-1.54687 3.73438,-1.54687 2.21875,0 3.60937,1.51562 1.40625,1.5 1.40625,4.25 0,0.15625 0,0.5 h -8.25 q 0.10938,1.8125 1.03125,2.78125 0.92188,0.96875 2.3125,0.96875 1.03125,0 1.75,-0.53125 0.73438,-0.54687 1.17188,-1.73437 z m -6.15625,-3.03125 h 6.17187 q -0.125,-1.39063 -0.70312,-2.09375 -0.90625,-1.07813 -2.32813,-1.07813 -1.29687,0 -2.17187,0.85938 -0.875,0.85937 -0.96875,2.3125 z"
       fill-rule="nonzero"
       id="path865" />
    <path
       fill="#000000"
       d="m 331.05435,673.1654 v -15.26563 h 5.26562 q 1.78125,0 2.71875,0.21875 1.3125,0.29688 2.23438,1.09375 1.20312,1.01563 1.79687,2.60938 0.60938,1.57812 0.60938,3.625 0,1.73437 -0.40625,3.07812 -0.40625,1.34375 -1.04688,2.23438 -0.625,0.875 -1.39062,1.39062 -0.75,0.5 -1.8125,0.76563 -1.0625,0.25 -2.45313,0.25 z m 2.03125,-1.79688 h 3.25 q 1.51562,0 2.375,-0.28125 0.85937,-0.28125 1.375,-0.79687 0.70312,-0.71875 1.10937,-1.92188 0.40625,-1.21875 0.40625,-2.95312 0,-2.39063 -0.79687,-3.67188 -0.78125,-1.29687 -1.90625,-1.73437 -0.8125,-0.3125 -2.60938,-0.3125 h -3.20312 z m 20.715,-1.76562 1.92187,0.23437 q -0.45312,1.70313 -1.6875,2.64063 -1.23437,0.9375 -3.17187,0.9375 -2.42188,0 -3.84375,-1.48438 -1.42188,-1.5 -1.42188,-4.20312 0,-2.79688 1.4375,-4.32813 1.4375,-1.54687 3.73438,-1.54687 2.21875,0 3.60937,1.51562 1.40625,1.5 1.40625,4.25 0,0.15625 0,0.5 h -8.25 q 0.10938,1.8125 1.03125,2.78125 0.92188,0.96875 2.3125,0.96875 1.03125,0 1.75,-0.53125 0.73438,-0.54687 1.17188,-1.73437 z m -6.15625,-3.03125 h 6.17187 q -0.125,-1.39063 -0.70312,-2.09375 -0.90625,-1.07813 -2.32813,-1.07813 -1.29687,0 -2.17187,0.85938 -0.875,0.85937 -0.96875,2.3125 z m 13.51794,6.59375 -4.21875,-11.0625 h 1.98437 l 2.375,6.625 q 0.39063,1.07812 0.70313,2.23437 0.25,-0.875 0.70312,-2.10937 l 2.45313,-6.75 h 1.9375 l -4.1875,11.0625 z m 7.60156,-13.10938 v -2.15625 h 1.875 v 2.15625 z m 0,13.10938 v -11.0625 h 1.875 v 11.0625 z m 11.94156,-4.04688 1.84375,0.23438 q -0.29687,1.90625 -1.54687,2.98437 -1.25,1.07813 -3.0625,1.07813 -2.26563,0 -3.65625,-1.48438 -1.375,-1.48437 -1.375,-4.25 0,-1.79687 0.59375,-3.14062 0.59375,-1.34375 1.8125,-2.01563 1.21875,-0.67187 2.64062,-0.67187 1.79688,0 2.9375,0.92187 1.15625,0.90625 1.48438,2.57813 l -1.82813,0.28125 q -0.26562,-1.10938 -0.92187,-1.67188 -0.65625,-0.5625 -1.59375,-0.5625 -1.42188,0 -2.3125,1.01563 -0.875,1.01562 -0.875,3.20312 0,2.23438 0.84375,3.25 0.85937,1 2.23437,1 1.10938,0 1.84375,-0.67187 0.73438,-0.67188 0.9375,-2.07813 z m 11.02344,0.48438 1.92187,0.23437 q -0.45312,1.70313 -1.6875,2.64063 -1.23437,0.9375 -3.17187,0.9375 -2.42188,0 -3.84375,-1.48438 -1.42188,-1.5 -1.42188,-4.20312 0,-2.79688 1.4375,-4.32813 1.4375,-1.54687 3.73438,-1.54687 2.21875,0 3.60937,1.51562 1.40625,1.5 1.40625,4.25 0,0.15625 0,0.5 h -8.25 q 0.10938,1.8125 1.03125,2.78125 0.92188,0.96875 2.3125,0.96875 1.03125,0 1.75,-0.53125 0.73438,-0.54687 1.17188,-1.73437 z m -6.15625,-3.03125 h 6.17187 q -0.125,-1.39063 -0.70312,-2.09375 -0.90625,-1.07813 -2.32813,-1.07813 -1.29687,0 -2.17187,0.85938 -0.875,0.85937 -0.96875,2.3125 z m 9.68982,3.29687 1.85937,-0.29687 q 0.15625,1.10937 0.85938,1.70312 0.71875,0.59375 2,0.59375 1.29687,0 1.92187,-0.51562 0.625,-0.53125 0.625,-1.23438 0,-0.64062 -0.5625,-1 -0.375,-0.25 -1.90625,-0.64062 -2.0625,-0.51563 -2.85937,-0.89063 -0.79688,-0.39062 -1.21875,-1.0625 -0.40625,-0.67187 -0.40625,-1.48437 0,-0.73438 0.32812,-1.35938 0.34375,-0.64062 0.9375,-1.0625 0.4375,-0.3125 1.1875,-0.53125 0.75,-0.23437 1.625,-0.23437 1.29688,0 2.28125,0.375 0.98438,0.375 1.45313,1.01562 0.46875,0.64063 0.64062,1.71875 l -1.82812,0.25 q -0.125,-0.85937 -0.73438,-1.32812 -0.59375,-0.48438 -1.6875,-0.48438 -1.28125,0 -1.84375,0.42188 -0.54687,0.42187 -0.54687,1 0,0.35937 0.23437,0.65625 0.21875,0.29687 0.71875,0.5 0.28125,0.10937 1.65625,0.48437 1.98438,0.53125 2.76563,0.875 0.79687,0.32813 1.23437,0.98438 0.45313,0.64062 0.45313,1.59375 0,0.9375 -0.54688,1.76562 -0.54687,0.82813 -1.57812,1.28125 -1.03125,0.45313 -2.32813,0.45313 -2.15625,0 -3.29687,-0.89063 -1.125,-0.90625 -1.4375,-2.65625 z"
       fill-rule="nonzero"
       id="path867" />
    <path
       fill="#000000"
       fill-opacity="0"
       d="M 44.460228,693.032 H 445.90905 v 56.81891 H 44.460228 Z"
       fill-rule="evenodd"
       id="path869" />
    <path
       fill="#ffffff"
       d="m 144.2647,731.752 v -23.04688 h 4.20312 V 731.752 Z m 5.37926,0 v -4.48438 l 15.14062,-18.48437 1.28125,-0.0781 v 4.42188 l -15.14062,18.53125 z m 22.6564,0 q -1.8125,0 -3.125,-1.3125 -1.3125,-1.3125 -1.3125,-3.14063 v -14.14062 q 0,-1.82813 1.3125,-3.14063 1.3125,-1.3125 3.125,-1.3125 h 14.14062 q 1.82813,0 3.14063,1.3125 1.3125,1.3125 1.3125,3.14063 v 14.14062 q 0,1.82813 -1.3125,3.14063 -1.3125,1.3125 -3.14063,1.3125 z m 0.90625,-4.25 h 12.3125 q 0.85937,0 0.98437,-0.10938 0.14063,-0.125 0.14063,-1.01562 v -12.28125 q 0,-0.90625 -0.14063,-1.01563 -0.125,-0.10937 -0.98437,-0.10937 h -12.3125 q -0.90625,0 -1.01563,0.10937 -0.10937,0.10938 -0.10937,1.01563 V 726.377 q 0,0.89062 0.10937,1.01562 0.10938,0.10938 1.01563,0.10938 z m 31.06934,4.25 v -23.04688 h 18.5625 q 1.84375,0 3.15625,1.3125 1.3125,1.3125 1.3125,3.14063 v 14.14062 q 0,1.82813 -1.3125,3.14063 -1.3125,1.3125 -3.15625,1.3125 z m 5.34375,-4.25 h 12.3125 q 0.875,0 1,-0.10938 0.125,-0.125 0.125,-1.01562 v -12.28125 q 0,-0.90625 -0.125,-1.01563 -0.125,-0.10937 -1,-0.10937 h -12.3125 q -0.90625,0 -1.01563,0.10937 -0.10937,0.10938 -0.10937,1.01563 V 726.377 q 0,0.89062 0.10937,1.01562 0.10938,0.10938 1.01563,0.10938 z m 25.5318,4.25 q -1.82813,0 -3.125,-1.29688 -1.29688,-1.29687 -1.29688,-3.125 v -9.71875 q 0,-1.82812 1.29688,-3.125 1.29687,-1.29687 3.125,-1.29687 h 10.01562 q 1.82813,0 3.125,1.29687 1.29688,1.29688 1.29688,3.125 v 6.96875 h -14.65625 v 1.85938 q 0,0.89062 0.10937,1.01562 0.10938,0.10938 1,0.10938 H 249.589 v 4.1875 z m -0.21875,-10.9375 h 10.45312 v -2.3125 q 0,-0.89063 -0.10937,-1 -0.10938,-0.125 -1,-0.125 h -8.23438 q -0.89062,0 -1,0.125 -0.10937,0.10937 -0.10937,1 z m 25.7189,10.9375 -10.20313,-18.5625 h 4.82813 l 7.32812,13.46875 7.29688,-13.46875 h 4.82812 L 264.4954,731.752 Z m 16.28531,0 v -18.5625 h 4.20312 v 18.5625 z m 0,-20.42188 v -4.21875 h 4.20312 v 4.21875 z m 11.55862,20.42188 q -1.82812,0 -3.125,-1.29688 -1.29687,-1.29687 -1.29687,-3.125 v -9.71875 q 0,-1.82812 1.29687,-3.125 1.29688,-1.29687 3.125,-1.29687 h 14.40625 v 4.1875 h -13.51562 q -0.89063,0 -1,0.125 -0.10938,0.10937 -0.10938,1 v 7.9375 q 0,0.89062 0.10938,1.01562 0.10937,0.10938 1,0.10938 h 13.54687 v 4.1875 z m 21.44007,0 q -1.82813,0 -3.125,-1.29688 -1.29688,-1.29687 -1.29688,-3.125 v -9.71875 q 0,-1.82812 1.29688,-3.125 1.29687,-1.29687 3.125,-1.29687 h 10.01562 q 1.82813,0 3.125,1.29687 1.29688,1.29688 1.29688,3.125 v 6.96875 H 309.7169 v 1.85938 q 0,0.89062 0.10937,1.01562 0.10938,0.10938 1,0.10938 h 13.54688 v 4.1875 z m -0.21875,-10.9375 h 10.45312 v -2.3125 q 0,-0.89063 -0.10937,-1 -0.10938,-0.125 -1,-0.125 h -8.23438 q -0.89062,0 -1,0.125 -0.10937,0.10937 -0.10937,1 z m 22.04504,10.9375 q -1.82813,0 -3.125,-1.29688 -1.29688,-1.29687 -1.29688,-3.125 V 726.627 h 4.20313 v 0.20312 q 0,0.5 0.10937,0.625 0.10938,0.10938 0.625,0.10938 h 8.98438 q 0.51562,0 0.625,-0.10938 0.10937,-0.125 0.10937,-0.625 v -1.51562 q 0,-0.5 -0.10937,-0.60938 -0.10938,-0.125 -0.625,-0.125 h -9.5 q -1.82813,0 -3.125,-1.3125 -1.29688,-1.3125 -1.29688,-3.09375 v -2.5625 q 0,-1.82812 1.29688,-3.125 1.29687,-1.29687 3.125,-1.29687 h 10.01562 q 1.82813,0 3.14063,1.29687 1.3125,1.29688 1.3125,3.125 v 0.70313 h -4.23438 v -0.1875 q 0,-0.51563 -0.10937,-0.625 -0.10938,-0.125 -0.625,-0.125 h -8.98438 q -0.51562,0 -0.625,0.125 -0.10937,0.10937 -0.10937,0.625 v 1.5 q 0,0.51562 0.10937,0.625 0.10938,0.10937 0.625,0.10937 h 9.5 q 1.82813,0 3.14063,1.3125 1.3125,1.3125 1.3125,3.10938 v 2.54687 q 0,1.82813 -1.3125,3.125 -1.3125,1.29688 -3.14063,1.29688 z"
       fill-rule="nonzero"
       id="path871" />
    <path
       fill="#34a5da"
       d="m 722.56696,671.11316 v 0 c 0,-42.30414 50.42609,-76.59839 112.62988,-76.59839 v 0 c 62.2038,0 112.62994,34.29425 112.62994,76.59839 v 0 c 0,42.30414 -50.42614,76.59845 -112.62994,76.59845 v 0 c -62.2038,0 -112.62988,-34.29431 -112.62988,-76.59845 z"
       fill-rule="evenodd"
       id="path873" />
    <path
       stroke="#34a5da"
       stroke-width="4"
       stroke-linejoin="round"
       stroke-linecap="butt"
       d="m 722.56696,671.11316 v 0 c 0,-42.30414 50.42609,-76.59839 112.62988,-76.59839 v 0 c 62.2038,0 112.62994,34.29425 112.62994,76.59839 v 0 c 0,42.30414 -50.42614,76.59845 -112.62994,76.59845 v 0 c -62.2038,0 -112.62988,-34.29431 -112.62988,-76.59845 z"
       fill-rule="evenodd"
       id="path875" />
    <path
       fill="#ffffff"
       d="m 802.3751,682.8332 q -1.8125,0 -3.125,-1.3125 -1.3125,-1.3125 -1.3125,-3.14062 v -14.14063 q 0,-1.82812 1.3125,-3.14062 1.3125,-1.3125 3.125,-1.3125 h 18.53125 v 4.26562 h -17.625 q -0.90625,0 -1.01563,0.10938 -0.10937,0.10937 -0.10937,1.01562 v 12.28125 q 0,0.89063 0.10937,1.01563 0.10938,0.10937 1.01563,0.10937 h 17.625 v 4.25 z m 21.86658,0 v -23.01562 h 18.5625 q 1.84375,0 3.15625,1.32812 1.3125,1.32813 1.3125,3.125 v 6.20313 q 0,1.82812 -1.3125,3.14062 -1.3125,1.3125 -3.15625,1.3125 l -14.34375,0.0312 v 7.875 z m 5.34375,-12.15625 h 12.3125 q 0.85937,0 0.98437,-0.0937 0.14063,-0.10937 0.14063,-1 V 665.177 q 0,-0.90625 -0.14063,-1.01562 -0.125,-0.10938 -0.98437,-0.10938 h -12.3125 q -0.90625,0 -1.01563,0.10938 -0.10937,0.10937 -0.10937,1.01562 v 4.40625 q 0,0.89063 0.10937,1 0.10938,0.0937 1.01563,0.0937 z m 24.34332,12.15625 q -1.8125,0 -3.125,-1.3125 -1.3125,-1.3125 -1.3125,-3.14062 V 659.78633 H 853.71 v 17.67187 q 0,0.89063 0.10938,1.01563 0.10937,0.10937 1.01562,0.10937 h 12.3125 q 0.85938,0 0.98438,-0.10937 0.14062,-0.125 0.14062,-1.01563 v -17.67187 h 4.25 v 18.59375 q 0,1.82812 -1.3125,3.14062 -1.3125,1.3125 -3.14062,1.3125 z"
       fill-rule="nonzero"
       id="path877" />
    <path
       fill="#d9ead3"
       d="M -1.1641525,5.685039e-4 H 958.80429 V 565.44942 H -1.1641525 Z"
       fill-rule="evenodd"
       id="path879" />
    <path
       stroke="#8abe5e"
       stroke-width="8"
       stroke-linejoin="round"
       stroke-linecap="butt"
       stroke-dasharray="8, 24"
       d="M -1.1641525,5.685039e-4 H 958.80429 V 565.44942 H -1.1641525 Z"
       fill-rule="evenodd"
       id="path881" />
    <path
       fill="#000000"
       fill-opacity="0"
       d="M 4.55364,495.02292 H 959.98668 V 551.8418 H 4.55364 Z"
       fill-rule="evenodd"
       id="path883" />
    <path
       fill="#000000"
       d="m 47.58016,533.7429 v -18.78125 h -9.40625 v -4.26563 h 23.046875 v 4.26563 H 51.83016 v 18.78125 z m 15.975555,0 v -24.64063 h 4.187504 v 6.07813 h 10.234375 q 1.796875,0 3.109375,1.29687 1.3125,1.29688 1.3125,3.125 v 14.14063 h -4.1875 v -13.25 q 0,-0.89063 -0.125,-1 -0.109375,-0.125 -1,-0.125 h -8.21875 q -0.90625,0 -1.015625,0.125 -0.109375,0.10937 -0.109375,1 v 13.25 z m 25.656544,0 q -1.828125,0 -3.125,-1.29688 -1.296875,-1.29687 -1.296875,-3.125 v -9.71875 q 0,-1.82812 1.296875,-3.125 1.296875,-1.29687 3.125,-1.29687 h 10.015625 q 1.828126,0 3.124996,1.29687 1.29688,1.29688 1.29688,3.125 v 6.96875 H 88.993509 v 1.85938 q 0,0.89062 0.109375,1.01562 0.109375,0.10938 1,0.10938 h 13.546876 v 4.1875 z m -0.21875,-10.9375 h 10.453125 v -2.3125 q 0,-0.89063 -0.109375,-1 -0.109375,-0.125 -1,-0.125 h -8.234375 q -0.890625,0 -1,0.125 -0.109375,0.10937 -0.109375,1 z m 34.529821,10.9375 -7.29688,-18.5625 h 4.4375 l 4.51563,10.95312 4.73436,-10.95312 h 4.35938 l 5.04687,11.01562 4.20313,-11.01562 h 4.4375 l -6.96875,18.5625 h -3.26563 l -5.59375,-12.39063 -5.34374,12.39063 z m 29.97705,0 q -1.82812,0 -3.125,-1.29688 -1.29687,-1.29687 -1.29687,-3.125 v -9.71875 q 0,-1.82812 1.29687,-3.125 1.29688,-1.29687 3.125,-1.29687 h 10.01563 q 1.82812,0 3.125,1.29687 1.29687,1.29688 1.29687,3.125 v 9.71875 q 0,1.82813 -1.29687,3.125 -1.29688,1.29688 -3.125,1.29688 z m 0.89063,-4.1875 h 8.23437 q 0.89063,0 1,-0.10938 0.10938,-0.125 0.10938,-1.01562 v -7.9375 q 0,-0.89063 -0.10938,-1 -0.10937,-0.125 -1,-0.125 h -8.23437 q -0.89063,0 -1,0.125 -0.10938,0.10937 -0.10938,1 v 7.9375 q 0,0.89062 0.10938,1.01562 0.10937,0.10938 1,0.10938 z m 16.1588,4.1875 v -14.14063 q 0,-1.82812 1.29687,-3.125 1.29688,-1.29687 3.125,-1.29687 h 10.3125 v 4.1875 h -9.42187 q -0.89063,0 -1,0.125 -0.10938,0.10937 -0.10938,1 v 13.25 z m 21.34991,0 q -1.82812,0 -3.125,-1.29688 -1.29687,-1.29687 -1.29687,-3.125 v -20.25 h 4.23437 v 19.35938 q 0,0.89062 0.10938,1.01562 0.10937,0.10938 0.96875,0.10938 h 2.85937 v 4.1875 z m 10.21414,0 q -1.82812,0 -3.125,-1.29688 -1.29687,-1.29687 -1.29687,-3.125 v -9.71875 q 0,-1.82812 1.29687,-3.125 1.29688,-1.29687 3.125,-1.29687 h 10.26563 v -6.07813 h 4.1875 v 24.64063 z m 0.92188,-4.1875 h 8.21875 q 0.90625,0 1.01562,-0.10938 0.10938,-0.125 0.10938,-1.01562 v -7.9375 q 0,-0.89063 -0.10938,-1 -0.10937,-0.125 -1.01562,-0.125 h -8.21875 q -0.89063,0 -1.01563,0.125 -0.10937,0.10937 -0.10937,1 v 7.9375 q 0,0.89062 0.10937,1.01562 0.125,0.10938 1.01563,0.10938 z m 31.10481,4.1875 q -1.82812,0 -3.125,-1.29688 -1.29687,-1.29687 -1.29687,-3.125 v -9.71875 q 0,-1.82812 1.29687,-3.125 1.29688,-1.29687 3.125,-1.29687 h 10.01563 q 1.82812,0 3.125,1.29687 1.29687,1.29688 1.29687,3.125 v 9.71875 q 0,1.82813 -1.29687,3.125 -1.29688,1.29688 -3.125,1.29688 z m 0.89063,-4.1875 h 8.23437 q 0.89063,0 1,-0.10938 0.10938,-0.125 0.10938,-1.01562 v -7.9375 q 0,-0.89063 -0.10938,-1 -0.10937,-0.125 -1,-0.125 h -8.23437 q -0.89063,0 -1,0.125 -0.10938,0.10937 -0.10938,1 v 7.9375 q 0,0.89062 0.10938,1.01562 0.10937,0.10938 1,0.10938 z m 16.90966,4.1875 v -20.21875 q 0,-1.82813 1.28125,-3.125 1.29688,-1.29688 3.12502,-1.29688 h 7.01562 v 4.21875 h -6.10937 q -0.90625,0 -1.01563,0.125 -0.10937,0.10938 -0.10937,0.96875 v 0.76563 h 7.23437 v 4.1875 h -7.23437 v 14.375 z m 23.50521,0 v -14.14063 q 0,-1.82812 1.29687,-3.125 1.29688,-1.29687 3.125,-1.29687 h 10.3125 v 4.1875 h -9.42187 q -0.89063,0 -1,0.125 -0.10938,0.10937 -0.10938,1 v 13.25 z m 21.60516,0 q -1.82812,0 -3.125,-1.29688 -1.28125,-1.29687 -1.28125,-3.125 V 515.1804 h 4.1875 v 13.25 q 0,0.89062 0.10938,1.01562 0.10937,0.10938 1.01562,0.10938 h 8.21875 q 0.89063,0 1,-0.10938 0.125,-0.125 0.125,-1.01562 v -13.25 h 4.1875 v 14.14062 q 0,1.82813 -1.29687,3.125 -1.29688,1.29688 -3.125,1.29688 z m 17.92905,0 v -18.5625 h 14.42187 q 1.82813,0 3.125,1.29687 1.29688,1.29688 1.29688,3.125 v 14.14063 h -4.1875 v -13.25 q 0,-0.89063 -0.125,-1 -0.10938,-0.125 -1,-0.125 h -8.21875 q -0.90625,0 -1.01563,0.125 -0.10937,0.10937 -0.10937,1 v 13.25 z m 22.27203,0 v -18.5625 h 14.42188 q 1.82812,0 3.125,1.29687 1.29687,1.29688 1.29687,3.125 v 14.14063 h -4.1875 v -13.25 q 0,-0.89063 -0.125,-1 -0.10937,-0.125 -1,-0.125 h -8.21875 q -0.90625,0 -1.01562,0.125 -0.10938,0.10937 -0.10938,1 v 13.25 z m 22.19391,0 v -18.5625 h 4.20313 v 18.5625 z m 0,-20.42188 v -4.21875 h 4.20313 v 4.21875 z m 7.91815,20.42188 v -18.5625 h 14.42188 q 1.82812,0 3.125,1.29687 1.29687,1.29688 1.29687,3.125 v 14.14063 h -4.1875 v -13.25 q 0,-0.89063 -0.125,-1 -0.10937,-0.125 -1,-0.125 h -8.21875 q -0.90625,0 -1.01562,0.125 -0.10938,0.10937 -0.10938,1 v 13.25 z m 24.73554,7.32812 v -4.21875 h 10.45312 q 0.875,0 0.98438,-0.125 0.10937,-0.10937 0.10937,-1 v -1.98437 h -10.23437 q -1.82813,0 -3.125,-1.29688 -1.29688,-1.29687 -1.29688,-3.125 v -9.71875 q 0,-1.82812 1.29688,-3.125 1.29687,-1.29687 3.125,-1.29687 h 10.04687 q 1.8125,0 3.09375,1.29687 1.28125,1.29688 1.28125,3.125 v 17.04688 q 0,1.82812 -1.28125,3.125 -1.28125,1.29687 -3.09375,1.29687 z m 2.20312,-11.51562 h 8.25 q 0.875,0 0.98438,-0.10938 0.10937,-0.125 0.10937,-1.01562 v -7.9375 q 0,-0.89063 -0.10937,-1 -0.10938,-0.125 -0.98438,-0.125 h -8.25 q -0.89062,0 -1.01562,0.125 -0.10938,0.10937 -0.10938,1 v 7.9375 q 0,0.89062 0.10938,1.01562 0.125,0.10938 1.01562,0.10938 z m 26.75745,11.54687 V 515.1804 h 14.42187 q 1.82813,0 3.125,1.29687 1.29688,1.29688 1.29688,3.125 v 9.71875 q 0,1.82813 -1.29688,3.125 -1.29687,1.29688 -3.125,1.29688 h -10.23437 v 7.35937 z m 5.3125,-11.54687 h 8.21875 q 0.89062,0 1,-0.10938 0.125,-0.125 0.125,-1.01562 v -7.9375 q 0,-0.89063 -0.125,-1 -0.10938,-0.125 -1,-0.125 h -8.21875 q -0.90625,0 -1.01563,0.125 -0.10937,0.10937 -0.10937,1 v 7.9375 q 0,0.89062 0.10937,1.01562 0.10938,0.10938 1.01563,0.10938 z m 15.85742,4.1875 v -14.14063 q 0,-1.82812 1.29688,-3.125 1.29687,-1.29687 3.125,-1.29687 h 10.3125 v 4.1875 h -9.42188 q -0.89062,0 -1,0.125 -0.10937,0.10937 -0.10937,1 v 13.25 z m 21.15866,0 q -1.82812,0 -3.125,-1.29688 -1.29687,-1.29687 -1.29687,-3.125 v -9.71875 q 0,-1.82812 1.29687,-3.125 1.29688,-1.29687 3.125,-1.29687 h 10.01563 q 1.82812,0 3.125,1.29687 1.29687,1.29688 1.29687,3.125 v 9.71875 q 0,1.82813 -1.29687,3.125 -1.29688,1.29688 -3.125,1.29688 z m 0.89063,-4.1875 h 8.23437 q 0.89063,0 1,-0.10938 0.10938,-0.125 0.10938,-1.01562 v -7.9375 q 0,-0.89063 -0.10938,-1 -0.10937,-0.125 -1,-0.125 h -8.23437 q -0.89063,0 -1,0.125 -0.10938,0.10937 -0.10938,1 v 7.9375 q 0,0.89062 0.10938,1.01562 0.10937,0.10938 1,0.10938 z m 19.62841,11.51562 v -4.21875 h 10.45313 q 0.875,0 0.98437,-0.125 0.10938,-0.10937 0.10938,-1 v -1.98437 h -10.23438 q -1.82812,0 -3.125,-1.29688 -1.29687,-1.29687 -1.29687,-3.125 v -9.71875 q 0,-1.82812 1.29687,-3.125 1.29688,-1.29687 3.125,-1.29687 h 10.04688 q 1.8125,0 3.09375,1.29687 1.28125,1.29688 1.28125,3.125 v 17.04688 q 0,1.82812 -1.28125,3.125 -1.28125,1.29687 -3.09375,1.29687 z m 2.20313,-11.51562 h 8.25 q 0.875,0 0.98437,-0.10938 0.10938,-0.125 0.10938,-1.01562 v -7.9375 q 0,-0.89063 -0.10938,-1 -0.10937,-0.125 -0.98437,-0.125 h -8.25 q -0.89063,0 -1.01563,0.125 -0.10937,0.10937 -0.10937,1 v 7.9375 q 0,0.89062 0.10937,1.01562 0.125,0.10938 1.01563,0.10938 z m 16.18332,4.1875 v -14.14063 q 0,-1.82812 1.29687,-3.125 1.29688,-1.29687 3.125,-1.29687 h 10.31247 v 4.1875 h -9.42184 q -0.89063,0 -1,0.125 -0.10938,0.10937 -0.10938,1 v 13.25 z m 21.57394,0 q -1.82812,0 -3.125,-1.29688 -1.29687,-1.29687 -1.29687,-3.125 v -6.96875 h 14.65625 v -1.85937 q 0,-0.89063 -0.10938,-1 -0.10937,-0.125 -1,-0.125 H 519.4466 v -4.1875 h 14.4375 q 1.82812,0 3.125,1.29687 1.29687,1.29688 1.29687,3.125 v 14.14063 z m 0.89063,-4.1875 h 9.34375 v -3.42188 h -10.45313 v 2.29688 q 0,0.89062 0.10938,1.01562 0.10937,0.10938 1,0.10938 z m 16.1416,4.1875 v -18.5625 h 23 q 1.82813,0 3.125,1.29687 1.29688,1.29688 1.29688,3.125 v 14.14063 h -4.17188 v -13.25 q 0,-0.89063 -0.125,-1 -0.125,-0.125 -0.98437,-0.125 h -5.1875 q -0.89063,0 -1.01563,0.125 -0.10937,0.10937 -0.10937,1 v 13.25 h -4.21875 v -13.25 q 0,-0.89063 -0.10938,-1 -0.10937,-0.125 -1.01562,-0.125 h -5.17188 q -0.90625,0 -1.01562,0.125 -0.10938,0.10937 -0.10938,1 v 13.25 z m 35.51489,0 q -1.82812,0 -3.125,-1.29688 -1.29687,-1.29687 -1.29687,-3.125 v -0.70312 h 4.20312 v 0.20312 q 0,0.5 0.10938,0.625 0.10937,0.10938 0.625,0.10938 h 8.98437 q 0.51563,0 0.625,-0.10938 0.10938,-0.125 0.10938,-0.625 v -1.51562 q 0,-0.5 -0.10938,-0.60938 -0.10937,-0.125 -0.625,-0.125 h -9.5 q -1.82812,0 -3.125,-1.3125 -1.29687,-1.3125 -1.29687,-3.09375 v -2.5625 q 0,-1.82812 1.29687,-3.125 1.29688,-1.29687 3.125,-1.29687 h 10.01563 q 1.82812,0 3.14062,1.29687 1.3125,1.29688 1.3125,3.125 v 0.70313 h -4.23437 v -0.1875 q 0,-0.51563 -0.10938,-0.625 -0.10937,-0.125 -0.625,-0.125 h -8.98437 q -0.51563,0 -0.625,0.125 -0.10938,0.10937 -0.10938,0.625 v 1.5 q 0,0.51562 0.10938,0.625 0.10937,0.10937 0.625,0.10937 h 9.5 q 1.82812,0 3.14062,1.3125 1.3125,1.3125 1.3125,3.10938 v 2.54687 q 0,1.82813 -1.3125,3.125 -1.3125,1.29688 -3.14062,1.29688 z m 27.44715,0 v -18.5625 h 4.20312 v 18.5625 z m 0,-20.42188 v -4.21875 h 4.20312 v 4.21875 z m 7.91821,20.42188 v -18.5625 h 14.42188 q 1.82812,0 3.125,1.29687 1.29687,1.29688 1.29687,3.125 v 14.14063 h -4.1875 v -13.25 q 0,-0.89063 -0.125,-1 -0.10937,-0.125 -1,-0.125 h -8.21875 q -0.90625,0 -1.01562,0.125 -0.10938,0.10937 -0.10938,1 v 13.25 z m 26.04273,0 q -1.82813,0 -3.125,-1.29688 -1.29688,-1.29687 -1.29688,-3.125 v -0.70312 h 4.20313 v 0.20312 q 0,0.5 0.10937,0.625 0.10938,0.10938 0.625,0.10938 h 8.98438 q 0.51562,0 0.625,-0.10938 0.10937,-0.125 0.10937,-0.625 v -1.51562 q 0,-0.5 -0.10937,-0.60938 -0.10938,-0.125 -0.625,-0.125 h -9.5 q -1.82813,0 -3.125,-1.3125 -1.29688,-1.3125 -1.29688,-3.09375 v -2.5625 q 0,-1.82812 1.29688,-3.125 1.29687,-1.29687 3.125,-1.29687 h 10.01562 q 1.82813,0 3.14063,1.29687 1.3125,1.29688 1.3125,3.125 v 0.70313 h -4.23438 v -0.1875 q 0,-0.51563 -0.10937,-0.625 -0.10938,-0.125 -0.625,-0.125 h -8.98438 q -0.51562,0 -0.625,0.125 -0.10937,0.10937 -0.10937,0.625 v 1.5 q 0,0.51562 0.10937,0.625 0.10938,0.10937 0.625,0.10937 h 9.5 q 1.82813,0 3.14063,1.3125 1.3125,1.3125 1.3125,3.10938 v 2.54687 q 0,1.82813 -1.3125,3.125 -1.3125,1.29688 -3.14063,1.29688 z m 17.65515,0 v -18.5625 h 4.20312 v 18.5625 z m 0,-20.42188 v -4.21875 h 4.20312 v 4.21875 z m 11.052,20.42188 q -1.82813,0 -3.125,-1.29688 -1.29688,-1.29687 -1.29688,-3.125 v -9.71875 q 0,-1.82812 1.29688,-3.125 1.29687,-1.29687 3.125,-1.29687 h 10.26562 v -6.07813 h 4.1875 v 24.64063 z m 0.92187,-4.1875 h 8.21875 q 0.90625,0 1.01563,-0.10938 0.10937,-0.125 0.10937,-1.01562 v -7.9375 q 0,-0.89063 -0.10937,-1 -0.10938,-0.125 -1.01563,-0.125 h -8.21875 q -0.89062,0 -1.01562,0.125 -0.10938,0.10937 -0.10938,1 v 7.9375 q 0,0.89062 0.10938,1.01562 0.125,0.10938 1.01562,0.10938 z m 20.60877,4.1875 q -1.82813,0 -3.125,-1.29688 -1.29688,-1.29687 -1.29688,-3.125 v -9.71875 q 0,-1.82812 1.29688,-3.125 1.29687,-1.29687 3.125,-1.29687 h 10.01562 q 1.82813,0 3.125,1.29687 1.29688,1.29688 1.29688,3.125 v 6.96875 h -14.65625 v 1.85938 q 0,0.89062 0.10937,1.01562 0.10938,0.10938 1,0.10938 h 13.54688 v 4.1875 z m -0.21875,-10.9375 h 10.45312 v -2.3125 q 0,-0.89063 -0.10937,-1 -0.10938,-0.125 -1,-0.125 h -8.23438 q -0.89062,0 -1,0.125 -0.10937,0.10937 -0.10937,1 z M 720.06,533.7429 q -1.82812,0 -3.125,-1.29688 -1.28125,-1.29687 -1.28125,-3.125 V 509.4929 h 4.1875 v 5.6875 h 7.23438 v 4.1875 h -7.23438 v 9.0625 q 0,0.89062 0.10938,1.01562 0.10937,0.10938 1.01562,0.10938 h 6.10938 v 4.1875 z m 10.1211,0 v -24.64063 h 4.1875 v 6.07813 h 10.23437 q 1.79688,0 3.10938,1.29687 1.3125,1.29688 1.3125,3.125 v 14.14063 h -4.1875 v -13.25 q 0,-0.89063 -0.125,-1 -0.10938,-0.125 -1,-0.125 h -8.21875 q -0.90625,0 -1.01563,0.125 -0.10937,0.10937 -0.10937,1 v 13.25 z m 25.65649,0 q -1.82812,0 -3.125,-1.29688 -1.29687,-1.29687 -1.29687,-3.125 v -9.71875 q 0,-1.82812 1.29687,-3.125 1.29688,-1.29687 3.125,-1.29687 h 10.01563 q 1.82812,0 3.125,1.29687 1.29687,1.29688 1.29687,3.125 v 6.96875 h -14.65625 v 1.85938 q 0,0.89062 0.10938,1.01562 0.10937,0.10938 1,0.10938 h 13.54687 v 4.1875 z m -0.21875,-10.9375 h 10.45313 v -2.3125 q 0,-0.89063 -0.10938,-1 -0.10937,-0.125 -1,-0.125 h -8.23437 q -0.89063,0 -1,0.125 -0.10938,0.10937 -0.10938,1 z m 27.90479,10.9375 v -23.04688 h 4.64062 l 8.34375,9.95313 8.32813,-9.95313 h 4.67187 v 23.04688 h -4.26562 v -16.89063 l -8.73438,10.39063 -8.76562,-10.35938 v 16.85938 z m 33.75329,0 q -1.82812,0 -3.125,-1.29688 -1.29687,-1.29687 -1.29687,-3.125 v -6.96875 h 14.65625 v -1.85937 q 0,-0.89063 -0.10938,-1 -0.10937,-0.125 -1,-0.125 h -13.54687 v -4.1875 h 14.4375 q 1.82812,0 3.125,1.29687 1.29687,1.29688 1.29687,3.125 v 14.14063 z m 0.89063,-4.1875 h 9.34375 v -3.42188 h -10.45313 v 2.29688 q 0,0.89062 0.10938,1.01562 0.10937,0.10938 1,0.10938 z m 20.42224,4.1875 q -1.82813,0 -3.125,-1.29688 -1.29688,-1.29687 -1.29688,-3.125 v -9.71875 q 0,-1.82812 1.29688,-3.125 1.29687,-1.29687 3.125,-1.29687 h 14.40625 v 4.1875 h -13.51563 q -0.89062,0 -1,0.125 -0.10937,0.10937 -0.10937,1 v 7.9375 q 0,0.89062 0.10937,1.01562 0.10938,0.10938 1,0.10938 h 13.54688 v 4.1875 z m 17.12756,0 v -24.64063 h 4.1875 v 6.07813 h 10.23438 q 1.79687,0 3.10937,1.29687 1.3125,1.29688 1.3125,3.125 v 14.14063 h -4.1875 v -13.25 q 0,-0.89063 -0.125,-1 -0.10937,-0.125 -1,-0.125 h -8.21875 q -0.90625,0 -1.01562,0.125 -0.10938,0.10937 -0.10938,1 v 13.25 z m 21.36182,0 v -18.5625 h 4.20312 v 18.5625 z m 0,-20.42188 v -4.21875 h 4.20312 v 4.21875 z m 7.91821,20.42188 v -18.5625 h 14.42188 q 1.82812,0 3.125,1.29687 1.29687,1.29688 1.29687,3.125 v 14.14063 h -4.1875 v -13.25 q 0,-0.89063 -0.125,-1 -0.10937,-0.125 -1,-0.125 h -8.21875 q -0.90625,0 -1.01562,0.125 -0.10938,0.10937 -0.10938,1 v 13.25 z m 25.91248,0 q -1.82813,0 -3.125,-1.29688 -1.29688,-1.29687 -1.29688,-3.125 v -9.71875 q 0,-1.82812 1.29688,-3.125 1.29687,-1.29687 3.125,-1.29687 h 10.01562 q 1.82813,0 3.125,1.29687 1.29688,1.29688 1.29688,3.125 v 6.96875 h -14.65625 v 1.85938 q 0,0.89062 0.10937,1.01562 0.10938,0.10938 1,0.10938 h 13.54688 v 4.1875 z m -0.21875,-10.9375 h 10.45312 v -2.3125 q 0,-0.89063 -0.10937,-1 -0.10938,-0.125 -1,-0.125 h -8.23438 q -0.89062,0 -1,0.125 -0.10937,0.10937 -0.10937,1 z"
       fill-rule="nonzero"
       id="path885" />
    <path
       fill="#8abe5e"
       d="m 71.314964,453.46362 v 0 c 0,-11.02216 42.932496,-21.59287 119.352836,-29.38669 76.42034,-7.79382 180.06856,-12.17236 288.14325,-12.17236 v 0 c 225.05383,0 407.49603,18.60663 407.49603,41.55905 v 0 c 0,22.95242 -182.4422,41.55905 -407.49603,41.55905 v 0 c -225.05388,0 -407.496056,-18.60663 -407.496056,-41.55905 z"
       fill-rule="evenodd"
       id="path887" />
    <path
       stroke="#8abe5e"
       stroke-width="4"
       stroke-linejoin="round"
       stroke-linecap="butt"
       d="m 71.314964,453.46362 v 0 c 0,-11.02216 42.932496,-21.59287 119.352836,-29.38669 76.42034,-7.79382 180.06856,-12.17236 288.14325,-12.17236 v 0 c 225.05383,0 407.49603,18.60663 407.49603,41.55905 v 0 c 0,22.95242 -182.4422,41.55905 -407.49603,41.55905 v 0 c -225.05388,0 -407.496056,-18.60663 -407.496056,-41.55905 z"
       fill-rule="evenodd"
       id="path889" />
    <path
       fill="#ffffff"
       d="m 378.10266,465.18362 q -1.8125,0 -3.125,-1.3125 -1.3125,-1.3125 -1.3125,-3.14062 v -18.59375 h 4.21875 v 17.67187 q 0,0.89063 0.10938,1.01563 0.10937,0.10937 1.01562,0.10937 h 12.3125 q 0.85938,0 0.98438,-0.10937 0.14062,-0.125 0.14062,-1.01563 v -17.67187 h 4.25 v 18.59375 q 0,1.82812 -1.3125,3.14062 -1.3125,1.3125 -3.14062,1.3125 z m 22.12106,0 v -23.04687 h 4.64063 l 14.14062,16.84375 v -16.84375 h 4.25 v 23.04687 h -4.64062 l -14.17188,-16.85937 v 16.85937 z m 26.48343,0 v -23.04687 h 4.20313 v 23.04687 z m 6.66049,0 v -1.1875 l 8.67188,-10.32812 -8.67188,-10.34375 v -1.1875 h 4.57813 l 6.90625,8.20312 6.85937,-8.20312 h 4.60938 v 1.1875 l -8.70313,10.34375 8.70313,10.29687 v 1.21875 h -4.60938 l -6.89062,-8.15625 -6.875,8.15625 z m 36.13547,0 v -23.04687 h 4.25 v 9.39062 h 5.40625 l 7.875,-9.39062 h 4.60938 v 1.21875 l -8.64063,10.3125 8.67188,10.29687 v 1.21875 h -4.64063 l -7.875,-9.375 h -5.40625 v 9.375 z m 29.72278,0 q -1.82813,0 -3.125,-1.29687 -1.29688,-1.29688 -1.29688,-3.125 V 451.043 q 0,-1.82813 1.29688,-3.125 1.29687,-1.29688 3.125,-1.29688 h 10.01562 q 1.82813,0 3.125,1.29688 1.29688,1.29687 1.29688,3.125 v 6.96875 h -14.65625 v 1.85937 q 0,0.89063 0.10937,1.01563 0.10938,0.10937 1,0.10937 h 13.54688 v 4.1875 z m -0.21875,-10.9375 h 10.45312 v -2.3125 q 0,-0.89062 -0.10937,-1 -0.10938,-0.125 -1,-0.125 h -8.23438 q -0.89062,0 -1,0.125 -0.10937,0.10938 -0.10937,1 z m 17.78021,10.9375 V 451.043 q 0,-1.82813 1.29688,-3.125 1.29687,-1.29688 3.125,-1.29688 h 10.3125 v 4.1875 h -9.42188 q -0.89062,0 -1,0.125 -0.10937,0.10938 -0.10937,1 v 13.25 z m 17.23017,0 v -18.5625 h 14.42187 q 1.82813,0 3.125,1.29688 1.29688,1.29687 1.29688,3.125 v 14.14062 h -4.1875 v -13.25 q 0,-0.89062 -0.125,-1 -0.10938,-0.125 -1,-0.125 h -8.21875 q -0.90625,0 -1.01563,0.125 -0.10937,0.10938 -0.10937,1 v 13.25 z m 25.91253,0 q -1.82812,0 -3.125,-1.29687 -1.29687,-1.29688 -1.29687,-3.125 V 451.043 q 0,-1.82813 1.29687,-3.125 1.29688,-1.29688 3.125,-1.29688 h 10.01563 q 1.82812,0 3.125,1.29688 1.29687,1.29687 1.29687,3.125 v 6.96875 H 559.7113 v 1.85937 q 0,0.89063 0.10938,1.01563 0.10937,0.10937 1,0.10937 h 13.54687 v 4.1875 z m -0.21875,-10.9375 h 10.45313 v -2.3125 q 0,-0.89062 -0.10938,-1 -0.10937,-0.125 -1,-0.125 h -8.23437 q -0.89063,0 -1,0.125 -0.10938,0.10938 -0.10938,1 z m 21.62604,10.9375 q -1.82812,0 -3.125,-1.29687 -1.29687,-1.29688 -1.29687,-3.125 v -20.25 h 4.23437 v 19.35937 q 0,0.89063 0.10938,1.01563 0.10937,0.10937 0.96875,0.10937 h 2.85937 v 4.1875 z"
       fill-rule="nonzero"
       id="path891" />
    <path
       fill="#000000"
       fill-opacity="0"
       d="M 915.1575,756.83203 H 155.9449 v -70.6142"
       fill-rule="evenodd"
       id="path893" />
    <path
       stroke="#ff0000"
       stroke-width="16"
       stroke-linejoin="round"
       stroke-linecap="butt"
       d="M 915.1575,756.83203 H 155.9449 v -70.6142"
       fill-rule="evenodd"
       id="path895" />
    <path
       fill="#ff0000"
       d="m 915.1575,737.68243 48.59845,19.1496 -48.59845,19.14959 z"
       fill-rule="evenodd"
       id="path897" />
    <path
       stroke="#ff0000"
       stroke-width="1"
       stroke-linejoin="round"
       stroke-linecap="butt"
       d="m 915.1575,737.68243 48.59845,19.1496 -48.59845,19.14959 z"
       fill-rule="evenodd"
       id="path899" />
    <path
       fill="#000000"
       fill-opacity="0"
       d="m 599.6155,269.53366 v 271.8425 H 127.26906"
       fill-rule="evenodd"
       id="path901" />
    <path
       stroke="#ff0000"
       stroke-width="16"
       stroke-linejoin="round"
       stroke-linecap="butt"
       stroke-dasharray="16, 48"
       d="m 599.6155,269.53366 v 271.8425 H 127.26906"
       fill-rule="evenodd"
       id="path903" />
    <path
       fill="#8abe5e"
       d="m 512.7808,190.21083 v 0 c 0,-43.80879 38.8772,-79.32283 86.83466,-79.32283 v 0 c 47.95746,0 86.83465,35.51404 86.83465,79.32283 v 0 c 0,43.80879 -38.8772,79.32283 -86.83465,79.32283 v 0 c -47.95746,0 -86.83466,-35.51404 -86.83466,-79.32283 z"
       fill-rule="evenodd"
       id="path905" />
    <path
       stroke="#8abe5e"
       stroke-width="4"
       stroke-linejoin="round"
       stroke-linecap="butt"
       d="m 512.7808,190.21083 v 0 c 0,-43.80879 38.8772,-79.32283 86.83466,-79.32283 v 0 c 47.95746,0 86.83465,35.51404 86.83465,79.32283 v 0 c 0,43.80879 -38.8772,79.32283 -86.83465,79.32283 v 0 c -47.95746,0 -86.83466,-35.51404 -86.83466,-79.32283 z"
       fill-rule="evenodd"
       id="path907" />
    <path
       fill="#ffffff"
       d="m 560.63605,201.93083 q -1.82813,0 -3.14063,-1.3125 -1.29687,-1.3125 -1.29687,-3.14063 v -1.75 h 4.21875 v 0.82813 q 0,0.89062 0.10937,1.01562 0.10938,0.10938 1.01563,0.10938 h 12.3125 q 0.89062,0 1,-0.10938 0.125,-0.125 0.125,-1.01562 v -2.90625 q 0,-0.90625 -0.125,-1 -0.10938,-0.0937 -1,-0.0937 h -13.21875 q -1.82813,0 -3.14063,-1.32813 -1.29687,-1.32812 -1.29687,-3.15625 v -4.73437 q 0,-1.82813 1.29687,-3.14063 1.3125,-1.3125 3.14063,-1.3125 h 14.14062 q 1.82813,0 3.14063,1.3125 1.3125,1.3125 1.3125,3.14063 v 1.76562 h -4.25 v -0.82812 q 0,-0.90625 -0.125,-1.01563 -0.10938,-0.10937 -1,-0.10937 h -12.3125 q -0.90625,0 -1.01563,0.10937 -0.10937,0.10938 -0.10937,1.01563 v 2.90625 q 0,0.89062 0.10937,1 0.10938,0.0937 1.01563,0.0937 h 13.23437 q 1.82813,0 3.14063,1.32812 1.3125,1.3125 1.3125,3.14063 v 4.73437 q 0,1.82813 -1.3125,3.14063 -1.3125,1.3125 -3.14063,1.3125 z m 22.02576,0 V 177.2902 h 4.1875 v 6.07813 h 10.23437 q 1.79688,0 3.10938,1.29687 1.3125,1.29688 1.3125,3.125 v 14.14063 h -4.1875 v -13.25 q 0,-0.89063 -0.125,-1 -0.10938,-0.125 -1,-0.125 h -8.21875 q -0.90625,0 -1.01563,0.125 -0.10937,0.10937 -0.10937,1 v 13.25 z m 25.65655,0 q -1.82812,0 -3.125,-1.29688 -1.29687,-1.29687 -1.29687,-3.125 v -9.71875 q 0,-1.82812 1.29687,-3.125 1.29688,-1.29687 3.125,-1.29687 h 10.01563 q 1.82812,0 3.125,1.29687 1.29687,1.29688 1.29687,3.125 v 6.96875 h -14.65625 v 1.85938 q 0,0.89062 0.10938,1.01562 0.10937,0.10938 1,0.10938 h 13.54687 v 4.1875 z m -0.21875,-10.9375 h 10.45313 v -2.3125 q 0,-0.89063 -0.10938,-1 -0.10937,-0.125 -1,-0.125 h -8.23437 q -0.89063,0 -1,0.125 -0.10938,0.10937 -0.10938,1 z m 21.62604,10.9375 q -1.82813,0 -3.125,-1.29688 -1.29688,-1.29687 -1.29688,-3.125 v -20.25 h 4.23438 v 19.35938 q 0,0.89062 0.10937,1.01562 0.10938,0.10938 0.96875,0.10938 h 2.85938 v 4.1875 z m 10.65601,0 q -1.82813,0 -3.125,-1.29688 -1.29688,-1.29687 -1.29688,-3.125 v -20.25 h 4.23438 v 19.35938 q 0,0.89062 0.10937,1.01562 0.10938,0.10938 0.96875,0.10938 h 2.85938 v 4.1875 z"
       fill-rule="nonzero"
       id="path909" />
    <path
       fill="#ff0000"
       d="m 580.46716,307.02362 19.14966,-48.59842 19.1496,48.59842 z"
       fill-rule="evenodd"
       id="path911" />
    <path
       stroke="#ff0000"
       stroke-width="1"
       stroke-linejoin="round"
       stroke-linecap="butt"
       d="m 580.46716,307.02362 19.14966,-48.59842 19.1496,48.59842 z"
       fill-rule="evenodd"
       id="path913" />
    <path
       fill="#ffffff"
       d="M 14.860892,26.874016 H 278.61939 v 0 h 113.03937 75.35959 V 208.92913 l 50.0719,-14.95662 -50.0719,92.98024 v 52.01574 H 391.65876 278.61939 v 0 H 14.860892 v -52.01574 -78.02362 0 z"
       fill-rule="evenodd"
       id="path915" />
    <path
       stroke="#000000"
       stroke-width="1"
       stroke-linejoin="round"
       stroke-linecap="butt"
       d="M 14.860892,26.874016 H 278.61939 v 0 h 113.03937 75.35959 V 208.92913 l 50.0719,-14.95662 -50.0719,92.98024 v 52.01574 H 391.65876 278.61939 v 0 H 14.860892 v -52.01574 -78.02362 0 z"
       fill-rule="evenodd"
       id="path917" />
    <path
       fill="#000000"
       d="m 30.812265,138.36125 h -2.6875 v -17.17187 q -0.984375,0.9375 -2.5625,1.85938 -1.578125,0.92187 -2.828125,1.39062 v -2.60937 q 2.25,-1.0625 3.9375,-2.5625 1.703125,-1.51563 2.40625,-2.9375 h 1.734375 z m 9.40892,6.45312 H 38.29931 q 4.46875,-7.1875 4.46875,-14.39062 0,-2.81249 -0.640625,-5.57812 -0.515625,-2.25 -1.421875,-4.3125 -0.578125,-1.34375 -2.40625,-4.48437 h 1.921875 q 2.8125,3.75 4.171875,7.53125 1.140625,3.26562 1.140625,6.82811 0,4.04688 -1.546875,7.82813 -1.546875,3.76562 -3.765625,6.57812 z"
       fill-rule="nonzero"
       id="path919" />
    <path
       fill="#000000"
       d="m 74.72027,138.36125 v -21.93749 h 2.90625 v 21.93749 z m 7.673538,0 v -15.89062 h 2.4375 v 2.25 q 1.75,-2.60937 5.046875,-2.60937 1.4375,0 2.640625,0.51562 1.21875,0.51563 1.8125,1.35938 0.59375,0.82812 0.84375,1.98437 0.140625,0.75 0.140625,2.60937 v 9.78125 h -2.6875 v -9.67187 q 0,-1.64062 -0.328125,-2.45312 -0.3125,-0.82813 -1.109375,-1.3125 -0.796875,-0.48438 -1.875,-0.48438 -1.71875,0 -2.96875,1.09375 -1.25,1.09375 -1.25,4.14062 v 8.6875 z m 17.049545,6.09375 v -21.98437 h 2.453127 v 2.0625 q 0.875,-1.21875 1.96875,-1.8125 1.09375,-0.60937 2.65625,-0.60937 2.03125,0 3.57812,1.04687 1.5625,1.04688 2.35938,2.95313 0.79687,1.90624 0.79687,4.18749 0,2.4375 -0.875,4.39063 -0.875,1.95312 -2.54687,3 -1.67188,1.03125 -3.51563,1.03125 -1.34375,0 -2.42187,-0.5625 -1.0625,-0.57813 -1.75,-1.4375 v 7.73437 z m 2.437497,-13.95313 q 0,3.0625 1.25,4.53125 1.25,1.46875 3.01563,1.46875 1.79687,0 3.0625,-1.51562 1.28125,-1.51563 1.28125,-4.70313 0,-3.04686 -1.25,-4.54686 -1.25,-1.51563 -2.98438,-1.51563 -1.71875,0 -3.04687,1.60938 -1.32813,1.60937 -1.32813,4.67186 z m 25.03392,7.85938 v -2.32813 q -1.85937,2.6875 -5.04687,2.6875 -1.40625,0 -2.625,-0.53125 -1.21875,-0.54687 -1.8125,-1.35937 -0.59375,-0.8125 -0.82813,-2 -0.17187,-0.79688 -0.17187,-2.51563 v -9.84374 h 2.70312 v 8.81249 q 0,2.10938 0.15625,2.84375 0.26563,1.0625 1.07813,1.67188 0.82812,0.60937 2.04687,0.60937 1.20313,0 2.26563,-0.625 1.0625,-0.625 1.5,-1.6875 0.45312,-1.07812 0.45312,-3.10937 v -8.51562 h 2.6875 v 15.89062 z m 12.51829,-2.40625 0.39063,2.375 q -1.14063,0.23437 -2.04688,0.23437 -1.45312,0 -2.26562,-0.45312 -0.8125,-0.46875 -1.14063,-1.21875 -0.32812,-0.76563 -0.32812,-3.1875 v -9.14062 h -1.98438 v -2.09375 h 1.98438 v -3.9375 l 2.67187,-1.625 v 5.5625 h 2.71875 v 2.09375 h -2.71875 v 9.29687 q 0,1.14062 0.14063,1.48437 0.15625,0.32813 0.46875,0.51563 0.32812,0.1875 0.92187,0.1875 0.45313,0 1.1875,-0.0937 z m 13.62833,2.40625 h -2.5 v -21.93749 h 2.70312 v 7.82812 q 1.70313,-2.14062 4.35938,-2.14062 1.45312,0 2.76562,0.59375 1.3125,0.57812 2.15625,1.65625 0.84375,1.0625 1.32813,2.57812 0.48437,1.51562 0.48437,3.23437 0,4.09375 -2.03125,6.32813 -2.01562,2.21875 -4.84375,2.21875 -2.8125,0 -4.42187,-2.34375 z m -0.0312,-8.0625 q 0,2.85937 0.78125,4.125 1.28125,2.07812 3.45312,2.07812 1.76563,0 3.04688,-1.53125 1.28125,-1.53125 1.28125,-4.57812 0,-3.10937 -1.23438,-4.59374 -1.23437,-1.48438 -2.98437,-1.48438 -1.76563,0 -3.0625,1.54688 -1.28125,1.53125 -1.28125,4.43749 z m 25.48704,2.9375 2.78125,0.34375 q -0.65625,2.45312 -2.4375,3.79687 -1.78125,1.34375 -4.54687,1.34375 -3.5,0 -5.54688,-2.14062 -2.03125,-2.15625 -2.03125,-6.03125 0,-4.01562 2.0625,-6.21874 2.0625,-2.21875 5.35938,-2.21875 3.1875,0 5.20312,2.17187 2.03125,2.15625 2.03125,6.09374 0,0.25 -0.0156,0.71875 h -11.85938 q 0.15625,2.625 1.48438,4.01563 1.32812,1.39062 3.32812,1.39062 1.46875,0 2.51563,-0.76562 1.0625,-0.78125 1.67187,-2.5 z m -8.84375,-4.34375 h 8.875 q -0.1875,-2.01562 -1.01562,-3.01562 -1.29688,-1.5625 -3.34375,-1.5625 -1.85938,0 -3.125,1.25 -1.26563,1.23438 -1.39063,3.32812 z m 14.5183,10.78125 2.60937,0.39062 q 0.17188,1.21875 0.92188,1.76563 1,0.75 2.73437,0.75 1.875,0 2.89063,-0.75 1.01562,-0.75 1.375,-2.09375 0.21875,-0.82813 0.20312,-3.45313 -1.76562,2.07813 -4.40625,2.07813 -3.28125,0 -5.07812,-2.35938 -1.79688,-2.375 -1.79688,-5.67187 0,-2.28125 0.82813,-4.20312 0.82812,-1.92187 2.39062,-2.96875 1.5625,-1.04687 3.67188,-1.04687 2.8125,0 4.64062,2.26562 v -1.90625 h 2.48438 V 136.205 q 0,3.71875 -0.76563,5.26562 -0.75,1.54688 -2.39062,2.4375 -1.64063,0.90625 -4.03125,0.90625 -2.84375,0 -4.59375,-1.28125 -1.75,-1.28125 -1.6875,-3.85937 z m 2.21875,-9.54688 q 0,3.125 1.23437,4.5625 1.25,1.4375 3.125,1.4375 1.85938,0 3.10938,-1.42187 1.26562,-1.4375 1.26562,-4.48438 0,-2.92186 -1.29687,-4.40624 -1.29688,-1.48437 -3.125,-1.48437 -1.79688,0 -3.0625,1.46875 -1.25,1.45312 -1.25,4.32811 z m 15.33079,-10.60936 v -3.09375 h 2.70313 v 3.09375 z m 0,18.84374 v -15.89062 h 2.70313 v 15.89062 z m 6.79521,0 v -15.89062 h 2.4375 v 2.25 q 1.75,-2.60937 5.04688,-2.60937 1.4375,0 2.64062,0.51562 1.21875,0.51563 1.8125,1.35938 0.59375,0.82812 0.84375,1.98437 0.14063,0.75 0.14063,2.60937 v 9.78125 h -2.6875 v -9.67187 q 0,-1.64062 -0.32813,-2.45312 -0.3125,-0.82813 -1.10937,-1.3125 -0.79688,-0.48438 -1.875,-0.48438 -1.71875,0 -2.96875,1.09375 -1.25,1.09375 -1.25,4.14062 v 8.6875 z m 15.97142,-4.75 2.67188,-0.42188 q 0.21875,1.60938 1.23437,2.46875 1.03125,0.84375 2.875,0.84375 1.85938,0 2.75,-0.75 0.90625,-0.76562 0.90625,-1.78125 0,-0.90625 -0.79687,-1.4375 -0.54688,-0.35937 -2.75,-0.90625 -2.96875,-0.75 -4.10938,-1.29687 -1.14062,-0.54688 -1.73437,-1.51563 -0.59375,-0.96874 -0.59375,-2.12499 0,-1.0625 0.48437,-1.96875 0.48438,-0.90625 1.32813,-1.51562 0.625,-0.45313 1.70312,-0.76563 1.09375,-0.32812 2.34375,-0.32812 1.85938,0 3.26563,0.54687 1.42187,0.53125 2.09375,1.45313 0.6875,0.90625 0.9375,2.45312 l -2.64063,0.35938 q -0.17187,-1.21875 -1.03125,-1.90625 -0.85937,-0.70313 -2.4375,-0.70313 -1.85937,0 -2.65625,0.625 -0.78125,0.60938 -0.78125,1.4375 0,0.51563 0.32813,0.9375 0.32812,0.4375 1.03125,0.71874 0.40625,0.15625 2.375,0.6875 2.85937,0.76563 3.98437,1.25 1.14063,0.48438 1.78125,1.42188 0.64063,0.92187 0.64063,2.29687 0,1.34375 -0.78125,2.54688 -0.78125,1.1875 -2.26563,1.84375 -1.48437,0.64062 -3.35937,0.64062 -3.09375,0 -4.71875,-1.28125 -1.625,-1.29687 -2.07813,-3.82812 z m 27.86104,4.75 -4.85937,-15.89062 h 2.78125 l 2.53125,9.17187 0.9375,3.40625 q 0.0625,-0.25 0.82812,-3.28125 l 2.53127,-9.29687 h 2.76562 l 2.375,9.21874 0.79688,3.03125 0.92187,-3.0625 2.71875,-9.18749 h 2.625 l -4.96875,15.89062 h -2.8125 l -2.53125,-9.51563 -0.60937,-2.71874 -3.21877,12.23437 z m 19.21712,-18.84374 v -3.09375 h 2.70312 v 3.09375 z m 0,18.84374 v -15.89062 h 2.70312 v 15.89062 z m 12.68582,-2.40625 0.39063,2.375 q -1.14063,0.23437 -2.04688,0.23437 -1.45312,0 -2.26562,-0.45312 -0.8125,-0.46875 -1.14063,-1.21875 -0.32812,-0.76563 -0.32812,-3.1875 v -9.14062 h -1.98438 v -2.09375 h 1.98438 v -3.9375 l 2.67187,-1.625 v 5.5625 h 2.71875 v 2.09375 h -2.71875 v 9.29687 q 0,1.14062 0.14063,1.48437 0.15625,0.32813 0.46875,0.51563 0.32812,0.1875 0.92187,0.1875 0.45313,0 1.1875,-0.0937 z m 2.62668,2.40625 v -21.93749 h 2.70312 v 7.85937 q 1.875,-2.17187 4.75,-2.17187 1.76563,0 3.0625,0.70312 1.3125,0.6875 1.875,1.92188 0.5625,1.21875 0.5625,3.54687 v 10.07812 h -2.6875 v -10.07812 q 0,-2.01562 -0.89062,-2.9375 -0.875,-0.92187 -2.46875,-0.92187 -1.20313,0 -2.26563,0.625 -1.04687,0.625 -1.5,1.6875 -0.4375,1.0625 -0.4375,2.92187 v 8.70312 z m 28.36371,-18.26562 v 3.125 h -2.89063 v -2.46875 q 0,-2 0.46875,-2.89062 0.64063,-1.20313 2,-1.8125 l 0.65625,1.04687 q -0.82812,0.34375 -1.21875,1.03125 -0.39062,0.67188 -0.4375,1.96875 z m 3.54519,18.64062 1.29688,-6.375 h -2.53125 v -2.23438 h 2.98437 l 1.10938,-5.43749 h -4.09375 v -2.21875 h 4.53125 l 1.3125,-6.42187 h 2.23437 l -1.29687,6.42187 h 4.71875 l 1.29687,-6.42187 h 2.26563 l -1.29688,6.42187 h 2.57813 v 2.21875 h -3.03125 l -1.125,5.43749 h 4.15625 v 2.23438 h -4.60938 l -1.29687,6.375 h -2.25 l 1.29687,-6.375 h -4.70312 l -1.3125,6.375 z m 3.98438,-8.60938 h 4.70312 l 1.125,-5.43749 h -4.71875 z m 13.37765,-10.81249 v -3.125 h 2.89063 v 2.46875 q 0,2.01563 -0.46875,2.89063 -0.64063,1.21875 -2,1.82812 l -0.67188,-1.0625 q 0.8125,-0.32812 1.20313,-1.03125 0.40625,-0.71875 0.45312,-1.96875 z m 13.2995,12.45312 v -2.70313 h 8.28125 v 2.70313 z m 10.20877,0 v -2.70313 h 8.28125 v 2.70313 z"
       fill-rule="nonzero"
       id="path921" />
    <path
       fill="#000000"
       d="m 84.25152,169.53313 2.65625,0.34375 q -0.4375,2.75 -2.234375,4.29687 -1.78125,1.54688 -4.390625,1.54688 -3.25,0 -5.234375,-2.125 -1.984375,-2.14063 -1.984375,-6.125 0,-2.57813 0.84375,-4.5 0.859375,-1.9375 2.59375,-2.89063 1.75,-0.96875 3.796875,-0.96875 2.59375,0 4.234375,1.3125 1.65625,1.29688 2.125,3.70313 l -2.625,0.40625 q -0.375,-1.59375 -1.328125,-2.40625 -0.953125,-0.8125 -2.296875,-0.8125 -2.03125,0 -3.3125,1.46875 -1.265625,1.45312 -1.265625,4.60937 0,3.20313 1.21875,4.65625 1.234375,1.45313 3.203125,1.45313 1.59375,0 2.65625,-0.96875 1.0625,-0.96875 1.34375,-3 z m 3.953125,-2.125 q 0,-4.40625 2.453125,-6.53125 2.0625,-1.76563 5,-1.76563 3.28125,0 5.35938,2.15625 2.07812,2.14063 2.07812,5.92188 0,3.0625 -0.92187,4.82812 -0.90625,1.75 -2.67188,2.73438 -1.765625,0.96875 -3.84375,0.96875 -3.328125,0 -5.390625,-2.14063 -2.0625,-2.14062 -2.0625,-6.17187 z m 2.765625,0 q 0,3.0625 1.328125,4.57812 1.34375,1.51563 3.359375,1.51563 2.015625,0 3.34375,-1.51563 1.32813,-1.53125 1.32813,-4.65625 0,-2.95312 -1.343755,-4.46875 Q 97.65777,161.33 95.65777,161.33 q -2.015625,0 -3.359375,1.51563 -1.328125,1.51562 -1.328125,4.5625 z m 15.28392,7.95312 v -15.89062 h 2.42187 v 2.21875 q 0.73438,-1.15625 1.98438,-1.85938 1.25,-0.71875 2.82812,-0.71875 1.76563,0 2.89063,0.73438 1.14062,0.71875 1.59375,2.04687 1.89062,-2.78125 4.92187,-2.78125 2.35938,0 3.625,1.3125 1.28125,1.29688 1.28125,4.03125 v 10.90625 h -2.6875 v -10.01562 q 0,-1.60938 -0.26562,-2.3125 -0.25,-0.71875 -0.9375,-1.15625 -0.6875,-0.4375 -1.625,-0.4375 -1.67188,0 -2.78125,1.125 -1.10938,1.10937 -1.10938,3.5625 v 9.23437 h -2.6875 v -10.32812 q 0,-1.79688 -0.65625,-2.6875 -0.65625,-0.90625 -2.15625,-0.90625 -1.14062,0 -2.10937,0.60937 -0.96875,0.59375 -1.40625,1.75 -0.42188,1.14063 -0.42188,3.3125 v 8.25 z m 25.53689,0 v -15.89062 h 2.42187 v 2.21875 q 0.73438,-1.15625 1.98438,-1.85938 1.25,-0.71875 2.82812,-0.71875 1.76563,0 2.89063,0.73438 1.14062,0.71875 1.59375,2.04687 1.89062,-2.78125 4.92187,-2.78125 2.35938,0 3.625,1.3125 1.28125,1.29688 1.28125,4.03125 v 10.90625 h -2.6875 v -10.01562 q 0,-1.60938 -0.26562,-2.3125 -0.25,-0.71875 -0.9375,-1.15625 -0.6875,-0.4375 -1.625,-0.4375 -1.67188,0 -2.78125,1.125 -1.10938,1.10937 -1.10938,3.5625 v 9.23437 h -2.6875 v -10.32812 q 0,-1.79688 -0.65625,-2.6875 -0.65625,-0.90625 -2.15625,-0.90625 -1.14062,0 -2.10937,0.60937 -0.96875,0.59375 -1.40625,1.75 -0.42188,1.14063 -0.42188,3.3125 v 8.25 z m 36.42752,-5.125 2.78125,0.34375 q -0.65625,2.45313 -2.4375,3.79688 -1.78125,1.34375 -4.54688,1.34375 -3.5,0 -5.54687,-2.14063 -2.03125,-2.15625 -2.03125,-6.03125 0,-4.01562 2.0625,-6.21875 2.0625,-2.21875 5.35937,-2.21875 3.1875,0 5.20313,2.17188 2.03125,2.15625 2.03125,6.09375 0,0.25 -0.0156,0.71875 h -11.8594 q 0.15625,2.625 1.48437,4.01562 1.32813,1.39063 3.32813,1.39063 1.46875,0 2.51562,-0.76563 1.0625,-0.78125 1.67188,-2.5 z m -8.84375,-4.34375 h 8.875 q -0.1875,-2.01562 -1.01563,-3.01562 -1.29687,-1.5625 -3.34375,-1.5625 -1.85937,0 -3.125,1.25 -1.26562,1.23437 -1.39062,3.32812 z m 15.00267,9.46875 v -15.89062 h 2.4375 v 2.25 q 1.75,-2.60938 5.04687,-2.60938 1.4375,0 2.64063,0.51563 1.21875,0.51562 1.8125,1.35937 0.59375,0.82813 0.84375,1.98438 0.14062,0.75 0.14062,2.60937 v 9.78125 h -2.6875 v -9.67187 q 0,-1.64063 -0.32812,-2.45313 -0.3125,-0.82812 -1.10938,-1.3125 -0.79687,-0.48437 -1.875,-0.48437 -1.71875,0 -2.96875,1.09375 -1.25,1.09375 -1.25,4.14062 v 8.6875 z m 22.94017,-2.40625 0.39062,2.375 q -1.14062,0.23438 -2.04687,0.23438 -1.45313,0 -2.26563,-0.45313 -0.8125,-0.46875 -1.14062,-1.21875 -0.32813,-0.76562 -0.32813,-3.1875 v -9.14062 h -1.98437 v -2.09375 h 1.98437 v -3.9375 l 2.67188,-1.625 v 5.5625 h 2.71875 v 2.09375 h -2.71875 v 9.29687 q 0,1.14063 0.14062,1.48438 0.15625,0.32812 0.46875,0.51562 0.32813,0.1875 0.92188,0.1875 0.45312,0 1.1875,-0.0937 z m 10.09707,-4.1875 v -2.70312 h 8.28125 v 2.70312 z m 10.20877,0 v -2.70312 h 8.28125 v 2.70312 z m 19.78856,-12.25 v -3.09375 h 2.70313 v 3.09375 z m 0,18.84375 v -15.89062 h 2.70313 v 15.89062 z m 6.31084,1.3125 2.60938,0.39063 q 0.17187,1.21875 0.92187,1.76562 1,0.75 2.73438,0.75 1.875,0 2.89062,-0.75 1.01563,-0.75 1.375,-2.09375 0.21875,-0.82812 0.20313,-3.45312 -1.76563,2.07812 -4.40625,2.07812 -3.28125,0 -5.07813,-2.35937 -1.79687,-2.375 -1.79687,-5.67188 0,-2.28125 0.82812,-4.20312 0.82813,-1.92188 2.39063,-2.96875 1.5625,-1.04688 3.67187,-1.04688 2.8125,0 4.64063,2.26563 v -1.90625 h 2.48437 V 173.205 q 0,3.71875 -0.76562,5.26563 -0.75,1.54687 -2.39063,2.4375 -1.64062,0.90625 -4.03125,0.90625 -2.84375,0 -4.59375,-1.28125 -1.75,-1.28125 -1.6875,-3.85938 z m 2.21875,-9.54687 q 0,3.125 1.23438,4.5625 1.25,1.4375 3.125,1.4375 1.85937,0 3.10937,-1.42188 1.26563,-1.4375 1.26563,-4.48437 0,-2.92188 -1.29688,-4.40625 -1.29687,-1.48438 -3.125,-1.48438 -1.79687,0 -3.0625,1.46875 -1.25,1.45313 -1.25,4.32813 z m 15.31519,8.23437 v -15.89062 h 2.4375 v 2.25 q 1.75,-2.60938 5.04687,-2.60938 1.4375,0 2.64063,0.51563 1.21875,0.51562 1.8125,1.35937 0.59375,0.82813 0.84375,1.98438 0.14062,0.75 0.14062,2.60937 v 9.78125 h -2.6875 v -9.67187 q 0,-1.64063 -0.32812,-2.45313 -0.3125,-0.82812 -1.10938,-1.3125 -0.79687,-0.48437 -1.875,-0.48437 -1.71875,0 -2.96875,1.09375 -1.25,1.09375 -1.25,4.14062 v 8.6875 z m 16.04953,-7.95312 q 0,-4.40625 2.45312,-6.53125 2.0625,-1.76563 5,-1.76563 3.28125,0 5.35938,2.15625 2.07812,2.14063 2.07812,5.92188 0,3.0625 -0.92187,4.82812 -0.90625,1.75 -2.67188,2.73438 -1.76562,0.96875 -3.84375,0.96875 -3.32812,0 -5.39062,-2.14063 -2.0625,-2.14062 -2.0625,-6.17187 z m 2.76562,0 q 0,3.0625 1.32813,4.57812 1.34375,1.51563 3.35937,1.51563 2.01563,0 3.34375,-1.51563 1.32813,-1.53125 1.32813,-4.65625 0,-2.95312 -1.34375,-4.46875 -1.32813,-1.53125 -3.32813,-1.53125 -2.01562,0 -3.35937,1.51563 -1.32813,1.51562 -1.32813,4.5625 z m 15.25269,7.95312 v -15.89062 h 2.4375 v 2.40625 q 0.92187,-1.6875 1.70312,-2.21875 0.79688,-0.54688 1.73438,-0.54688 1.35937,0 2.76562,0.85938 l -0.92187,2.5 q -0.98438,-0.57813 -1.98438,-0.57813 -0.875,0 -1.57812,0.53125 -0.70313,0.53125 -1,1.46875 -0.45313,1.4375 -0.45313,3.14063 v 8.32812 z m 21.13064,-5.125 2.78125,0.34375 q -0.65625,2.45313 -2.4375,3.79688 -1.78125,1.34375 -4.54687,1.34375 -3.5,0 -5.54688,-2.14063 -2.03125,-2.15625 -2.03125,-6.03125 0,-4.01562 2.0625,-6.21875 2.0625,-2.21875 5.35938,-2.21875 3.1875,0 5.20312,2.17188 2.03125,2.15625 2.03125,6.09375 0,0.25 -0.0156,0.71875 h -11.85938 q 0.15625,2.625 1.48438,4.01562 1.32812,1.39063 3.32812,1.39063 1.46875,0 2.51563,-0.76563 1.0625,-0.78125 1.67187,-2.5 z m -8.84375,-4.34375 h 8.875 q -0.1875,-2.01562 -1.01562,-3.01562 -1.29688,-1.5625 -3.34375,-1.5625 -1.85938,0 -3.125,1.25 -1.26563,1.23437 -1.39063,3.32812 z"
       fill-rule="nonzero"
       id="path923" />
    <path
       fill="#000000"
       d="m 36.040077,245.08782 v 2.59375 H 21.524452 q -0.03125,-0.96875 0.328125,-1.875 0.546875,-1.48438 1.765625,-2.92188 1.21875,-1.4375 3.53125,-3.3125 3.578125,-2.9375 4.828125,-4.64062 1.265625,-1.71875 1.265625,-3.25 0,-1.60938 -1.15625,-2.70313 -1.140625,-1.09375 -2.984375,-1.09375 -1.9375,0 -3.109375,1.17188 -1.171875,1.15625 -1.1875,3.21875 l -2.765625,-0.28125 q 0.28125,-3.09375 2.140625,-4.71875 1.859375,-1.625 4.984375,-1.625 3.15625,0 5,1.75 1.84375,1.75 1.84375,4.34375 0,1.3125 -0.546875,2.59375 -0.53125,1.26562 -1.78125,2.67187 -1.25,1.40625 -4.15625,3.85938 -2.421875,2.03125 -3.109375,2.76562 -0.6875,0.71875 -1.140625,1.45313 z m 5.393295,9.04687 h -1.921875 q 4.46875,-7.1875 4.46875,-14.39062 0,-2.8125 -0.640625,-5.57813 -0.515625,-2.25 -1.421875,-4.3125 -0.578125,-1.34375 -2.40625,-4.48437 h 1.921875 q 2.8125,3.75 4.171875,7.53125 1.140625,3.26562 1.140625,6.82812 0,4.04688 -1.546875,7.82813 -1.546875,3.76562 -3.765625,6.57812 z"
       fill-rule="nonzero"
       id="path925" />
    <path
       fill="#ffffff"
       d="m 627.5486,356.4239 h 284.17322 l 38.34644,38.34647 -38.34644,38.34643 H 627.5486 Z"
       fill-rule="evenodd"
       id="path939" />
    <path
       stroke="#000000"
       stroke-width="1"
       stroke-linejoin="round"
       stroke-linecap="butt"
       d="m 627.5486,356.4239 h 284.17322 l 38.34644,38.34647 -38.34644,38.34643 H 627.5486 Z"
       fill-rule="evenodd"
       id="path941" />
    <path
       fill="#000000"
       d="m 743.8248,378.49597 3.10937,-1.5 3.625,7.25 -2.21875,1.03125 z m 29.12494,35.23437 v -3.5 q -3.23438,-0.21875 -5.48438,-1.59375 -2.23437,-1.39062 -3.8125,-3.48437 l 2.51563,-2.26563 q 1.35937,1.84375 3,2.9375 1.65625,1.07813 3.82812,1.375 v -10.95312 q -4.39062,-0.98438 -6.42187,-2.875 -2.03125,-1.90625 -2.03125,-5.23438 0,-1.70312 0.60937,-3.04687 0.625,-1.34375 1.73438,-2.32813 1.10937,-0.98437 2.64062,-1.5625 1.54688,-0.57812 3.42188,-0.75 v -3.48437 h 2.64062 v 3.45312 q 2.90625,0.25 5.01563,1.46875 2.10937,1.21875 3.65625,3.34375 l -2.60938,1.96875 q -1.0625,-1.5 -2.5625,-2.45312 -1.48437,-0.96875 -3.53125,-1.26563 v 9.98438 l 0.375,0.0937 q 4.4375,0.96875 6.45313,2.875 2.03125,1.89062 2.03125,5.26562 0,3.67188 -2.375,5.90625 -2.35938,2.23438 -6.45313,2.625 v 3.5 z m 8.10937,-11.8125 q 0,-2.1875 -1.26562,-3.32812 -1.25,-1.15625 -4.23438,-1.875 v 10.48437 q 2.54688,-0.34375 4.01563,-1.71875 1.48437,-1.39062 1.48437,-3.5625 z m -13.14062,-14.04687 q 0,2.1875 1.25,3.28125 1.26562,1.07812 3.82812,1.76562 v -9.4375 q -2.3125,0.29688 -3.70312,1.40625 -1.375,1.10938 -1.375,2.98438 z m 37.07525,-9.375 3.10938,-1.5 3.625,7.25 -2.21875,1.03125 z"
       fill-rule="nonzero"
       id="path943" />
    <path
       fill="#ffffff"
       d="M 938.71655,3.8267717 H 654.76379 l -53.74805,53.7480303 53.74805,53.748038 h 283.95276 z"
       fill-rule="evenodd"
       id="path945" />
    <path
       stroke="#000000"
       stroke-width="1"
       stroke-linejoin="round"
       stroke-linecap="butt"
       d="M 938.71655,3.8267717 H 654.76379 l -53.74805,53.7480303 53.74805,53.748038 h 283.95276 z"
       fill-rule="evenodd"
       id="path947" />
    <path
       fill="#000000"
       d="m 677.9074,41.300426 3.10938,-1.5 3.625,7.25 -2.21875,1.03125 z m 34.92188,22.984379 h -6.5625 l -1.53125,8.75 h -2.73438 l 1.53125,-8.75 h -5.45312 v -2.546879 h 5.89062 l 1.1875,-7.171875 h -5.42187 v -2.5625 h 5.89062 l 1.5,-8.75 h 2.71875 l -1.48437,8.75 h 6.5625 l 1.5,-8.75 h 2.71875 l -1.48438,8.75 h 5.45313 v 2.5625 h -5.92188 l -1.20312,7.171875 h 5.46875 v 2.546879 h -5.89063 l -1.53125,8.75 h -2.73437 z m 0.4375,-2.546879 1.1875,-7.171875 h -6.5625 l -1.20313,7.171875 z m 26.35571,-20.265625 h 3.40625 v 13.140625 h 0.17187 q 0.8125,-1.875 2.28125,-2.984375 1.48438,-1.109375 3.95313,-1.109375 3.40625,0 5.39062,2.203125 1.98438,2.1875 1.98438,6.1875 v 14.125004 h -3.40625 V 59.519176 q 0,-5.9375 -5,-5.9375 -1.01563,0 -1.98438,0.265625 -0.95312,0.25 -1.71875,0.765625 -0.76562,0.5 -1.21875,1.296875 -0.45312,0.78125 -0.45312,1.859375 v 15.265629 h -3.40625 z m 32.50995,32.07813 q -2.26563,0 -4.07813,-0.8125 -1.8125,-0.8125 -3.125,-2.328125 -1.29687,-1.515625 -2,-3.625 -0.70312,-2.109375 -0.70312,-4.750004 0,-2.609375 0.70312,-4.734375 0.70313,-2.140625 2,-3.65625 1.3125,-1.515625 3.125,-2.3125 1.8125,-0.8125 4.07813,-0.8125 2.21875,0 3.95312,0.8125 1.75,0.796875 2.98438,2.234375 1.25,1.421875 1.90625,3.390625 0.65625,1.953125 0.65625,4.3125 v 1.609375 h -15.8125 v 1.03125 q 0,1.406254 0.4375,2.625004 0.45312,1.203125 1.28125,2.109375 0.82812,0.890625 2.04687,1.40625 1.21875,0.515625 2.75,0.515625 2.09375,0 3.64063,-0.984375 1.5625,-0.984375 2.42187,-2.8125 l 2.4375,1.75 q -1.07812,2.25 -3.34375,3.640625 -2.25,1.390625 -5.35937,1.390625 z m 0,-20.187504 q -1.40625,0 -2.5625,0.5 -1.15625,0.484375 -1.98438,1.390625 -0.82812,0.890625 -1.29687,2.109375 -0.46875,1.21875 -0.46875,2.65625 v 0.296875 h 12.15625 v -0.46875 q 0,-2.9375 -1.60938,-4.703125 -1.59375,-1.78125 -4.23437,-1.78125 z m 18.76196,19.671879 q -1.79687,0 -2.71875,-1 -0.90625,-1 -0.90625,-2.546875 V 41.472302 h 3.40625 v 28.578129 h 3.25 v 2.984375 z m 11.38916,0 q -1.79687,0 -2.71875,-1 -0.90625,-1 -0.90625,-2.546875 V 41.472302 h 3.40625 v 28.578129 h 3.25 v 2.984375 z m 16.28998,0.515625 q -2.21875,0 -4.04688,-0.8125 -1.82812,-0.8125 -3.14062,-2.328125 -1.29688,-1.515625 -2.03125,-3.625 -0.71875,-2.109375 -0.71875,-4.750004 0,-2.609375 0.71875,-4.734375 0.73437,-2.140625 2.03125,-3.65625 1.3125,-1.515625 3.14062,-2.3125 1.82813,-0.8125 4.04688,-0.8125 2.21875,0 4.03125,0.8125 1.8125,0.796875 3.14062,2.3125 1.32813,1.515625 2.04688,3.65625 0.71875,2.125 0.71875,4.734375 0,2.640629 -0.71875,4.750004 -0.71875,2.109375 -2.04688,3.625 -1.32812,1.515625 -3.14062,2.328125 -1.8125,0.8125 -4.03125,0.8125 z m 0,-3.03125 q 2.78125,0 4.53125,-1.703125 1.75,-1.703125 1.75,-5.203129 v -3.15625 q 0,-3.5 -1.75,-5.203125 -1.75,-1.71875 -4.53125,-1.71875 -2.76563,0 -4.51563,1.71875 -1.75,1.703125 -1.75,5.203125 v 3.15625 q 0,3.500004 1.75,5.203129 1.75,1.703125 4.51563,1.703125 z m 24.69995,8.953125 -11.04687,-38.000004 h 3.07812 l 11.04688,38.000004 z m 7.21234,-6.4375 V 51.019177 h 3.40625 v 3.59375 h 0.17188 q 0.8125,-1.875 2.28125,-2.984375 1.48437,-1.109375 3.95312,-1.109375 3.40625,0 5.39063,2.203125 1.98437,2.1875 1.98437,6.1875 v 14.125004 h -3.40625 V 59.519177 q 0,-5.9375 -5,-5.9375 -1.01562,0 -1.98437,0.265625 -0.95313,0.25 -1.71875,0.765625 -0.76563,0.5 -1.21875,1.296875 -0.45313,0.78125 -0.45313,1.859375 v 15.265629 z m 28.58808,-31.734379 3.10937,-1.5 3.625,7.25 -2.21875,1.03125 z"
       fill-rule="nonzero"
       id="path949" />
    <path
       fill="#000000"
       d="m 69.82168,240.23851 2.625,-0.21875 q 0.1875,1.5625 0.85937,2.57813 0.6875,1.01562 2.10938,1.64062 1.4375,0.60938 3.23437,0.60938 1.59375,0 2.79688,-0.46875 1.21875,-0.46875 1.8125,-1.28125 0.59375,-0.82813 0.59375,-1.8125 0,-0.98438 -0.57813,-1.71875 -0.5625,-0.73438 -1.875,-1.23438 -0.84375,-0.34375 -3.73437,-1.03125 -2.89063,-0.6875 -4.0625,-1.3125 -1.5,-0.78125 -2.23438,-1.95312 -0.73437,-1.17188 -0.73437,-2.60938 0,-1.59375 0.89062,-2.96875 0.90625,-1.39062 2.64063,-2.10937 1.73437,-0.71875 3.85937,-0.71875 2.32813,0 4.10938,0.76562 1.78125,0.75 2.73437,2.21875 0.96875,1.45313 1.04688,3.29688 l -2.67188,0.20312 q -0.21875,-2 -1.45312,-3.01562 -1.23438,-1.01563 -3.65625,-1.01563 -2.51563,0 -3.67188,0.92188 -1.15625,0.92187 -1.15625,2.23437 0,1.125 0.8125,1.85938 0.8125,0.73437 4.1875,1.5 3.39063,0.76562 4.65625,1.32812 1.82813,0.85938 2.70313,2.15625 0.875,1.28125 0.875,2.98438 0,1.67187 -0.96875,3.15625 -0.95313,1.48437 -2.75,2.3125 -1.79688,0.8125 -4.04688,0.8125 -2.84375,0 -4.78125,-0.82813 -1.92187,-0.82812 -3.01562,-2.5 -1.09375,-1.67187 -1.15625,-3.78125 z m 30.59288,1.85938 2.65625,0.32812 q -0.625,2.32813 -2.32813,3.625 -1.70312,1.28125 -4.35937,1.28125 -3.32813,0 -5.28125,-2.04687 -1.95313,-2.0625 -1.95313,-5.76563 0,-3.84375 1.96875,-5.95312 1.98438,-2.125 5.125,-2.125 3.0625,0 4.98438,2.07812 1.9375,2.0625 1.9375,5.84375 0,0.21875 -0.0156,0.67188 H 91.80518 q 0.14063,2.51562 1.42188,3.84375 1.28125,1.32812 3.17187,1.32812 1.42188,0 2.42188,-0.73437 1,-0.75 1.59375,-2.375 z m -8.46875,-4.17188 h 8.5 q -0.17188,-1.92187 -0.96875,-2.875 -1.23438,-1.5 -3.20313,-1.5 -1.76562,0 -2.98437,1.1875 -1.20313,1.1875 -1.34375,3.1875 z m 14.37341,9.0625 v -15.20312 h 2.3125 v 2.15625 q 1.67188,-2.5 4.84375,-2.5 1.375,0 2.53125,0.5 1.15625,0.48437 1.71875,1.29687 0.57813,0.79688 0.8125,1.89063 0.14063,0.71875 0.14063,2.51562 v 9.34375 h -2.57813 v -9.25 q 0,-1.57812 -0.3125,-2.35937 -0.29687,-0.78125 -1.0625,-1.23438 -0.76562,-0.46875 -1.79687,-0.46875 -1.64063,0 -2.84375,1.04688 -1.1875,1.03125 -1.1875,3.95312 v 8.3125 z m 26.17028,0 v -1.92187 q -1.4375,2.26562 -4.25,2.26562 -1.8125,0 -3.34375,-1 -1.53124,-1 -2.37499,-2.79687 -0.82812,-1.79688 -0.82812,-4.14063 0,-2.26562 0.75,-4.125 0.76562,-1.85937 2.28124,-2.84375 1.53125,-0.98437 3.40625,-0.98437 1.375,0 2.4375,0.57812 1.07812,0.57813 1.75,1.5 v -7.53125 h 2.5625 v 21 z m -8.14061,-7.59375 q 0,2.92188 1.21874,4.375 1.23437,1.4375 2.92187,1.4375 1.6875,0 2.85938,-1.375 1.1875,-1.39062 1.1875,-4.21875 0,-3.125 -1.20313,-4.57812 -1.20312,-1.46875 -2.96875,-1.46875 -1.71875,0 -2.875,1.40625 -1.14061,1.40625 -1.14061,4.42187 z m 22.74045,13.42188 v -21.03125 h 2.34375 v 1.96875 q 0.82813,-1.15625 1.875,-1.73438 1.04688,-0.57812 2.53125,-0.57812 1.95313,0 3.4375,1 1.5,1 2.25,2.82812 0.76563,1.82813 0.76563,4 0,2.32813 -0.84375,4.20313 -0.82813,1.875 -2.4375,2.875 -1.59375,0.98437 -3.35938,0.98437 -1.28125,0 -2.3125,-0.54687 -1.01562,-0.54688 -1.67187,-1.375 v 7.40625 z m 2.32813,-13.34375 q 0,2.9375 1.1875,4.34375 1.1875,1.39062 2.875,1.39062 1.71875,0 2.9375,-1.45312 1.23437,-1.45313 1.23437,-4.5 0,-2.90625 -1.20312,-4.34375 -1.1875,-1.45313 -2.84375,-1.45313 -1.65625,0 -2.92188,1.54688 -1.26562,1.53125 -1.26562,4.46875 z m 13.95153,7.51562 v -15.20312 h 2.3125 v 2.29687 q 0.89063,-1.60937 1.64063,-2.125 0.75,-0.51562 1.65625,-0.51562 1.3125,0 2.65625,0.82812 l -0.89063,2.39063 q -0.95312,-0.5625 -1.89062,-0.5625 -0.84375,0 -1.51563,0.51562 -0.67187,0.5 -0.96875,1.40625 -0.42187,1.375 -0.42187,3 v 7.96875 z m 8.829,-7.60937 q 0,-4.21875 2.35937,-6.25 1.95313,-1.6875 4.78125,-1.6875 3.125,0 5.10938,2.0625 2,2.04687 2,5.67187 0,2.92188 -0.875,4.60938 -0.875,1.6875 -2.5625,2.625 -1.6875,0.92187 -3.67188,0.92187 -3.20312,0 -5.17187,-2.04687 -1.96875,-2.04688 -1.96875,-5.90625 z m 2.65625,0 q 0,2.92187 1.26562,4.375 1.28125,1.45312 3.21875,1.45312 1.92188,0 3.1875,-1.45312 1.28125,-1.46875 1.28125,-4.45313 0,-2.82812 -1.28125,-4.28125 -1.28125,-1.45312 -3.1875,-1.45312 -1.9375,0 -3.21875,1.45312 -1.26562,1.4375 -1.26562,4.35938 z m 14.62341,7.60937 v -15.20312 h 2.29688 v 2.125 q 0.71875,-1.10938 1.90625,-1.78125 1.1875,-0.6875 2.70312,-0.6875 1.70313,0 2.78125,0.70312 1.07813,0.6875 1.51563,1.95313 1.8125,-2.65625 4.70312,-2.65625 2.26563,0 3.48438,1.25 1.21875,1.25 1.21875,3.85937 v 10.4375 h -2.5625 v -9.57812 q 0,-1.54688 -0.26563,-2.21875 -0.25,-0.6875 -0.90625,-1.09375 -0.65625,-0.42188 -1.54687,-0.42188 -1.59375,0 -2.65625,1.0625 -1.0625,1.0625 -1.0625,3.42188 v 8.82812 h -2.57813 v -9.875 q 0,-1.71875 -0.64062,-2.57812 -0.625,-0.85938 -2.04688,-0.85938 -1.09375,0 -2.01562,0.57813 -0.92188,0.5625 -1.34375,1.67187 -0.40625,1.09375 -0.40625,3.17188 v 7.89062 z m 24.43056,5.82813 v -21.03125 h 2.34375 v 1.96875 q 0.82812,-1.15625 1.875,-1.73438 1.04687,-0.57812 2.53125,-0.57812 1.95312,0 3.4375,1 1.5,1 2.25,2.82812 0.76562,1.82813 0.76562,4 0,2.32813 -0.84375,4.20313 -0.82812,1.875 -2.4375,2.875 -1.59375,0.98437 -3.35937,0.98437 -1.28125,0 -2.3125,-0.54687 -1.01563,-0.54688 -1.67188,-1.375 v 7.40625 z m 2.32812,-13.34375 q 0,2.9375 1.1875,4.34375 1.1875,1.39062 2.875,1.39062 1.71875,0 2.9375,-1.45312 1.23438,-1.45313 1.23438,-4.5 0,-2.90625 -1.20313,-4.34375 -1.1875,-1.45313 -2.84375,-1.45313 -1.65625,0 -2.92187,1.54688 -1.26563,1.53125 -1.26563,4.46875 z m 19.60779,5.20312 0.375,2.28125 q -1.09375,0.23438 -1.95312,0.23438 -1.40625,0 -2.1875,-0.4375 -0.76563,-0.45313 -1.07813,-1.17188 -0.3125,-0.73437 -0.3125,-3.04687 v -8.75 h -1.89062 v -2 h 1.89062 v -3.76563 l 2.5625,-1.54687 v 5.3125 h 2.59375 v 2 h -2.59375 v 8.89062 q 0,1.10938 0.125,1.42188 0.14063,0.3125 0.45313,0.5 0.3125,0.1875 0.89062,0.1875 0.42188,0 1.125,-0.10938 z"
       fill-rule="nonzero"
       id="path1158" />
  </g>
</svg>
